<svg xmlns="http://www.w3.org/2000/svg" viewBox="0 0 670.17 200">
  <defs>
    <style>.cls-1{fill:#000;}.cls-2{fill:none;stroke:#fff;stroke-miterlimit:10;}path {fill: #42526e; stroke: none;}</style>
  </defs>
  <g id="Layer_2" data-name="Layer 2">
    <g id="Layer_1-2" data-name="Layer 1">
      <path  d="M278,30.35h6.61L262.34,84.89h-7.12l-20.8-54.54h7.75l17.29,45.72Z"/>
      <path  d="M299.24,84.89h-7.12V30.35h7.12Z"/>
      <path  d="M325.4,84.89V35.83H306.81V30.35h43.91v5.48H332.47V84.89Z"/>
      <path  d="M372.82,84.89V35.83h-18.6V30.35h43.91v5.48H379.88V84.89Z"/>
      <path  d="M405.7,84.89V30.35h30.86v6H412.82V53.52h20.74V59H412.82V78.9h25.66v6Z"/>
      <path  d="M455.54,84.89h-7.12V30.35h16.9q6.21,0,9.35,1.78a12.87,12.87,0,0,1,5,5.17,15.23,15.23,0,0,1,1.83,7.35,15.62,15.62,0,0,1-1.24,6.16,17.81,17.81,0,0,1-3.48,5.31,19,19,0,0,1-6.92,4.24,11.45,11.45,0,0,1,2.63,1.84,18,18,0,0,1,2.15,2.85c.84,1.32,1.59,2.55,2.23,3.68l8.7,16.16h-8.13l-7.58-14.36a31.43,31.43,0,0,0-7.12-9.09h-7.18Zm0-28.88h7a13.14,13.14,0,0,0,6.64-1.36,9.43,9.43,0,0,0,3.61-3.95,12,12,0,0,0,1.33-5.54A9.84,9.84,0,0,0,473,40.58a8.81,8.81,0,0,0-3.1-3.39c-1.38-.9-3.69-1.36-6.93-1.36h-7.46Z"/>
      <path  d="M500.47,84.89h-7.12V30.35h7.12V54.6h25.09V30.35h7.07V84.89h-7.07V60.08H500.47Z"/>
      <path  d="M544.26,84.89V30.35h30.86v6H551.38V53.52h20.75V59H551.38V78.9H577v6Z"/>
      <path  d="M601.51,84.89V35.83H582.92V30.35h43.91v5.48H608.57V84.89Z"/>
      <path  d="M633.1,72.62h7.06V73q0,4.53,3.22,6.31a17.71,17.71,0,0,0,8.54,1.78,11.49,11.49,0,0,0,7.77-2.72,9,9,0,0,0,3.13-7.12,7.4,7.4,0,0,0-2.71-5.88,31.63,31.63,0,0,0-8.19-4.46L649,59.68A35,35,0,0,1,640.39,55a15.55,15.55,0,0,1-4.3-5.2,14.13,14.13,0,0,1-1.41-6.35A14,14,0,0,1,639.06,33q4.38-4.23,13.7-4.24,8.54,0,12,3.17a9.72,9.72,0,0,1,3.48,7.4v.34h-7.07v-.34a4.15,4.15,0,0,0-1.07-2.66,6.25,6.25,0,0,0-3.22-1.89,17.82,17.82,0,0,0-4.69-.59c-3.51,0-6.1.87-7.77,2.63a8.39,8.39,0,0,0-2.52,6A8.11,8.11,0,0,0,643.1,47a9.59,9.59,0,0,0,3.28,3.27,63,63,0,0,0,7.06,3.51l3.34,1.41q8,3.51,10.73,7.35a14.24,14.24,0,0,1,2.66,8.25,16,16,0,0,1-2.18,8,14.3,14.3,0,0,1-6,5.82q-3.87,2-10.32,2a31.07,31.07,0,0,1-10.2-1.44,11.63,11.63,0,0,1-6.21-4.81A13.4,13.4,0,0,1,633.1,73Z"/>
      <path  d="M263.08,142.58q6.44,1.57,9.35,5.34a13.44,13.44,0,0,1,2.91,8.45,14.3,14.3,0,0,1-2,7.34,14.77,14.77,0,0,1-5.7,5.52q-3.7,2.06-12.75,2.06H238.49V116.75H253q9.89,0,13.28,1.41a10.65,10.65,0,0,1,5.11,4.19,11.41,11.41,0,0,1,1.73,6.16A14.61,14.61,0,0,1,271,136Q268.78,139.7,263.08,142.58Zm-17.47-2.15h6.84c3.51,0,6.13-.46,7.88-1.38a11,11,0,0,0,5.74-9.41,6.77,6.77,0,0,0-2.43-5.23q-2.43-2.18-8.81-2.18h-9.22Zm0,25.43h10q7.11,0,9.74-2.65a8.61,8.61,0,0,0,2.63-6.28,9.26,9.26,0,0,0-1.69-5.39,12.42,12.42,0,0,0-5-4c-2.23-1.05-5.69-1.58-10.4-1.58h-5.26Z"/>
      <path  d="M288.16,171.29h-6.61l22.38-54.54h7.18l20.63,54.54h-7.69l-5.65-15H294.32Zm8.31-20.46h19.84l-9.55-25.38Z"/>
      <path  d="M339.25,171.29V116.75h7.12V165.3H375v6Z"/>
      <rect  x="185.83" width="1" height="200"/>
      <path  d="M128.22,60.4s-1-2.54-4.59-5.56c-7.43-6.15-12.75-17.45-17.74-20.07-5.42-2.85-5-.52-10.84-4.67l-1.4.49c.63-.3,3.18-2.32,3.33-15.59,0,0,.06-5.35-.17-6.67,0,0-5.3,4.93-13.94.8,0,0,11.64,2.52,13.42-2.32,0,0,.06-5.12-7.7-6.55A12.13,12.13,0,0,0,78,3.18s-2.29,2.49-1.41,10.59l.29,2.32s-1.32-.23-.66,2.46c0,0,.69,3,2,3.69a1,1,0,0,0,1-.43s1.57,4.55-.06,6.64c0,0-3.06,1.38-3.75,2.72,0,0-3.28,5.65-14.35,6.23a5.08,5.08,0,0,0-2.37.74c-1.48.9-3.72,2.62-3.95,4.9-.35-.35-4-2.71-1.68-5.31a3.37,3.37,0,0,1,1.79-1c3-.68,3.28-.75,3.74-.83,2.11-.37,1.74-3.08,1.74-3.08,0-.68,1.11-.85.25-1.79,0,0,1.57-.36.82-1.56a.84.84,0,0,1,0-.84c.1-.17.17-.55.58-.58.56,0,1.67-.28,1.29-1.56-.18-.64-.49-.81-1-1.54-2.48-3.54.83-3.84-4.4-11.5-.71-1,0-3.19-5.55-3.71-3.4-.31-7.63-.81-11.83,2.21C35,15.84,36.62,22.84,36.62,22.84s-6.22,1.45-4.16,7.56c0,0,2.37,5.12,8.32,2.39.61,11.57-7,10.23-3.8,23.49a60.94,60.94,0,0,1,1.09,9.27s-2.48,1-2.25,5.35C35.92,73,39.07,73.67,42,75c4.19,2,3.37,7.44,2.56,9.18-1.11,2.36-6.18,13.57-5.67,20.5.58,7.79,2.75,12-3.09,17.18-3.92,3.5-9.36,8.73-16.67,10.2-3.57.72-1.1,10.34,14.27,18.65,0,0-5.13.62-16.38,17.14,0,0-.57,1.41-3.86.92,0,0-6.41-.45-7.38,4.76-.59,3.12-3,4.55-5.76,6.06l.66,1.15,5.13-3.41a.68.68,0,0,1,1,.45,8.22,8.22,0,0,1-1.82,7s-1.35,1.36.09,5.48c0,0,1.37,5.23,5.61,7.28,0,0,4.26.71,3.07-3.21-.39-1.28-1.33-3.42.51-7.77a15.19,15.19,0,0,1,1.05-1.6c5.44-9.25,9.26-12.81,16.31-17.52,12.91-8.62,13.78-11.53,15.73-11.09,5.24,1.2,6.71,2,7.71.34,2.25-3.71,8.62-14.83,8.21-20.45A5.83,5.83,0,0,1,67,140.47a6.82,6.82,0,0,1-.59,4.69c-8.1,16-3.42,23.15-6.19,33.24A7.36,7.36,0,0,1,58,181.87a6.65,6.65,0,0,0-1.54,8c1.53,3.58,2,5.54,1.51,9.86h.69l.74-6.93a.7.7,0,0,1,.68-.62c1.27,0,4.37.58,8.1,5.89a3.12,3.12,0,0,0,2,1.28c4.91.95,10.19.74,11.32-.45.58-.61,1.38-1.95-1-3.27,0,0,3.39.95,1.44,3.78,2.07.11,5.4.56,5.79-1.56.14-.77-.24-1.7-2.36-2.33,0,0-6.13-.88-6.57-7.11a3.88,3.88,0,0,1,.38-1.9l10.19-20.93s-1.28-3-1.67-3.8a40.7,40.7,0,0,1,3.84,5.28c1.16,2.17,6.54,10.75,8.54,13.92,3.82,6.05,4.12,8.72,5.34,8.18a.61.61,0,0,1,.28.1,2.62,2.62,0,0,1,1.29,1.41,5.67,5.67,0,0,1,.3,3c-.07.73,0,.62-.11,1.05-.18,1.1.86,2.4,1.89,2a44.43,44.43,0,0,0,5.61-2.77c1.4-1,1.19-2.26.21-3.52a5.56,5.56,0,0,1-1-1.69,8,8,0,0,1-.57-3c0-.28.34-.47.51-.63a.77.77,0,0,0,.18-.89c-1-2.15-3.93-7.82-4.77-10.08-.58-1.54-6.18-23.93-7.21-26.15a19.48,19.48,0,0,1-.13-15.23c3.27-8.37,7.19-14.3,7.54-25.83a1.09,1.09,0,0,1,.88-1c.41-.18,3.21-.09,2.74-2.06-1.31-5.4-5.84-24.07-6.35-26.2-.6-2.49-3.43-13.83,2.07-17.92,0,0-.42-1.19-2.67-2.11a5.18,5.18,0,0,1,3.56,2A11.2,11.2,0,0,0,111.22,61c1,.76,2,2,3.44,3.45,2,2,5.35,5.42,12,4C126.62,68.45,130.51,67.61,128.22,60.4ZM62.57,50.78c.58.44,1.15.87,1.72,1.32S65.41,53,66,53.48l1.63,1.42c.55.48,1.08,1,1.64,1.4a8.52,8.52,0,0,0,.87.61,3.73,3.73,0,0,0,.94.41,2.79,2.79,0,0,0,1,.07l.25,0,.27,0,.53-.1c.7-.13,1.41-.27,2.11-.43l1-.23,1-.25,1-.27,1-.29c.69-.2,1.38-.4,2.06-.62L82,55l.51-.17c.34-.12.68-.23,1-.36l1-.37.25-.1.25-.1.49-.2c.67-.27,1.32-.57,2-.86l1-.46.48-.24.47-.25c.32-.17.64-.33,1-.51l.92-.55.23-.13.11-.07.1-.07a2.25,2.25,0,0,0,.37-.31,2.19,2.19,0,0,0,.29-.39l0-.06h0a1.25,1.25,0,0,1-.52-.13,1.14,1.14,0,0,1-.25-.18.8.8,0,0,1-.16-.26,1,1,0,0,1-.09-.36l-.11-.07a1.51,1.51,0,0,1-.26-.18,1.2,1.2,0,0,1-.39-.55,1,1,0,0,1,.06-.7,1.38,1.38,0,0,1,.14-.24L90.64,47a2.44,2.44,0,0,1-.43-.28,2.22,2.22,0,0,1-.38-.37,1.6,1.6,0,0,1-.32-1V45.2l0-.12a.28.28,0,0,1,0-.13l0-.13a1.61,1.61,0,0,1,.26-.48,1.48,1.48,0,0,1,.4-.35,3.55,3.55,0,0,1,.92-.37,4,4,0,0,0,.84-.31.94.94,0,0,0,.3-.26l.06-.08.06-.11c0-.06.09-.13.14-.2a3.81,3.81,0,0,1,.69-.7,3.62,3.62,0,0,1,.41-.27l.41-.22a1.39,1.39,0,0,0,.35-.26.61.61,0,0,0,.12-.16,1.54,1.54,0,0,0,.08-.19V40.8l0,0a.27.27,0,0,1,0-.12l.06-.23c0-.15.11-.3.17-.45a4.39,4.39,0,0,1,.21-.44,3.42,3.42,0,0,1,.26-.4,2.76,2.76,0,0,1,.31-.37,3.73,3.73,0,0,1,.36-.32,3,3,0,0,1,.86-.43,3.28,3.28,0,0,1,.94-.13,4.81,4.81,0,0,1,.93.1,3.94,3.94,0,0,0-1.84.12,2.85,2.85,0,0,0-.8.45c-.12.1-.23.21-.34.32a3.44,3.44,0,0,0-.28.36c-.08.13-.16.26-.23.4a2.65,2.65,0,0,0-.18.42,3.66,3.66,0,0,0-.15.43,1.89,1.89,0,0,0,0,.23l0,.11v.12a1.24,1.24,0,0,1-.24.47,2,2,0,0,1-.4.32l-.41.24-.37.25a3.14,3.14,0,0,0-.6.66,1.27,1.27,0,0,0-.13.19l-.06.09a.75.75,0,0,1-.07.12,1.22,1.22,0,0,1-.39.36,3.55,3.55,0,0,1-.92.37,3.72,3.72,0,0,0-.81.34,1.5,1.5,0,0,0-.29.27A1.22,1.22,0,0,0,90,45l0,.1a.44.44,0,0,1,0,.1v.2a1,1,0,0,0,0,.38,1.87,1.87,0,0,0,1.25,1l.37.12-.26.28a1.29,1.29,0,0,0-.26.38.41.41,0,0,0,0,.18.47.47,0,0,0,0,.17.69.69,0,0,0,.24.31.91.91,0,0,0,.19.13l.1.06,0,0,0,0,.18.07v.19a.68.68,0,0,0,0,.3.37.37,0,0,0,.17.18.79.79,0,0,0,.32.07h.27l.08,0,.3.39s0-.05,0,0v.06l0,.07-.06.14-.13.27a3.34,3.34,0,0,1-.36.48A2.73,2.73,0,0,1,92,51l-.13.09-.12.07-.23.14-.94.56c-.31.18-.63.35-.95.52l-.48.26-.49.24-1,.48c-.66.29-1.32.6-2,.86l-.5.2L85,54.5l-.26.09-1,.38-1,.35-.51.18-.52.16c-1.38.44-2.78.81-4.19,1.14l-1.06.25-1.06.22c-.71.14-1.42.27-2.14.39l-.53.08-.28,0a2.4,2.4,0,0,1-.28,0,3.14,3.14,0,0,1-1.14-.11,3.59,3.59,0,0,1-1-.48,8.08,8.08,0,0,1-.88-.66c-.56-.47-1.09-1-1.61-1.45l-1.58-1.48Q64.24,52.18,62.57,50.78ZM73.45,123.2c-.21.16-4.93-12.61-6.12-15-.73-1.45-2-3.84-2-5.08,0-.05,2-13.63,1.44-17.3-.45-2.94-1.94-16.31-2.27-19.32-.09-.83,1.1-.56,1.31-.6a2,2,0,0,1,1.83,1.19s1.48,3.38,1.48,3.39c3.26,8.56,2,13.61.25,36.26C68.8,109.63,73.58,123.1,73.45,123.2Zm30.69-68.79c-.34-.21-.68-.41-1-.59a22.82,22.82,0,0,0-2.13-1l-.55-.21-.13,0-.14,0-.26,0a1.68,1.68,0,0,0-1,.3l-.1.08-.12.09-.23.19-.46.38-.93.73-1.9,1.42c-.63.47-1.28.93-1.91,1.39l-1,.69-1,.68q-1,.69-2,1.35c-.32.23-.65.45-1,.67l-1,.66-1,.65-1,.65-1,.63-.51.32-.5.31-.5.31-.51.31-.51.3-.51.31q-2,1.2-4.16,2.28c-.71.36-1.42.7-2.15,1-.36.16-.73.31-1.1.45l-.56.2-.29.09-.3.07h0a3.12,3.12,0,0,1-.51.07,2.9,2.9,0,0,1-.51,0,4.36,4.36,0,0,1-1-.17A5.21,5.21,0,0,1,69,68a6.3,6.3,0,0,0,.87.5c.15.06.3.13.46.18a4.27,4.27,0,0,0,.48.13,4,4,0,0,0,1,.11l.49,0a3.26,3.26,0,0,0,.47-.09h0l.27-.08.28-.1.54-.22,1.07-.49Q76,67.41,77,66.84c.69-.37,1.37-.76,2-1.16l1-.6,1-.61.5-.31.5-.31.5-.31.5-.32,1-.64,1-.64c1.32-.86,2.62-1.74,3.93-2.62s2.6-1.78,3.89-2.68l1.94-1.36c.64-.45,1.29-.9,1.92-1.37.32-.23.64-.46.95-.7l.47-.35.24-.18.11-.09a1.1,1.1,0,0,1,.14-.09,2,2,0,0,1,1.23-.32,1.7,1.7,0,0,1,.31.06l.16,0,.14.06.55.23,1.07.53c.35.19.69.38,1,.59a13,13,0,0,1,1.92,1.39A8.83,8.83,0,0,0,104.14,54.41Z"/>
    </g>
  </g>
</svg>