<svg xmlns="http://www.w3.org/2000/svg" viewBox="0 0 881.57 201.44">
  <defs>
    <style>.cls-1{fill:#000;}.cls-2{fill:none;stroke:#fff;stroke-miterlimit:10;}</style>
  </defs>
  <g id="full-logo" data-name="Layer 2">
    <g id="Layer_1-2" data-name="Layer 1">
      <path d="M169.25,77.57a81.21,81.21,0,0,0-23,11.53c-32.47,23.27-36.5,56.61-87.86,56.61-20.37,0-26.66-5-26.66-10s6.39-10.18,10.92-10.18A2.2,2.2,0,0,1,45,128c0,2.7-3,7-10.23,8.2a1.37,1.37,0,0,0-.89,1.25c0,5.4,14,6.54,16.73,6.54,37.78,0,71-43.11,103.31-61.08C126.25,95.74,112.18,119.64,71,119.64c-29.71,0-43.29-14.13-43.29-30.54,0-22.75,26.08-49.86,71.33-49.86,13.29,0,21.26,5.5,24.41,13.08,4.32-.41,8.75-.72,13.48-.72,23.31,0,34,11,35.42,23.27a56,56,0,0,1,13.57-1.67,46.49,46.49,0,0,1,11.32,1.35l-.69,2.6a36,36,0,0,0-12-2,47,47,0,0,0-12,1.56v.93c0,14.13-11.71,29.19-30.4,31.68-1.18,7.48-12.3,21.4-12.3,29.19,0,3.33,1.28,4.57,3.15,4.57,2.36,0,5.51-1.87,8-3.43,4.72-3,10.82-7.58,17.71-12.36l.39.83c-6.79,4.68-12.79,9.25-17.81,12.47-4.23,2.7-8.26,4.15-11.51,4.15-4.52,0-7.48-2.8-7.48-8.93,0-6.44,12.3-19.32,15.94-26.18h-1.57c-3.44,0-5.12-1.45-5.12-3,0-2.08,2.56-3.32,5.22-3.32s5.51,1.35,5.51,4.88C157.14,105.41,168.46,91.07,169.25,77.57ZM123.69,53.15a20.91,20.91,0,0,1,1.38,7.48c0,16.62-17,36.78-47.33,36.78-8.46,0-12.39-3.64-12.39-8.83,0-11.53,20-31.06,55.09-35.84-1.18-7.17-7.67-12.36-22.23-12.36-43.49,0-69.47,26.49-69.47,48.72,0,15.89,13.29,29.6,43.2,29.6,42.7,0,56.47-28.25,91-40.93,2.16-.83,4.23-1.45,6.39-2.07-.29-12.26-9.64-23.27-33.35-23.27A117.13,117.13,0,0,0,123.69,53.15ZM76.07,96c20.56,0,44.57-24.41,44.57-40.82,0-.52-.1-1.14-.1-1.66-34.14,4.77-54,24.62-54,35.42C66.53,93.15,69.58,96,76.07,96Zm59.62,8.42c-1.57,0-3.05.72-3.05,2.07,0,1.15,1.38,2.29,4.33,2.29h1.58a4.87,4.87,0,0,0,.59-2.08C139.14,105.2,137.37,104.37,135.69,104.37Z"/>
      <path d="M9.55,74.78a1.39,1.39,0,0,1,.16-.38c0-.09.16-.11.31-.06a.65.65,0,0,1,.46.4,1.87,1.87,0,0,1,.11.59,5,5,0,0,0,0,.58.33.33,0,0,0,.21.32,1.25,1.25,0,0,0,.36,0h.4a1.59,1.59,0,0,0,.34-.06c.09,0,.15-.07.16-.11a1.58,1.58,0,0,1,.36-.14,2.62,2.62,0,0,1,.33-.09.69.69,0,0,1,.32,0h.32l.64,0,.81-.07a5.82,5.82,0,0,0,.8-.13,3.79,3.79,0,0,0,.64-.19c.17-.07.28-.15.3-.24s0-.17-.11-.3a2.89,2.89,0,0,0-.35-.35l-.54-.42q-.15-.19-.57-.63c-.28-.29-.59-.58-.93-.88s-.66-.58-1-.84a2.8,2.8,0,0,0-.77-.47.29.29,0,0,0-.31,0l-.22.19a.73.73,0,0,1-.21.22.37.37,0,0,1-.33,0,.42.42,0,0,1-.27-.21.69.69,0,0,1-.08-.32A3,3,0,0,1,11,71c0-.09,0-.16.06-.2l.28-.92a.53.53,0,0,1,.06-.1.35.35,0,0,1,.07-.09.27.27,0,0,1,.07-.08c.08-.28.14-.49.17-.63a1.74,1.74,0,0,0,.05-.34,2.28,2.28,0,0,0,0-.26,3.81,3.81,0,0,1,.1-.42l.18-.35.06-.4a.68.68,0,0,1,.26-.36.58.58,0,0,1,.51,0,.62.62,0,0,1,.31.18.42.42,0,0,1,.12.24,1.45,1.45,0,0,1,0,.3l0,.33c0,.31-.07.63-.1,1a1,1,0,0,0,.31.81l.39.23a1.93,1.93,0,0,0,.16.21l.28.33a3.63,3.63,0,0,0,.34.34A2.14,2.14,0,0,0,15,71a1,1,0,0,1,.17.2c.06.06.1.12.15.18l.1.17L16,72a2.67,2.67,0,0,1,.51.61c.66.55,1.26,1,1.83,1.47l.72.57.69.51c.21.15.4.27.57.37a2,2,0,0,0,.39.2l.54.17a1.52,1.52,0,0,1,.46.22c.12.08.14.26.06.53a2.45,2.45,0,0,1-.12.31.72.72,0,0,1-.23.27.46.46,0,0,1-.36.19.57.57,0,0,0-.31.06.72.72,0,0,1-.47,0l-.4,0a.86.86,0,0,0-.35,0,1,1,0,0,0-.39,0,1.11,1.11,0,0,1-.37,0,6.21,6.21,0,0,1-.8.12l-.76,0-.81.07a5.4,5.4,0,0,0-.93.2l-.41,0-.34,0h-.28l-.53,0a2.16,2.16,0,0,0-.38.08l-.51.17-.65.26a6.1,6.1,0,0,0-1.46-.09,1.65,1.65,0,0,0-1.09.4c-.53.53-.92.76-1.16.68s-.25-.27-.14-.63l.12-.36a2.89,2.89,0,0,0,.1-.68c0-.15,0-.3,0-.45L9,76.63l.24-.45.07-.35c0-.1,0-.19,0-.27a1.65,1.65,0,0,1,0-.21Z"/>
      <path d="M14.52,61.41a1.11,1.11,0,0,1,.11-.17l.18-.25c.06-.09.12-.18.17-.27a1.44,1.44,0,0,0,.11-.2.44.44,0,0,1,.13-.09,1,1,0,0,1,.26-.09,1.06,1.06,0,0,1,.31,0,.94.94,0,0,1,.3.05c.05,0,.06.12,0,.28s-.07.34-.11.54a3.13,3.13,0,0,0-.09.55c0,.17,0,.27.08.3l1.28.57.31,0,.25,0a.48.48,0,0,1,.18,0l.77.58a.9.9,0,0,0,.22.06l.34.07.34.06.22.07,1,.24a2.83,2.83,0,0,1,.68.4,1.83,1.83,0,0,0,.42.28l.51.23a.3.3,0,0,1,.15.19q0,.13.42.3a.3.3,0,0,0,.2,0,1.05,1.05,0,0,0,.24-.06.7.7,0,0,0,.21-.11q.11-.06.12-.12l.29-.35a.88.88,0,0,1,1-.17c.14.06.22.22.22.46a1.52,1.52,0,0,1-.14.67l-.13.31-.16.35-.15.34-.51.59a1.3,1.3,0,0,0-.08.34c0,.15,0,.3-.06.47s0,.32-.05.46a1,1,0,0,1-.05.26.65.65,0,0,1-.25.25c-.14.09-.25.12-.34.08a.48.48,0,0,1-.26-.37c0-.18-.08-.38-.11-.59a2.38,2.38,0,0,0-.15-.57.51.51,0,0,0-.4-.32c-.23,0-.37,0-.44-.11a.64.64,0,0,0-.24-.2l-.49-.22-1.22-.54-2.65-1.18-.58,0-.35-.26-.25-.2a.71.71,0,0,0-.19-.13,2.2,2.2,0,0,0-.6-.2,1.15,1.15,0,0,0-.41,0,.5.5,0,0,0-.2.15,1.1,1.1,0,0,0-.14.21c0,.08-.09.16-.14.24a1.12,1.12,0,0,1-.18.2.58.58,0,0,1-.32.08,1.54,1.54,0,0,1-.54-.16l-.14-.08-.09-.1a.1.1,0,0,1,0-.12l.16-.35.29-.66a.79.79,0,0,1,.1-.16,1.15,1.15,0,0,1,.14-.17l.16-.17a1.73,1.73,0,0,0,.1-.28,2,2,0,0,0,.09-.33c0-.14.06-.27.1-.42l.08-.2a.31.31,0,0,0,0-.22Z"/>
      <path d="M22.07,46.93s.08,0,.19,0l.37.06.39.12.27.11,1.23.74.25.16a4.57,4.57,0,0,1,.36.29,1.23,1.23,0,0,1,.26.35.37.37,0,0,1,0,.37.61.61,0,0,1-.38.34.82.82,0,0,1-.44,0l-.48-.16a2,2,0,0,0-.5-.14.92.92,0,0,0-.49.07,1.1,1.1,0,0,0-.45.46l-.56.95a.75.75,0,0,0-.1.2.9.9,0,0,0-.06.22l-.06.24a.85.85,0,0,0-.1.7,1,1,0,0,0,.46.54L23,53l.25.16a.34.34,0,0,0,.27,0l.61.48L27,55.36a3.33,3.33,0,0,0,.59.28,1.53,1.53,0,0,0,.44.07,1.21,1.21,0,0,0,.34-.05l.3-.08c.15-.14.3-.26.43-.37a1.45,1.45,0,0,0,.38-.45,1.8,1.8,0,0,1,.78-.58.87.87,0,0,1,.64,0,.73.73,0,0,1,.36.47,1.19,1.19,0,0,1-.11.78,1.18,1.18,0,0,1-.23.27l-.26.23c-.07.09-.14.21-.22.33a4,4,0,0,1-.24.38,1.91,1.91,0,0,1-.27.35,1,1,0,0,1-.31.25l-.06.1-.91,1.53a2.1,2.1,0,0,0-.16.48,2.79,2.79,0,0,1-.33.77c-.11.18-.22.34-.32.48l-.25.37-.17.26a.17.17,0,0,0,0,.18c0,.07,0,.19-.14.39l-.11,0a.21.21,0,0,1-.11,0l-.14-.06a2.33,2.33,0,0,1-.27-.4L26.38,61a2.5,2.5,0,0,1-.16-.43c0-.2.07-.38.11-.54s.05-.28.08-.41a.89.89,0,0,1,.08-.24l.3-.94a.24.24,0,0,0-.05-.29,2.09,2.09,0,0,0-.29-.31,3.43,3.43,0,0,0-.51-.35l-1.82-1.09a1.4,1.4,0,0,1-.2-.21L23.83,56l-2.2-1.31a1.57,1.57,0,0,1-.26-.19,1.88,1.88,0,0,0-.24-.18.61.61,0,0,0-.19,0,1.34,1.34,0,0,0-.28,0,1.32,1.32,0,0,0-.3.09.52.52,0,0,0-.22.19L19,56.49a1.18,1.18,0,0,0-.2.64.91.91,0,0,0,.14.49,1.65,1.65,0,0,0,.34.41,4.1,4.1,0,0,1,.35.39,1,1,0,0,1,.2.41.69.69,0,0,1-.12.49.46.46,0,0,1-.42.25,1,1,0,0,1-.48-.14l-.21-.15-.27-.22-.26-.22a1,1,0,0,0-.18-.14l-.7-.7L17,57.83c-.1-.09-.22-.19-.33-.31a2.65,2.65,0,0,1-.27-.37.26.26,0,0,1,0-.29.65.65,0,0,1,.29-.3l.36-.17a1.15,1.15,0,0,0,.27-.14.94.94,0,0,0,.23-.27,1.9,1.9,0,0,0,.14-.33,2.08,2.08,0,0,1,.14-.34L18,55a.31.31,0,0,0,.11-.09l.12-.14a.83.83,0,0,0,.13-.18L19.89,52l.19-.52.38-.43c.14-.24.27-.49.4-.77s.26-.52.39-.75l.5-.83a1.89,1.89,0,0,0,.24-.6,3.69,3.69,0,0,0,.07-.53,2.66,2.66,0,0,0,0-.4A.34.34,0,0,1,22.07,46.93Z"/>
      <path d="M31.79,35s.1,0,.2,0a3,3,0,0,1,.35.13l.37.18.24.15,1.1.93.22.2c.11.11.21.22.31.34a1.16,1.16,0,0,1,.2.4.36.36,0,0,1-.07.36.65.65,0,0,1-.43.27.83.83,0,0,1-.43-.07,4.92,4.92,0,0,1-.45-.24,2,2,0,0,0-.47-.22.91.91,0,0,0-.49,0,1.09,1.09,0,0,0-.53.39l-.71.84-.12.18a.75.75,0,0,0-.1.2l-.09.24a.81.81,0,0,0-.22.67,1,1,0,0,0,.37.61l.73.62.21.19a.33.33,0,0,0,.27.08l.53.58,2.47,2.09a2.46,2.46,0,0,0,.54.38,1.66,1.66,0,0,0,.41.14,1.39,1.39,0,0,0,.35,0l.3,0a5.68,5.68,0,0,1,.5-.29,1.93,1.93,0,0,0,.44-.39,1.79,1.79,0,0,1,.86-.45.82.82,0,0,1,.64.12.73.73,0,0,1,.27.52,1.23,1.23,0,0,1-.23.75,1.49,1.49,0,0,1-.27.23l-.29.18a3.84,3.84,0,0,0-.27.29l-.3.34a3,3,0,0,1-.33.3,1.08,1.08,0,0,1-.34.2l-.08.09L36.3,47.86a2.23,2.23,0,0,0-.23.44,3.49,3.49,0,0,1-.45.71l-.39.43-.32.32L34.7,50a.22.22,0,0,0,0,.18c0,.06,0,.18-.19.35a.23.23,0,0,1-.12,0h-.1a.38.38,0,0,1-.13-.08,3,3,0,0,1-.21-.44,4.13,4.13,0,0,1-.14-.42,1.8,1.8,0,0,1-.09-.45l.2-.52c0-.13.09-.26.14-.39a1.39,1.39,0,0,1,.12-.23l.45-.87a.25.25,0,0,0,0-.29,1.88,1.88,0,0,0-.24-.36,4.56,4.56,0,0,0-.44-.43l-1.62-1.37a.68.68,0,0,1-.16-.24l-.07-.16-2-1.66a1.2,1.2,0,0,1-.22-.23,2.08,2.08,0,0,0-.21-.21.45.45,0,0,0-.18-.07.88.88,0,0,0-.29,0,1.54,1.54,0,0,0-.3,0,.48.48,0,0,0-.25.15L27.22,44a1.17,1.17,0,0,0-.31.59,1,1,0,0,0,.07.51,1.75,1.75,0,0,0,.26.46,3.7,3.7,0,0,1,.29.44,1.17,1.17,0,0,1,.13.44.71.71,0,0,1-.2.46A.46.46,0,0,1,27,47a.94.94,0,0,1-.46-.22l-.18-.18a2.85,2.85,0,0,1-.23-.26l-.22-.26a1.67,1.67,0,0,0-.15-.17l-.58-.8-.19-.2-.28-.37a2.21,2.21,0,0,1-.21-.4.28.28,0,0,1,0-.3.77.77,0,0,1,.34-.25l.38-.11a1,1,0,0,0,.29-.08,1,1,0,0,0,.27-.23,2.64,2.64,0,0,0,.19-.31,1.67,1.67,0,0,1,.2-.31l.25-.3a.26.26,0,0,0,.13-.08l.14-.11.16-.16,1.95-2.31.27-.47.44-.36c.18-.22.35-.45.52-.7a6.38,6.38,0,0,1,.52-.68l.62-.74a1.87,1.87,0,0,0,.33-.55,4.2,4.2,0,0,0,.16-.51,3.77,3.77,0,0,0,.06-.39A.42.42,0,0,1,31.79,35Z"/>
      <path d="M37.56,30.58a1.1,1.1,0,0,1,.18-.14l.22-.15c.08-.06.17-.14.29-.22s.25-.2.42-.35l.38-.56a2,2,0,0,0,.18-.26,1.43,1.43,0,0,1,.14-.2l.12-.14a1,1,0,0,1,.33-.16,2.21,2.21,0,0,1,.42-.08,1.69,1.69,0,0,1,.55.35,1.68,1.68,0,0,0,.53.35,1.12,1.12,0,0,1,.25.08l.34.14a3.07,3.07,0,0,0,.45.2c.16.19.12.39-.12.61a.69.69,0,0,1-.4.1,6.38,6.38,0,0,0-.74.1,5.22,5.22,0,0,0-1,.28,3.68,3.68,0,0,0-1.06.69l-.21.32a1.73,1.73,0,0,1,0,.38.35.35,0,0,0,.05.22l.12.14c0,.1.1.19.14.28l.12.21c0,.07.08.12.1.15l1,1.08a1.32,1.32,0,0,0,.47.34.37.37,0,0,0,.46-.05.88.88,0,0,0,.14-.14l.18-.25.23-.31.3-.27a.53.53,0,0,0,.17-.25c0-.1,0-.2.07-.29l.06-.28a.43.43,0,0,1,.12-.22.28.28,0,0,1,.15,0,1,1,0,0,1,.24,0l.31,0,.88,1q.38.42,0,.75a.78.78,0,0,1-.34.19,2.23,2.23,0,0,1-.34,0,1.34,1.34,0,0,1-.4.11.73.73,0,0,0-.34.17l-.24.22-.3.26c-.24.22-.37.41-.35.56a1.15,1.15,0,0,0,.37.63l.33.38A3,3,0,0,1,43,37a3.82,3.82,0,0,0,.4.34.87.87,0,0,0,.42.18.66.66,0,0,0,.48-.12l.84-.74a2.52,2.52,0,0,0,.38-.49,5,5,0,0,0,.3-.66l.33-.58a1.52,1.52,0,0,1,.33-.43h.38a.14.14,0,0,1,.12,0,.34.34,0,0,1,.1.26,1.37,1.37,0,0,1,0,.34,1.73,1.73,0,0,0,.06.66l.16.52a1.3,1.3,0,0,1,0,.47.67.67,0,0,1-.26.43l-.18.12-.21.08a1.74,1.74,0,0,0-.25.11,2.42,2.42,0,0,0-.3.23l-1.41,1.33-.4.58-.79.7-.45.4-.22.36-.42.42a.34.34,0,0,1-.22.09h-.29a1.17,1.17,0,0,1-.27,0,.38.38,0,0,1-.17-.08c-.22-.25-.14-.53.22-.86a1.87,1.87,0,0,0,.15-.32,5.3,5.3,0,0,1,.24-.48.91.91,0,0,0,.25-.58,1.47,1.47,0,0,0-.44-.72.41.41,0,0,1-.09-.21c0-.08-.08-.12-.2-.12a1.07,1.07,0,0,0-.16-.14L41.27,38,41,37.82l-.25-.29L40.3,37,40,36.62l-.81-1.15-.23-.25a.29.29,0,0,1-.08-.14.34.34,0,0,0-.08-.14l-.71-.79-.37-.42-.4-.45A.32.32,0,0,0,37,33.2a.75.75,0,0,0-.3.11l-.42.38a.58.58,0,0,1-.62.12,1.45,1.45,0,0,1-.62-.44.27.27,0,0,1-.07-.23.34.34,0,0,1,.11-.23l.49-.44.3-.27a3.67,3.67,0,0,0,.26-.27c.11-.12.26-.27.45-.44Z"/>
      <path d="M49.06,21.24a1.13,1.13,0,0,1,.8-.16l.84.12a1.39,1.39,0,0,0,.82.32l.36.11a1,1,0,0,1,.35.23s.12,0,.23.05a3.1,3.1,0,0,1,.34.26c.12.1.22.2.32.3a1.25,1.25,0,0,1,.18.19,2.32,2.32,0,0,1,.26.57,5.49,5.49,0,0,1,.17.7,6.53,6.53,0,0,1,.1.72c0,.24,0,.43,0,.59a.61.61,0,0,1,0,.3l-.12.26a.89.89,0,0,0-.07.28.49.49,0,0,0,.1.31,2.15,2.15,0,0,0,.43.42,6.66,6.66,0,0,0,.65.43,4.94,4.94,0,0,0,.66.32,1,1,0,0,0,.45.11,2,2,0,0,1,.58.09l.6.18a3.23,3.23,0,0,0,.61.1,1.25,1.25,0,0,0,.6-.1l.4-.09a1.12,1.12,0,0,1,.48,0,.59.59,0,0,1,.2.06,1.16,1.16,0,0,1,.09.19.47.47,0,0,1-.06.43,2.07,2.07,0,0,1-.34.39,3.07,3.07,0,0,1-.4.29.69.69,0,0,1-.23.12.57.57,0,0,0-.38.11,1.3,1.3,0,0,1-.33.17,5.11,5.11,0,0,1-.91,0,2.78,2.78,0,0,0-.65,0,1.6,1.6,0,0,1-.37,0l-.51-.07-.59-.12-.54-.11A4.69,4.69,0,0,1,53.5,29q-.3-.13-.54-.27l-.47-.24a1.43,1.43,0,0,0-.4-.13,1.62,1.62,0,0,1-.51,0,.53.53,0,0,0-.41.11.47.47,0,0,0-.23.33,1.42,1.42,0,0,0,0,.41,1.88,1.88,0,0,0,.16.39,1.91,1.91,0,0,0,.19.31l.7.66.23.34a.87.87,0,0,0,.66.42,3.4,3.4,0,0,0,.78,0l.72-.12a.49.49,0,0,1,.51.2.3.3,0,0,1,0,.28.45.45,0,0,1-.16.23l-.6.4-1,.49L52.8,33l-.78.52-.28.19-.65.44-.34.19c-.19.1-.41.21-.64.31a3,3,0,0,1-.67.2.4.4,0,0,1-.44-.12.18.18,0,0,1,0-.13,1.21,1.21,0,0,1,.05-.18,1.36,1.36,0,0,1,.09-.23l.16-.08.22-.1.27-.14.34-.22a1,1,0,0,0,.42-.57.61.61,0,0,0-.05-.55l-1.17-1.74L47.5,28.1l-.67-1.29a2.88,2.88,0,0,1-.33-.35,4.77,4.77,0,0,0-.35-.4,1.71,1.71,0,0,0-.4-.28.59.59,0,0,0-.47,0l-.65.43a2.42,2.42,0,0,1-.39.21,1.45,1.45,0,0,1-.42.12,1,1,0,0,1-.41-.06.94.94,0,0,1-.37-.33.18.18,0,0,1,0-.16,2,2,0,0,1,.08-.22,1.28,1.28,0,0,1,.16-.27l2.71-2,1.71-1.15.17-.14a1.67,1.67,0,0,0,.23-.23l.31-.29ZM48.63,24l-.13.14-.14.18a.66.66,0,0,0-.15.25.36.36,0,0,0-.15.26.58.58,0,0,0,.12.41l.19.28.44.65.19.28a.62.62,0,0,1,.09.29.61.61,0,0,0,.07.25h.09l.09,0a.48.48,0,0,1,.09.1.46.46,0,0,0,.24.29,1.24,1.24,0,0,0,.4.09,1.65,1.65,0,0,0,.44,0,1.3,1.3,0,0,0,.33-.14c.07-.11.14-.22.2-.33l.18-.26a.41.41,0,0,1,.16-.18l.42-.09A.57.57,0,0,0,52,26a1.51,1.51,0,0,0,0-.56,3.69,3.69,0,0,0-.15-.53,2,2,0,0,1-.1-.33l-.41-.4a1.16,1.16,0,0,0-.18-.2.56.56,0,0,0-.32-.14,2.53,2.53,0,0,0-.22-.28.55.55,0,0,0-.36-.2,1.16,1.16,0,0,1-.28.12l-.49.16-.53.18A2.29,2.29,0,0,0,48.63,24Z"/>
      <path d="M56.67,17l.2-.09a.85.85,0,0,1,.42-.06,1.24,1.24,0,0,0,.53-.12l.43-.4L59,16l.35-.16a.27.27,0,0,1,.35.05.37.37,0,0,1,.12.17,1,1,0,0,1,.14.58.51.51,0,0,1-.19.33,1.46,1.46,0,0,1-.33.22,1.2,1.2,0,0,0-.33.25.68.68,0,0,0-.15.41,1.64,1.64,0,0,0,.2.72,2.12,2.12,0,0,0,.28.42,2.12,2.12,0,0,1,.28.42l.24.51a1,1,0,0,0,.53.52.84.84,0,0,0,.74,0,.69.69,0,0,0,.23-.17.26.26,0,0,0,.08-.11l.71-.19.54-.25.31-.15.3-.11a.67.67,0,0,1,.5,0,.39.39,0,0,0,.14-.1l.09-.08a.62.62,0,0,0,.1-.16.22.22,0,0,1,.09-.1l.7-.33a1,1,0,0,0,.1-.32.5.5,0,0,0,0-.32l-.12-.25-.54-1.17-.61-.81-.15-.31a.27.27,0,0,0-.24-.19h-.33a1.37,1.37,0,0,1-.35,0,.59.59,0,0,1-.27-.82.79.79,0,0,1,.4-.42L63.4,14l.52-.12a3.38,3.38,0,0,0,.56-.2l.2-.09.51-.24a2.05,2.05,0,0,1,.44-.15,1.67,1.67,0,0,1,.49,0,1.16,1.16,0,0,1,.45.12.77.77,0,0,1,.35.38v.24l-.38.29-.49.22c-.08,0-.15.17-.2.39a.71.71,0,0,0,0,.5l.56,1.22.33.71a3.1,3.1,0,0,0,.23.38,3.21,3.21,0,0,1,.24.39.37.37,0,0,1,0,.19,1.7,1.7,0,0,0,0,.22,1.61,1.61,0,0,0,.07.39l.24.51.23.51a3.45,3.45,0,0,0,.29.5,2.83,2.83,0,0,1,.27.47,1.15,1.15,0,0,1,.1.33,1.87,1.87,0,0,0,.14.42c0,.09.06.16.08.21a.9.9,0,0,0,0,.16.55.55,0,0,0,.08.15.9.9,0,0,0,.14.19.62.62,0,0,0,.47.19,5.25,5.25,0,0,0,.68,0l.63,0q.28,0,.36.15a.29.29,0,0,1,0,.24,2.44,2.44,0,0,1-.1.24,1.88,1.88,0,0,1-.19.26l-1,.46-.51.24-.51.23-.94.2-.42.43-.17.07a.86.86,0,0,1-.23.06.39.39,0,0,1-.24,0,.27.27,0,0,1-.18-.18.43.43,0,0,1,0-.41l.26-.47a1.94,1.94,0,0,0,.21-.6,1.22,1.22,0,0,0-.13-.76L66.69,22l-.23-.51L66.21,21,66,20.44a.76.76,0,0,0-.25-.27.31.31,0,0,0-.33-.08l-.51.24-.65.3a1.22,1.22,0,0,1-.41.07,1,1,0,0,0-.39.06l-.36.17-.51.23-.49.23-.37.17a1.11,1.11,0,0,0-.54.45.68.68,0,0,0,0,.65l.54,1.16c0,.24,0,.38,0,.43a.6.6,0,0,0,.07.18.57.57,0,0,0,.2.25,1,1,0,0,1,.24.34.41.41,0,0,0,.27.41,2,2,0,0,0,.58.13l.63.08a.44.44,0,0,1,.39.23.19.19,0,0,1,0,.16.84.84,0,0,1-.15.18,1.54,1.54,0,0,1-.19.17.48.48,0,0,1-.15.1,1.05,1.05,0,0,1-.26.07l-.4.05a4,4,0,0,0-.46.08,2.84,2.84,0,0,0-.44.15l-.13.17a1,1,0,0,1-.15.14.6.6,0,0,1-.15.09l-.2.09-.51.24-.3.14a1.17,1.17,0,0,1-.56.1.5.5,0,0,1-.45-.32,2.07,2.07,0,0,1-.15-.5.33.33,0,0,1,.22-.39l.31-.25a.58.58,0,0,0,.23-.35.67.67,0,0,0,0-.4l-.33-.7-.23-.51a2.65,2.65,0,0,0-.33-.45,2.65,2.65,0,0,1-.44-.68l-.39-.85a1.22,1.22,0,0,1-.07-.21c0-.11,0-.22-.07-.34a3.09,3.09,0,0,0-.07-.35l-.06-.21-.6-.76a1.24,1.24,0,0,1-.08-.42c0-.1,0-.21,0-.32L57,18.57c-.05-.08-.14-.12-.31-.1a2.78,2.78,0,0,0-.52.1l-.52.13c-.15,0-.23,0-.25,0a1,1,0,0,1-.07-.69.62.62,0,0,1,.33-.46l.88-.48Z"/>
      <path d="M73.44,10.5a.87.87,0,0,1,.22-.05,1.47,1.47,0,0,0,.26,0l.35-.07a5.49,5.49,0,0,0,.54-.14l.58-.34.27-.16.21-.13L76,9.49a.83.83,0,0,1,.36,0,2.58,2.58,0,0,1,.42.11,1.8,1.8,0,0,1,.35.54,1.71,1.71,0,0,0,.33.55,1.31,1.31,0,0,1,.2.18l.25.27a3.57,3.57,0,0,0,.31.37c.08.24-.05.41-.37.5a.63.63,0,0,1-.4-.08,5.6,5.6,0,0,0-.71-.22,4.62,4.62,0,0,0-1-.14,3.36,3.36,0,0,0-1.24.17l-.34.2a1.69,1.69,0,0,1-.14.35.36.36,0,0,0,0,.23l0,.17c0,.11,0,.21,0,.31a1,1,0,0,0,0,.25,1.64,1.64,0,0,0,0,.18l.41,1.38a1.41,1.41,0,0,0,.28.51.4.4,0,0,0,.44.15l.19-.08.27-.14.34-.19.38-.11a.63.63,0,0,0,.26-.16l.19-.24.17-.22a.37.37,0,0,1,.2-.15.19.19,0,0,1,.15,0l.21.13.26.17.38,1.26c.1.36,0,.59-.32.68a.88.88,0,0,1-.39,0,1.33,1.33,0,0,1-.32-.11,2.23,2.23,0,0,1-.41-.06.62.62,0,0,0-.38,0l-.31.09-.38.11c-.32.1-.51.22-.56.36a1.17,1.17,0,0,0,.07.73l.14.48q.14.26.24.51a3.63,3.63,0,0,0,.21.48,1,1,0,0,0,.3.34.75.75,0,0,0,.49.09l1.07-.32a1.83,1.83,0,0,0,.56-.28,4.65,4.65,0,0,0,.56-.47l.54-.39a1.4,1.4,0,0,1,.47-.24l.2.08.15.08a.17.17,0,0,1,.09.1.39.39,0,0,1,0,.28,2.19,2.19,0,0,1-.16.3,1.72,1.72,0,0,0-.24.62c0,.2-.05.38-.07.55a1.52,1.52,0,0,1-.15.44.74.74,0,0,1-.42.28l-.22,0h-.22a.84.84,0,0,0-.28,0,2.18,2.18,0,0,0-.36.08l-1.84.61-.61.35-1,.3-.58.17-.34.23-.57.21a.37.37,0,0,1-.23,0,1.31,1.31,0,0,1-.27-.12,1.25,1.25,0,0,1-.22-.16c-.07-.06-.11-.1-.12-.14q-.15-.48.57-.69l.26-.23a4.14,4.14,0,0,1,.43-.34.93.93,0,0,0,.47-.41,1.46,1.46,0,0,0-.1-.84.37.37,0,0,1,0-.23c0-.08,0-.15-.14-.2a.52.52,0,0,0-.08-.19,1.18,1.18,0,0,0-.11-.19l-.15-.22-.11-.37-.21-.69L73.06,17l-.25-1.38-.1-.33a.31.31,0,0,1,0-.16.34.34,0,0,0,0-.16l-.3-1-.16-.53-.17-.58a.35.35,0,0,0-.28-.22.74.74,0,0,0-.32,0l-.53.16a.59.59,0,0,1-.62-.15,1.53,1.53,0,0,1-.38-.66.27.27,0,0,1,0-.24.29.29,0,0,1,.19-.16l.63-.19.38-.12a2.36,2.36,0,0,0,.35-.13,4.29,4.29,0,0,1,.59-.21Z"/>
      <path d="M92.42,6.05s.09,0,.15.13a3.27,3.27,0,0,1,.18.33c.06.13.11.25.16.38a1.6,1.6,0,0,1,.08.27l.22,1.43a2.52,2.52,0,0,0,0,.29,3.49,3.49,0,0,1,0,.46,1.18,1.18,0,0,1-.11.43.36.36,0,0,1-.29.22.68.68,0,0,1-.51-.07,1,1,0,0,1-.27-.34,3.41,3.41,0,0,1-.18-.48,2.34,2.34,0,0,0-.22-.48,1,1,0,0,0-.36-.33,1.18,1.18,0,0,0-.65,0l-1.08.16-.22,0a1.36,1.36,0,0,0-.21.1l-.22.11a.78.78,0,0,0-.6.36,1,1,0,0,0-.13.7l.14.95a1.59,1.59,0,0,1,0,.29.36.36,0,0,0,.15.23V12L89,15.18a3.17,3.17,0,0,0,.16.63,1.43,1.43,0,0,0,.22.39,1.38,1.38,0,0,0,.26.23l.24.17.57.11a1.58,1.58,0,0,0,.58,0A1.71,1.71,0,0,1,92,17a.87.87,0,0,1,.4.51.67.67,0,0,1-.14.56,1.09,1.09,0,0,1-.67.41,1,1,0,0,1-.35,0,2.15,2.15,0,0,0-.34-.05,3,3,0,0,0-.4,0l-.45,0a3.31,3.31,0,0,1-.44,0,1.23,1.23,0,0,1-.39-.08h-.12l-1.76.27a2,2,0,0,0-.46.18,3.08,3.08,0,0,1-.81.23l-.58.07-.44,0-.31,0a.18.18,0,0,0-.15.1c0,.06-.16.11-.38.14a.18.18,0,0,1-.09-.07.2.2,0,0,1-.08-.08.84.84,0,0,1,0-.14,4.12,4.12,0,0,1,.13-.47c0-.13.11-.26.18-.41a2,2,0,0,1,.23-.4l.49-.25.36-.2a.72.72,0,0,1,.24-.09l.92-.36c.09,0,.15-.09.19-.22a2,2,0,0,0,0-.43,2.9,2.9,0,0,0,0-.62l-.31-2.09a.71.71,0,0,1,0-.29l.05-.17-.38-2.53a1.82,1.82,0,0,1,0-.33c0-.1,0-.2,0-.3A.46.46,0,0,0,86,9.86a1.2,1.2,0,0,0-.19-.21.9.9,0,0,0-.26-.17.4.4,0,0,0-.28-.05l-2.2.33a1.15,1.15,0,0,0-.61.24.94.94,0,0,0-.29.43,2.18,2.18,0,0,0-.11.52,2.84,2.84,0,0,1-.07.52,1.11,1.11,0,0,1-.19.41.74.74,0,0,1-.46.22.48.48,0,0,1-.46-.16,1.16,1.16,0,0,1-.2-.47c0-.05,0-.14,0-.25s0-.23,0-.35,0-.24,0-.35a.76.76,0,0,0,0-.22l.1-1a1.64,1.64,0,0,1,0-.27,1.87,1.87,0,0,1,0-.46,2.6,2.6,0,0,1,.1-.44q.07-.2.21-.21a.74.74,0,0,1,.43,0l.35.17a1.59,1.59,0,0,0,.27.12.86.86,0,0,0,.36,0,1.64,1.64,0,0,0,.35-.1,2.24,2.24,0,0,1,.35-.1L83.61,8a.37.37,0,0,0,.15,0h.4l3-.45.52-.18.57,0a7.19,7.19,0,0,0,.85-.18c.29-.08.57-.13.83-.18l1-.14a1.88,1.88,0,0,0,.62-.19,3.54,3.54,0,0,0,.45-.28,2.22,2.22,0,0,0,.31-.26A.39.39,0,0,1,92.42,6.05Z"/>
      <path d="M97,8.1a1.32,1.32,0,0,1,.1-.55,1.55,1.55,0,0,1,.3-.41,3.84,3.84,0,0,1,.43-.35l.5-.32a10.67,10.67,0,0,1,1-.56,2.46,2.46,0,0,1,1.11-.23h.74a1.09,1.09,0,0,1,.66.26,1.35,1.35,0,0,1,.4.48,1.71,1.71,0,0,1,.11.64,1.32,1.32,0,0,1-.07.42,1.34,1.34,0,0,1-.19.4,1.1,1.1,0,0,1-.32.29.88.88,0,0,1-.41.12.52.52,0,0,1-.35-.11,1.75,1.75,0,0,1-.24-.23,2.73,2.73,0,0,0-.25-.23.49.49,0,0,0-.33-.11,3.27,3.27,0,0,0-.53,0,1.9,1.9,0,0,0-.49.18,1.14,1.14,0,0,0-.35.3.66.66,0,0,0-.14.44.37.37,0,0,0,.16.34,1.13,1.13,0,0,0,.39.14l.49.08a1.29,1.29,0,0,1,.48.15l.94.5c.26.14.55.33.89.55l.32.17.27.13a1.74,1.74,0,0,1,.27.14,1.68,1.68,0,0,1,.32.22,5.15,5.15,0,0,1,.94.92,2,2,0,0,1,.35,1.23v.46a1.18,1.18,0,0,0,.08.43,1.17,1.17,0,0,1,.08.45,1.27,1.27,0,0,1-.16.68,3.37,3.37,0,0,0-.33.6.41.41,0,0,0,0,.27.22.22,0,0,1-.06.23.5.5,0,0,1-.26.34,1.08,1.08,0,0,0-.34.28,4,4,0,0,1-.33.29l-.32.23-.33.21c-.11.07-.25.14-.41.22a3.67,3.67,0,0,1-.68.32l-.7.19a.7.7,0,0,0-.24.13.36.36,0,0,1-.26.09,1,1,0,0,1-.28,0,.73.73,0,0,0-.22,0,1.8,1.8,0,0,0-.47.07,1.27,1.27,0,0,1-.43.06.39.39,0,0,1-.25-.07.65.65,0,0,0-.25-.11A1.19,1.19,0,0,0,98,18.4a1.81,1.81,0,0,1-.39,0,.57.57,0,0,1-.36-.13,1.87,1.87,0,0,0-.36-.27,2.31,2.31,0,0,0-.42-.17,1,1,0,0,1-.42-.26.4.4,0,0,1-.24-.31,1.42,1.42,0,0,0-.14-.41,4.51,4.51,0,0,0-.29-.53,1.13,1.13,0,0,1-.12-.59,1.37,1.37,0,0,1,.43-1,1.46,1.46,0,0,1,1.06-.44,1.53,1.53,0,0,1,.72.17.56.56,0,0,1,.35.51.4.4,0,0,1,0,.18.3.3,0,0,0,0,.14.38.38,0,0,0,.06.22.27.27,0,0,1,.06.17.35.35,0,0,1,0,.12.26.26,0,0,0,0,.1.78.78,0,0,0,.16.51,1.59,1.59,0,0,0,.41.36,2,2,0,0,0,.57.22,3.59,3.59,0,0,0,.65.07,2.42,2.42,0,0,0,1.16-.31,3.31,3.31,0,0,0,1-.81,2.9,2.9,0,0,0,.4-.54,1.48,1.48,0,0,0,.15-.7.89.89,0,0,0-.12-.45.85.85,0,0,1-.12-.43c0-.06,0-.1,0-.11s0,0,0,0a.79.79,0,0,0-.18-.53,1.4,1.4,0,0,0-.43-.36,3.81,3.81,0,0,0-.57-.3c-.21-.09-.41-.19-.61-.3a.3.3,0,0,1-.13-.14.4.4,0,0,0-.15-.14,1,1,0,0,0-.4-.1.71.71,0,0,1-.39-.17.89.89,0,0,1-.22-.21.77.77,0,0,0-.22-.23,1.05,1.05,0,0,0-.39-.11.71.71,0,0,1-.39-.17l-.21-.23a1.3,1.3,0,0,1-.17-.26,1.2,1.2,0,0,0-.39-.32A.45.45,0,0,1,97,9.64v-.5a1.94,1.94,0,0,0,0-.24,2.11,2.11,0,0,1,0-.26.44.44,0,0,1,0-.13.44.44,0,0,0,0-.13.43.43,0,0,1,0-.17A.3.3,0,0,0,97,8.1Z"/>
      <path d="M108.42,8.38a1.19,1.19,0,0,1,.17-.53,1.37,1.37,0,0,1,.34-.38,3.07,3.07,0,0,1,.47-.28c.17-.09.35-.18.54-.26a10.42,10.42,0,0,1,1-.44,2.51,2.51,0,0,1,1.12-.09l.74.1a1.11,1.11,0,0,1,.62.34,1.17,1.17,0,0,1,.33.53,1.63,1.63,0,0,1,0,.64,1.59,1.59,0,0,1-.12.41,1.67,1.67,0,0,1-.25.38,1.07,1.07,0,0,1-.35.25.88.88,0,0,1-.42.06.57.57,0,0,1-.34-.15l-.21-.26a2.39,2.39,0,0,0-.21-.26.47.47,0,0,0-.31-.14,3.21,3.21,0,0,0-.54,0,1.36,1.36,0,0,0-.5.12,1,1,0,0,0-.39.25.63.63,0,0,0-.19.42.37.37,0,0,0,.11.36,1.06,1.06,0,0,0,.37.18l.48.14a1.75,1.75,0,0,1,.46.21l.87.61c.23.18.51.4.81.66l.3.21.25.16a1.84,1.84,0,0,1,.25.17,2.12,2.12,0,0,1,.3.26,5.13,5.13,0,0,1,.81,1,2,2,0,0,1,.2,1.26l0,.46a1,1,0,0,0,0,.43,1.37,1.37,0,0,1,0,.46,1.33,1.33,0,0,1-.25.66,4.11,4.11,0,0,0-.4.55.45.45,0,0,0,0,.27.23.23,0,0,1-.09.22.49.49,0,0,1-.3.31,1,1,0,0,0-.37.24l-.37.24-.34.19-.36.17-.43.17a4.1,4.1,0,0,1-.71.23l-.72.1a.69.69,0,0,0-.25.1.42.42,0,0,1-.27.06,1.33,1.33,0,0,1-.28-.06.65.65,0,0,0-.21-.06,1.47,1.47,0,0,0-.48,0,1.48,1.48,0,0,1-.43,0,.53.53,0,0,1-.24-.1.56.56,0,0,0-.23-.14,1.1,1.1,0,0,0-.38-.12,1.54,1.54,0,0,1-.39-.07.55.55,0,0,1-.34-.17,1.9,1.9,0,0,0-.32-.31,1.78,1.78,0,0,0-.4-.22,1,1,0,0,1-.39-.32.43.43,0,0,1-.2-.34,1.18,1.18,0,0,0-.09-.42,4.37,4.37,0,0,0-.22-.56,1.18,1.18,0,0,1,0-.6,1.41,1.41,0,0,1,.56-1,1.44,1.44,0,0,1,1.1-.3,1.6,1.6,0,0,1,.7.25.56.56,0,0,1,.28.55.49.49,0,0,1,0,.17.22.22,0,0,0,0,.14.37.37,0,0,0,0,.22.26.26,0,0,1,0,.19.34.34,0,0,1,0,.1.21.21,0,0,0,0,.11.79.79,0,0,0,.09.53,1.39,1.39,0,0,0,.37.4,1.74,1.74,0,0,0,.54.29,2.73,2.73,0,0,0,.63.14,2.28,2.28,0,0,0,1.19-.16,3.46,3.46,0,0,0,1-.68,3,3,0,0,0,.46-.49,1.34,1.34,0,0,0,.24-.68.9.9,0,0,0-.06-.46.85.85,0,0,1-.07-.44c0-.07,0-.1,0-.11s0,0,0,0a.85.85,0,0,0-.11-.55,1.86,1.86,0,0,0-.38-.42,6.32,6.32,0,0,0-.54-.36c-.19-.12-.38-.24-.56-.37a.31.31,0,0,1-.12-.15.26.26,0,0,0-.13-.16,1.14,1.14,0,0,0-.38-.16.59.59,0,0,1-.36-.21.57.57,0,0,1-.19-.24,1,1,0,0,0-.2-.25,1.2,1.2,0,0,0-.37-.15.82.82,0,0,1-.37-.22l-.18-.26a1.46,1.46,0,0,1-.14-.28,1,1,0,0,0-.35-.36.46.46,0,0,1-.18-.45l.06-.5a1.77,1.77,0,0,0,0-.24,2.44,2.44,0,0,1,0-.26.34.34,0,0,1,0-.12.42.42,0,0,0,0-.13.5.5,0,0,1,.05-.16A.48.48,0,0,0,108.42,8.38Z"/>
      <path d="M123.58,10.69a.86.86,0,0,1,.5.28.93.93,0,0,1,.15.46,2.57,2.57,0,0,1,0,.55c0,.19-.06.38-.08.56l-.14.58c0,.14.08.31.13.54a1.26,1.26,0,0,1,0,.64l-.09.41a1.4,1.4,0,0,0,0,.31c0,.17,0,.37.06.58s0,.41,0,.6a2,2,0,0,1,0,.39,5.59,5.59,0,0,0-.12.83c0,.36,0,.71,0,1a6,6,0,0,0,.09.92c.06.26.15.41.28.44a1.33,1.33,0,0,1,.35.14.5.5,0,0,0,.21.1l.17.06.24.13a.76.76,0,0,1,.2.2.31.31,0,0,1,0,.25.51.51,0,0,1-.34.4,1.1,1.1,0,0,1-.57,0l-1.07-.32-.45-.11-.81-.2-.36-.08-.46-.07c-.07,0-.17,0-.31-.09s-.21-.11-.19-.18a.48.48,0,0,1,.29-.33,2.14,2.14,0,0,1,.54-.12,2.31,2.31,0,0,0,.43-.09.37.37,0,0,0,.23-.28s0-.12,0-.25,0-.29,0-.44a2.58,2.58,0,0,0,0-.42c0-.13,0-.19-.1-.21a2.42,2.42,0,0,1,0-.37c0-.13,0-.26,0-.36a.45.45,0,0,0-.07-.27.29.29,0,0,0-.26-.11l-.55-.14-.18-.05-.29-.05-.29,0a.31.31,0,0,0-.21,0,.26.26,0,0,0-.24.24,2,2,0,0,1,0,.41,1,1,0,0,0-.21.21c-.1.11-.19.23-.29.35l-.24.35a1.05,1.05,0,0,0-.13.21.36.36,0,0,0,0,.3,1.31,1.31,0,0,0,.2.21,1,1,0,0,1,.18.26.74.74,0,0,1,0,.47.21.21,0,0,1-.1.14.47.47,0,0,1-.17,0h-.19l-.14,0s0,.05,0,.06h-.09a.29.29,0,0,1-.14-.12l-.17,0-.21-.07-.28-.1a.94.94,0,0,0-.35,0,1.19,1.19,0,0,1-.36,0,1.45,1.45,0,0,0-.33-.06l-.15,0a.08.08,0,0,0-.06,0H117l-.28-.08-.4-.16a1.79,1.79,0,0,1-.34-.2c-.09-.08-.12-.15-.11-.21a.73.73,0,0,1,.32-.47.63.63,0,0,1,.54-.09H117a.19.19,0,0,0,.13,0,1,1,0,0,0,.22-.09l.25-.12.2-.09a3.73,3.73,0,0,1,.57-.8c.24-.28.47-.54.68-.8a5.93,5.93,0,0,1,.4-.51c.15-.18.29-.32.41-.44l.42-.53c.12-.18.24-.36.35-.54l.36-.56c.13-.18.27-.37.42-.56a3.41,3.41,0,0,0,.31-.49c.09-.17.17-.36.26-.55s.19-.38.3-.57a3.26,3.26,0,0,1,.38-.56,1.34,1.34,0,0,0,.26-.14,1.05,1.05,0,0,1,.38-.13Zm-3.49-2.92a.52.52,0,0,1,.21-.27,1.07,1.07,0,0,1,.31-.13,2.25,2.25,0,0,1,.38,0h.4a.62.62,0,0,0,.24-.1l.22-.17a1.28,1.28,0,0,1,.21-.14.38.38,0,0,1,.26,0,.28.28,0,0,1,.21.29,1.63,1.63,0,0,0,.09.46,1.87,1.87,0,0,0,.13.4l.16.36a1.27,1.27,0,0,1,.1.37.91.91,0,0,1,0,.43.21.21,0,0,1-.12.14,1.23,1.23,0,0,1-.23.08l-.26.05a.75.75,0,0,0-.44.26l-.15.15a.46.46,0,0,1-.15.09.37.37,0,0,1-.23,0,.46.46,0,0,1-.27-.16,1,1,0,0,1-.16-.26c0-.1-.09-.2-.15-.31a.77.77,0,0,0-.22-.29,1,1,0,0,1-.2-.3c-.07-.14-.13-.26-.18-.38a3.18,3.18,0,0,1-.11-.33C120.1,7.83,120.09,7.78,120.09,7.77Zm2.57,5.83a.28.28,0,0,0-.23.05,1.68,1.68,0,0,0-.21.18,1.07,1.07,0,0,0-.15.22l-.08.16c0,.1,0,.17,0,.22a.33.33,0,0,1,0,.12l-.08.15-.15.29,0,.13a.27.27,0,0,0,.1.22.53.53,0,0,0,.24.15l.15,0,.22,0a.65.65,0,0,0,.2,0,.18.18,0,0,0,.12-.13.45.45,0,0,0,0-.35.31.31,0,0,1-.06-.25l.18-.72a.85.85,0,0,0,0-.29Q122.73,13.63,122.66,13.6Zm2.14-5.15a3.67,3.67,0,0,1,.57-.27L126,8a.28.28,0,0,0,.15-.08l.13-.11.13-.09a.22.22,0,0,1,.14,0,.32.32,0,0,1,.21.16,1.08,1.08,0,0,1,.1.27,2.88,2.88,0,0,1,0,.33,1.32,1.32,0,0,0,.1.3.7.7,0,0,0,.17.28l.2.23a1.34,1.34,0,0,1,.12.24.47.47,0,0,1,0,.29.39.39,0,0,1-.15.23,1.59,1.59,0,0,1-.26.14l-.29.12a.71.71,0,0,0-.27.18,2.26,2.26,0,0,1-.29.26.44.44,0,0,1-.36.06.35.35,0,0,1-.26-.2.66.66,0,0,0-.2-.29.68.68,0,0,0-.23-.22.56.56,0,0,1-.21-.29,3.65,3.65,0,0,0-.12-.36,1,1,0,0,0-.24-.29.68.68,0,0,0-.21-.17.22.22,0,0,1,.1-.39A.57.57,0,0,0,124.8,8.45Z"/>
      <path d="M135.17,13.24a.93.93,0,0,1,.43.33.52.52,0,0,1,.07.52l-.13.36-.49.11-.37.06a.68.68,0,0,1-.24,0l-.56-.21a.85.85,0,0,0-.7,0,.88.88,0,0,0-.46.53l-.21.56a5.61,5.61,0,0,1-.55,1.05l-.66,1.06-.39,1-.4,1.05-.2.52-.08.21a.93.93,0,0,0,0,.2,1.15,1.15,0,0,0,0,.32,1.33,1.33,0,0,0,.06.3.35.35,0,0,0,.21.2l.52.2.56.21.52.2a1.13,1.13,0,0,0,.36,0l.65-.05.71-.1a2.52,2.52,0,0,0,.52-.12l.4-.13a.48.48,0,0,1,.33,0,1.47,1.47,0,0,1,.27-.25.31.31,0,0,1,.22,0,.88.88,0,0,1,.27.24c.1.14.14.24.11.32a2.59,2.59,0,0,1-.32.37c-.21.22-.44.46-.71.72s-.55.5-.84.73a1.94,1.94,0,0,1-.71.4c-.05,0-.18,0-.36,0l-.59-.17-.78-.27-.52-.2-.35-.14a4.44,4.44,0,0,1-.76-.37.79.79,0,0,0-.53-.18l-.26,0-1-.14-.22-.11-.36-.23-.35-.22L127,22a1,1,0,0,0-.29-.07h-.25a1.13,1.13,0,0,1-.26,0,.49.49,0,0,1-.28-.21.64.64,0,0,1-.06-.28.87.87,0,0,1,0-.28,1.42,1.42,0,0,1,.06-.21c.1-.26.25-.39.44-.39a4.42,4.42,0,0,1,.61.05,2,2,0,0,0,.64,0c.21,0,.38-.24.51-.59l.6-1.57.68-1.34.26-.67c0-.05.06-.15.13-.29s.14-.28.23-.43.2-.37.32-.57a.54.54,0,0,0,0-.31.49.49,0,0,1,0-.27l.08-.21a1.36,1.36,0,0,0,.12-.78,1.27,1.27,0,0,0-.24-.43,2.17,2.17,0,0,1-.27-.37.73.73,0,0,1,0-.59.7.7,0,0,1,.21-.29,1,1,0,0,1,.28-.16,1,1,0,0,1,.28-.05l.18,0Z"/>
      <path d="M145.91,18.27a1,1,0,0,1,.39.39.49.49,0,0,1,0,.52l-.18.34-.5.05-.37,0a.62.62,0,0,1-.24,0l-.53-.28a.91.91,0,0,0-.69-.1.88.88,0,0,0-.52.47l-.29.53a5.91,5.91,0,0,1-.67,1l-.79,1-.52,1-.53,1-.26.49-.11.19s0,.11-.07.2a1.64,1.64,0,0,0-.05.32.73.73,0,0,0,0,.3.32.32,0,0,0,.17.22l.5.27.53.28.49.27a2,2,0,0,0,.35,0,6.46,6.46,0,0,0,.65,0h.72a3.09,3.09,0,0,0,.54-.05l.41-.09a.42.42,0,0,1,.32,0,1.12,1.12,0,0,1,.31-.21s.11,0,.21.05a.72.72,0,0,1,.23.27c.09.15.12.26.08.33a2,2,0,0,1-.37.33c-.23.19-.49.4-.79.62a10.73,10.73,0,0,1-.93.62,1.8,1.8,0,0,1-.75.31q-.09,0-.36-.06l-.56-.25c-.22-.1-.47-.22-.74-.37l-.49-.26-.33-.18a4.79,4.79,0,0,1-.71-.46.84.84,0,0,0-.5-.25l-.26-.07-.95-.26-.21-.14-.32-.26-.32-.27-.21-.14a1.08,1.08,0,0,0-.28-.11l-.25,0a1.09,1.09,0,0,1-.26,0,.49.49,0,0,1-.25-.24.7.7,0,0,1,0-.29,2.13,2.13,0,0,1,.08-.27l.1-.2q.19-.37.48-.33a3.61,3.61,0,0,1,.6.13,1.72,1.72,0,0,0,.64.06c.21,0,.4-.19.58-.51l.79-1.49.85-1.25.33-.63a2.57,2.57,0,0,1,.17-.26c.08-.13.18-.27.28-.41l.39-.52a.51.51,0,0,0,.06-.3.54.54,0,0,1,.05-.27l.1-.2a1.19,1.19,0,0,0,.21-.76,1.11,1.11,0,0,0-.18-.46,2.24,2.24,0,0,1-.22-.4.69.69,0,0,1,.11-.57.73.73,0,0,1,.25-.27.94.94,0,0,1,.3-.12.67.67,0,0,1,.28,0,.56.56,0,0,1,.18.05Z"/>
      <path d="M151.66,23.4a1.25,1.25,0,0,1,.41-.39,1.36,1.36,0,0,1,.48-.16,2.47,2.47,0,0,1,.55,0l.59,0a10.62,10.62,0,0,1,1.13.12,2.42,2.42,0,0,1,1,.46l.6.43a1.2,1.2,0,0,1,.38.6,1.22,1.22,0,0,1,0,.62,1.65,1.65,0,0,1-.28.59,1.22,1.22,0,0,1-.3.3,1.47,1.47,0,0,1-.39.21.9.9,0,0,1-.43,0,.8.8,0,0,1-.4-.14.54.54,0,0,1-.22-.29,1.91,1.91,0,0,1-.06-.33c0-.11,0-.22-.07-.33a.54.54,0,0,0-.2-.28,2.37,2.37,0,0,0-.47-.26,1.54,1.54,0,0,0-.49-.15,1.42,1.42,0,0,0-.47,0,.72.72,0,0,0-.37.28.4.4,0,0,0-.07.37,1.06,1.06,0,0,0,.24.34l.36.35a1.73,1.73,0,0,1,.3.41c.18.36.34.67.47.94s.26.59.4,1c.06.13.12.23.17.32l.14.27a1.71,1.71,0,0,1,.14.27,2.73,2.73,0,0,1,.14.36,5.05,5.05,0,0,1,.22,1.3,2,2,0,0,1-.42,1.2l-.27.38a1.1,1.1,0,0,0-.18.4,1.36,1.36,0,0,1-.19.41,1.27,1.27,0,0,1-.54.46,3.79,3.79,0,0,0-.61.3.4.4,0,0,0-.16.22.22.22,0,0,1-.18.15.49.49,0,0,1-.41.13,1,1,0,0,0-.44,0l-.44,0H151l-.39,0-.46-.06a2.87,2.87,0,0,1-.74-.14l-.68-.24a.51.51,0,0,0-.27,0,.36.36,0,0,1-.26-.07.81.81,0,0,1-.21-.19,1.29,1.29,0,0,0-.17-.15,1.42,1.42,0,0,0-.42-.22,1.28,1.28,0,0,1-.38-.2.45.45,0,0,1-.17-.2.55.55,0,0,0-.14-.24,1.06,1.06,0,0,0-.28-.28,2,2,0,0,1-.3-.25.46.46,0,0,1-.21-.31,3.53,3.53,0,0,0-.14-.43,1.92,1.92,0,0,0-.25-.38,1,1,0,0,1-.19-.46.41.41,0,0,1,0-.4,1.1,1.1,0,0,0,.12-.41c0-.25.07-.45.08-.6a1,1,0,0,1,.24-.55,1.38,1.38,0,0,1,.94-.57,1.46,1.46,0,0,1,1.11.26,1.56,1.56,0,0,1,.49.56.54.54,0,0,1,0,.61.52.52,0,0,1-.13.13.26.26,0,0,0-.11.1.3.3,0,0,0-.07.21.28.28,0,0,1-.06.18.17.17,0,0,1-.09.07l-.09.08a.81.81,0,0,0-.16.51,1.52,1.52,0,0,0,.13.53,1.93,1.93,0,0,0,.34.5,2.74,2.74,0,0,0,.48.43,2.32,2.32,0,0,0,1.13.43,3.31,3.31,0,0,0,1.24-.11,2.91,2.91,0,0,0,.63-.21,1.35,1.35,0,0,0,.54-.48.84.84,0,0,0,.16-.43,1,1,0,0,1,.15-.42c0-.06.07-.08.09-.08s0,0,0,0a.84.84,0,0,0,.17-.53,1.65,1.65,0,0,0-.14-.55,5.1,5.1,0,0,0-.29-.57q-.18-.3-.33-.6a.3.3,0,0,1,0-.19.34.34,0,0,0,0-.2.94.94,0,0,0-.27-.32.64.64,0,0,1-.21-.36.59.59,0,0,1-.06-.3.76.76,0,0,0,0-.31,1.08,1.08,0,0,0-.25-.32.77.77,0,0,1-.22-.36c0-.12,0-.23,0-.32a1.15,1.15,0,0,1,0-.31,1.33,1.33,0,0,0-.14-.48.43.43,0,0,1,.06-.48l.28-.41a1.48,1.48,0,0,0,.13-.21,1.27,1.27,0,0,1,.13-.22.45.45,0,0,1,.09-.1l.09-.09a.34.34,0,0,1,.12-.12A.25.25,0,0,0,151.66,23.4Z"/>
      <path d="M168.42,34.92a.88.88,0,0,1,.3.72.94.94,0,0,1-.21.65.57.57,0,0,1-.62.15,2.91,2.91,0,0,1-.73-.36,5.92,5.92,0,0,1-.65-.52l-.33-.3-.55-.1a2.89,2.89,0,0,0-.58-.07l-.76.06-.79.11a4.73,4.73,0,0,0-.66.14.8.8,0,0,0-.38.16.47.47,0,0,0-.12.28,3.1,3.1,0,0,1-.09.44,3.31,3.31,0,0,0-.07.55c0,.19,0,.37,0,.54a3.23,3.23,0,0,0,0,.46c0,.13,0,.23,0,.3a2.2,2.2,0,0,1,0,.48c0,.19-.06.39-.1.59s-.07.41-.1.61a1.47,1.47,0,0,0,0,.56,4,4,0,0,0,0,.54c0,.22.05.43.07.65s.05.5.09.77l.29.27.33.29a.5.5,0,0,1,.2.44,2.45,2.45,0,0,1-.12.47,1.23,1.23,0,0,1-.33.54.78.78,0,0,1-.59.22,1.51,1.51,0,0,1-.89-.47l-.39-.38a2.42,2.42,0,0,1-.22-.28,2.25,2.25,0,0,1-.16-.31l-.19-.46-.13-.42a1.49,1.49,0,0,1-.13-.57,4.16,4.16,0,0,1,0-.69c0-.41,0-.9.07-1.46s.09-1.07.15-1.54.17-.74.23-1.09a4.54,4.54,0,0,0,.07-.92,1.05,1.05,0,0,0-.26-.54.35.35,0,0,0-.26-.08.29.29,0,0,0-.25.07,2.37,2.37,0,0,0-.41.59,2.12,2.12,0,0,1-.34.52l-.27.29-.15.38-.38.41a1,1,0,0,0-.33.82,2.08,2.08,0,0,0,.26.76c.13.24.26.45.38.63s.14.32.05.41a.62.62,0,0,1-.36.21,1.21,1.21,0,0,1-.38,0,1.28,1.28,0,0,1-.33-.11l-.16-.1-.14-.27c-.05-.05-.1-.08-.14-.07a.11.11,0,0,1-.11,0l-.73-.69a1.32,1.32,0,0,1-.19-.29,2.29,2.29,0,0,1-.14-.27.5.5,0,0,1-.05-.26l-.41-.39-.32-.21-.59-.33c-.22-.13-.43-.25-.64-.39a3.43,3.43,0,0,1-.47-.34l-.15-.15a.74.74,0,0,1-.19-.3.4.4,0,0,1,0-.38,1.16,1.16,0,0,1,.29-.17,2.88,2.88,0,0,1,.47-.15,2.8,2.8,0,0,1,.48,0,.45.45,0,0,1,.34.1l.12.11.56.31.52.49a.13.13,0,0,0,.19,0,1.8,1.8,0,0,0,.2-.19l.26-.27.19-.15a1,1,0,0,0,.31-.38,1.71,1.71,0,0,1,.46-.56,4,4,0,0,0,.46-.41l.26-.28.53-.56.34-.39a.65.65,0,0,0,.16-.38l.65-.68.4-.31.3-.24.21-.19a1,1,0,0,0,.36-.84,2,2,0,0,0-.29-.74c-.14-.22-.27-.43-.38-.62a.42.42,0,0,1,.07-.55.54.54,0,0,1,.37-.19.86.86,0,0,1,.39,0,1.35,1.35,0,0,1,.36.18l.28.22.23.22.16.15a1.26,1.26,0,0,1,.14.18l.2.27.21.26a1.64,1.64,0,0,0,.16.18l.4.38.68.42a1.33,1.33,0,0,1,.31.49.5.5,0,0,1-.09.57l-.16.15s-.1,0-.14,0a.66.66,0,0,0-.32-.17,1.37,1.37,0,0,0-.41,0,1.06,1.06,0,0,0-.42.09,1,1,0,0,0-.34.24l-.27.28a3.57,3.57,0,0,0-.37.54c-.08.15-.18.3-.27.47l-.11.11a.7.7,0,0,0-.07.22.47.47,0,0,0,0,.17.17.17,0,0,0,0,.12.18.18,0,0,0,.17.06l.26,0a9.81,9.81,0,0,0,1.45-.39l.83-.28.81-.24a4.27,4.27,0,0,1,1-.21.73.73,0,0,1,.55.11l.18.16a.26.26,0,0,0,.22.1.45.45,0,0,1,.28.16Z"/>
      <path d="M172,38.9a.37.37,0,0,1,.09.16.93.93,0,0,1,0,.25L174.24,42,175,43.5l.36.44a1.27,1.27,0,0,1,.28,1,3.41,3.41,0,0,1-.33,1.07,5.18,5.18,0,0,1-.62,1,4.37,4.37,0,0,1-.59.61,6,6,0,0,1-.62.43,4.2,4.2,0,0,1-.77.37,2.54,2.54,0,0,1-.87.12,1.68,1.68,0,0,1-.87-.33,1,1,0,0,0-.18-.14l-.27-.14-.26-.13a.73.73,0,0,1-.15-.11,3.3,3.3,0,0,1-.22-.32,2.52,2.52,0,0,1-.22-.47,1.69,1.69,0,0,1-.09-.47.39.39,0,0,1,.16-.36.37.37,0,0,1,.39-.11,1.16,1.16,0,0,1,.38.22c.13.11.27.23.43.35a1.26,1.26,0,0,0,1.32.15,3.88,3.88,0,0,0,1.08-.65l.2-.19a.61.61,0,0,0,.14-.29,1.52,1.52,0,0,0,0-.61,3.2,3.2,0,0,0-.16-.68,3.62,3.62,0,0,0-.24-.59,2.74,2.74,0,0,0-.18-.32l-.21-.26a.32.32,0,0,0-.16-.1.9.9,0,0,0-.22-.06.47.47,0,0,0-.21,0,.21.21,0,0,0-.12.14l-2,1.64-.73.58-.91.73-.56.73-.46.22c-.13.06-.24.13-.35.19a1.29,1.29,0,0,0-.23.15c-.29.23-.42.46-.37.67a1.54,1.54,0,0,0,.28.61c.14.19.26.37.37.54a.33.33,0,0,1-.09.46l-.17.14a.61.61,0,0,1-.21.08,2.47,2.47,0,0,1-.29.06.87.87,0,0,1-.28,0,.25.25,0,0,1-.18-.08l-.22-.27a1.78,1.78,0,0,1-.22-.46,1.79,1.79,0,0,0-.23-.45l-.8-1-.23-.24a5.24,5.24,0,0,0-.41-.38l-.42-.4-.29-.31-.25-.34a.81.81,0,0,1-.15-.33.74.74,0,0,1,0-.33.84.84,0,0,1,.29-.37l.26-.19a1.2,1.2,0,0,1,.34-.17.69.69,0,0,1,.35,0,.61.61,0,0,1,.36.25V45l.46.58a.49.49,0,0,0,.78.07l.47-.38.71-.29.16-.41.3-.11.23-.08.17-.08a1.08,1.08,0,0,0,.23-.33.93.93,0,0,1,.24-.33.13.13,0,0,1,.1,0l.14,0a.48.48,0,0,0,.21-.06,1.68,1.68,0,0,0,.3-.2l.56-.45.31-.25a.49.49,0,0,0,.14-.26.77.77,0,0,1,.29-.36l.43-.35a1.15,1.15,0,0,1,.43-.21l.3-.1a.65.65,0,0,0,.25-.52,1,1,0,0,0-.26-.67l-.13-.17a1.26,1.26,0,0,1-.12-.22,3,3,0,0,1-.16-.36,2,2,0,0,1-.08-.38.27.27,0,0,1,.08-.26.58.58,0,0,1,.3-.13.93.93,0,0,1,.33,0,1.16,1.16,0,0,1,.28.1A.46.46,0,0,1,172,38.9Z"/>
      <path d="M180.49,50.82a2.12,2.12,0,0,1,.11.21,1,1,0,0,0,.11.23l.16.32c.07.13.16.29.28.48l.48.48.23.21.18.17.11.14a.91.91,0,0,1,.1.35,2.1,2.1,0,0,1,0,.43,1.76,1.76,0,0,1-.43.49,1.72,1.72,0,0,0-.44.46,1.28,1.28,0,0,1-.12.24l-.2.31c-.09.12-.18.26-.27.4s-.41.06-.58-.22a.61.61,0,0,1,0-.41c0-.2,0-.45,0-.74a5.39,5.39,0,0,0-.13-1,3.29,3.29,0,0,0-.49-1.15l-.29-.27-.37,0a.33.33,0,0,0-.23,0l-.15.1-.3.09a1.13,1.13,0,0,0-.24.08l-.16.07-1.22.77a1.34,1.34,0,0,0-.42.4.41.41,0,0,0,0,.47,1.07,1.07,0,0,0,.13.15,2.05,2.05,0,0,0,.2.23,3.63,3.63,0,0,1,.27.28l.22.34a.53.53,0,0,0,.22.2,1.59,1.59,0,0,0,.27.12l.27.11a.36.36,0,0,1,.19.15.21.21,0,0,1,0,.16,1.12,1.12,0,0,1-.06.23l-.1.3-1.12.7a.47.47,0,0,1-.74-.13.7.7,0,0,1-.12-.37,1.26,1.26,0,0,1,0-.34,1.53,1.53,0,0,1,0-.41.65.65,0,0,0-.12-.36L175.5,55l-.21-.33c-.17-.29-.34-.44-.49-.45a1.21,1.21,0,0,0-.68.26l-.43.26a3,3,0,0,1-.43.37,3.52,3.52,0,0,0-.4.33,1,1,0,0,0-.25.38.69.69,0,0,0,0,.5l.59.95a2.15,2.15,0,0,0,.41.46,5,5,0,0,0,.61.41l.52.42a1.65,1.65,0,0,1,.36.4,2.11,2.11,0,0,1,0,.21.94.94,0,0,0,0,.16.2.2,0,0,1-.07.12.49.49,0,0,1-.27.05,2,2,0,0,1-.33-.08,2,2,0,0,0-.67-.06l-.54.07a1.21,1.21,0,0,1-.47,0,.63.63,0,0,1-.38-.32,1,1,0,0,1-.09-.21,1.24,1.24,0,0,1,0-.22c0-.08,0-.16-.07-.26s-.1-.2-.17-.33l-1.08-1.61-.5-.5-.56-.89-.32-.51-.31-.28-.35-.49a.37.37,0,0,1,0-.23,1.35,1.35,0,0,1,0-.28,1.28,1.28,0,0,1,.1-.26c0-.08.07-.13.11-.15.28-.18.55-.06.82.36a3.39,3.39,0,0,0,.28.2,3.17,3.17,0,0,1,.44.32,1,1,0,0,0,.52.34,1.46,1.46,0,0,0,.79-.32.48.48,0,0,1,.22,0c.08,0,.14-.06.15-.18a.7.7,0,0,0,.17-.13.75.75,0,0,0,.15-.16l.18-.21.32-.2.61-.38.42-.26,1.28-.61.28-.18a.35.35,0,0,1,.16-.06s.08,0,.15-.06l.9-.56.47-.29.51-.32a.32.32,0,0,0,.14-.32.89.89,0,0,0-.06-.32l-.3-.47a.59.59,0,0,1,0-.64,1.45,1.45,0,0,1,.54-.53.28.28,0,0,1,.24,0,.34.34,0,0,1,.21.15l.35.56.21.33a3.48,3.48,0,0,0,.22.3,4.55,4.55,0,0,1,.36.52Z"/>
      <path d="M189.81,67.94s0,.1-.09.18a1.69,1.69,0,0,1-.27.26l-.32.26a1.34,1.34,0,0,1-.24.15l-1.32.58-.27.11a2.23,2.23,0,0,1-.44.13,1.14,1.14,0,0,1-.45,0,.35.35,0,0,1-.29-.22.69.69,0,0,1-.06-.51.87.87,0,0,1,.26-.35,2.55,2.55,0,0,1,.41-.3,2.2,2.2,0,0,0,.4-.33.92.92,0,0,0,.22-.44,1.07,1.07,0,0,0-.11-.64l-.45-1a1,1,0,0,0-.11-.2,1.24,1.24,0,0,0-.14-.18l-.17-.18a.84.84,0,0,0-.51-.49,1.1,1.1,0,0,0-.71.06l-.88.39a1.92,1.92,0,0,1-.27.11.33.33,0,0,0-.18.2l-.75.23-3,1.31a3.51,3.51,0,0,0-.57.32,1.81,1.81,0,0,0-.31.31,1.25,1.25,0,0,0-.15.31c0,.11-.07.2-.11.29s0,.4,0,.57a1.73,1.73,0,0,0,.15.57,1.8,1.8,0,0,1,0,1,.86.86,0,0,1-.38.52.71.71,0,0,1-.59,0,1.17,1.17,0,0,1-.57-.54,1,1,0,0,1-.09-.34c0-.12,0-.23,0-.34s-.09-.24-.14-.38L177.2,69a2.25,2.25,0,0,1-.13-.42,1.09,1.09,0,0,1,0-.4L177,68l-.72-1.63a4.31,4.31,0,0,0-.3-.4,2.76,2.76,0,0,1-.44-.71c-.09-.2-.16-.38-.22-.54a3.52,3.52,0,0,0-.15-.42l-.12-.29a.21.21,0,0,0-.14-.12c-.06,0-.14-.12-.23-.33a.16.16,0,0,1,0-.1.21.21,0,0,1,.06-.1l.13-.08a3.92,3.92,0,0,1,.48,0l.44.06a1.66,1.66,0,0,1,.45.12c.13.14.26.27.37.4a4,4,0,0,1,.29.3,1.19,1.19,0,0,1,.16.2l.58.79a.26.26,0,0,0,.27.12,2.09,2.09,0,0,0,.42,0A4.4,4.4,0,0,0,179,65l1.94-.86a1.23,1.23,0,0,1,.29,0h.18l2.34-1,.3-.1a1.66,1.66,0,0,0,.29-.09.51.51,0,0,0,.14-.13,1.43,1.43,0,0,0,.16-.24,1.71,1.71,0,0,0,.09-.3.52.52,0,0,0,0-.28l-.9-2a1.27,1.27,0,0,0-.4-.54,1,1,0,0,0-.49-.16,1.9,1.9,0,0,0-.53,0l-.52.06a1.09,1.09,0,0,1-.45-.07.75.75,0,0,1-.33-.38.47.47,0,0,1,0-.49,1,1,0,0,1,.4-.31,1.82,1.82,0,0,1,.24-.09l.34-.09.33-.09a.68.68,0,0,0,.21-.06l1-.17.26-.08a3,3,0,0,1,.45-.09,2.46,2.46,0,0,1,.46,0,.32.32,0,0,1,.26.15.74.74,0,0,1,.07.42c0,.11,0,.24-.07.39a1,1,0,0,0,0,.29.9.9,0,0,0,.09.35,1.51,1.51,0,0,0,.19.3,2.92,2.92,0,0,1,.19.31l.16.37a.26.26,0,0,0,0,.15c0,.05,0,.11.05.17a.86.86,0,0,0,.07.21l1.22,2.76.31.46.14.55a8.13,8.13,0,0,0,.4.77c.15.26.28.52.39.76l.39.88a1.63,1.63,0,0,0,.35.54,2.66,2.66,0,0,0,.39.37,2.35,2.35,0,0,0,.33.22A.55.55,0,0,1,189.81,67.94Z"/>
      <circle cx="100.5" cy="100.94" r="100"/>
      <circle cx="100.5" cy="100.94" r="79.17"/>
      <path d="M157.08,156.73c-12-6.33-22.77-7.74-33.71-6.22a96.3,96.3,0,0,0-20.83,5.76c-8.89,3.39-18.34,6.21-26.42,7.33-14.05,2-20.39-2.81-21-7.28-.43-3,1.79-5.95,6-6.53A14.19,14.19,0,0,1,69.25,151l1.17.54a.54.54,0,0,1,.21.33c0,.19-.12.29-.28.31a.28.28,0,0,1-.34-.25,1.63,1.63,0,0,1,0-.28l-.88-.42a14.2,14.2,0,0,0-8-1.18c-3.93.55-6.12,3.28-5.72,6.12.59,4.25,6.94,8.74,21.9,6.66a118,118,0,0,0,25.13-6.85c8-3.13,15.13-5.76,22.4-6.77,9.75-1.36,19.73.2,32.32,7.4Z"/>
      <path d="M37.37,153.7a1.16,1.16,0,0,1,.2.79c0,.31-.06.59-.08.85a1.3,1.3,0,0,0-.28.83c0,.12-.06.24-.1.37a.91.91,0,0,1-.21.35c0,.05,0,.12,0,.23a4.18,4.18,0,0,1-.23.36l-.29.33a1.06,1.06,0,0,1-.19.19,2.18,2.18,0,0,1-.55.29,7.15,7.15,0,0,1-.7.21c-.24.05-.48.1-.71.13l-.58.07a.59.59,0,0,1-.3,0l-.27-.11a.87.87,0,0,0-.28-.05.53.53,0,0,0-.31.12,1.6,1.6,0,0,0-.39.44,4.94,4.94,0,0,0-.4.67,5.32,5.32,0,0,0-.29.68.91.91,0,0,0-.09.45,1.65,1.65,0,0,1-.07.58c-.05.2-.1.4-.14.61a3.4,3.4,0,0,0-.08.62,1.32,1.32,0,0,0,.14.6c0,.08.06.21.1.39a1.15,1.15,0,0,1,0,.47.48.48,0,0,1-.06.21.61.61,0,0,1-.18.1.47.47,0,0,1-.43,0,2.06,2.06,0,0,1-.41-.32,4.79,4.79,0,0,1-.31-.39,1.34,1.34,0,0,1-.13-.22.53.53,0,0,0-.12-.37,1.26,1.26,0,0,1-.19-.32,5.44,5.44,0,0,1,0-.92,3.52,3.52,0,0,0,0-.65,1.33,1.33,0,0,1,0-.36,5.13,5.13,0,0,1,0-.52c0-.2.05-.39.09-.59s.06-.38.09-.55a3.88,3.88,0,0,1,.22-.68c.08-.2.16-.39.24-.56s.16-.32.22-.47a1.14,1.14,0,0,0,.11-.41,1.65,1.65,0,0,1,0-.5.56.56,0,0,0-.13-.42.46.46,0,0,0-.35-.2.94.94,0,0,0-.4.05,2.2,2.2,0,0,0-.39.17l-.3.2-.62.74-.32.24a.83.83,0,0,0-.39.68,2.84,2.84,0,0,0,.08.77c.05.26.1.5.15.73a.47.47,0,0,1-.18.51.28.28,0,0,1-.27,0,.55.55,0,0,1-.24-.15l-.43-.58-.54-1-.26-.36-.56-.75L25,157l-.46-.63a2.45,2.45,0,0,1-.21-.33,6,6,0,0,1-.34-.62,3.11,3.11,0,0,1-.24-.66.4.4,0,0,1,.1-.45.18.18,0,0,1,.13,0l.18,0a.7.7,0,0,1,.23.08.49.49,0,0,1,.09.15l.12.22.14.26.24.32a1,1,0,0,0,.59.4.63.63,0,0,0,.55-.07l1.69-1.26,2.59-1.93,1.25-.73a2.77,2.77,0,0,1,.34-.36,3.34,3.34,0,0,0,.38-.37,1.19,1.19,0,0,0,.26-.41.64.64,0,0,0,0-.47l-.46-.62a2.14,2.14,0,0,1-.23-.38,1.25,1.25,0,0,1-.14-.41.85.85,0,0,1,0-.42.92.92,0,0,1,.32-.38s.08,0,.15,0l.22.08a1.22,1.22,0,0,1,.28.14L35,150.75l1.23,1.65a.88.88,0,0,0,.15.17,1.7,1.7,0,0,0,.24.22l.31.29Zm-2.77-.3-.14-.12a1.15,1.15,0,0,1-.19-.14A.9.9,0,0,0,34,153a.41.41,0,0,0-.27-.14.59.59,0,0,0-.4.14l-.28.21-.62.46-.27.21a.61.61,0,0,1-.28.11.46.46,0,0,0-.25.08l0,.09a.46.46,0,0,1,0,.09s0,.05-.09.09a.46.46,0,0,0-.27.26.87.87,0,0,0-.07.4,1.25,1.25,0,0,0,.07.43,1.06,1.06,0,0,0,.15.32l.35.2.26.16a.42.42,0,0,1,.19.15l.11.41a.55.55,0,0,0,.43.23,1.77,1.77,0,0,0,.56,0,3.52,3.52,0,0,0,.52-.18l.32-.12.38-.42a1.8,1.8,0,0,0,.2-.19.63.63,0,0,0,.12-.33,2.1,2.1,0,0,0,.27-.24.47.47,0,0,0,.17-.36,2.15,2.15,0,0,1-.12-.27l-.19-.49a5.49,5.49,0,0,0-.21-.51A2.09,2.09,0,0,0,34.6,153.4Z"/>
      <path d="M45,162.7a1.22,1.22,0,0,1,.15.17,1.4,1.4,0,0,0,.17.2l.24.27a3.54,3.54,0,0,0,.39.39l.59.34.27.15a.88.88,0,0,1,.21.12.73.73,0,0,1,.15.11.75.75,0,0,1,.18.31,1.79,1.79,0,0,1,.12.42,1.57,1.57,0,0,1-.3.57,2.43,2.43,0,0,0-.31.56.6.6,0,0,1,0,.26c0,.12-.08.24-.11.35a2.51,2.51,0,0,0-.16.46c-.17.18-.38.16-.62-.07a.66.66,0,0,1-.14-.38,4.25,4.25,0,0,0-.16-.73,4.77,4.77,0,0,0-.36-.93,3.7,3.7,0,0,0-.77-1l-.35-.19-.37.06a.35.35,0,0,0-.22.07l-.12.13a1.91,1.91,0,0,1-.27.16l-.2.14a1,1,0,0,0-.14.12l-1,1a1.45,1.45,0,0,0-.31.5.4.4,0,0,0,.09.45l.16.13.26.16.33.2.29.28a.59.59,0,0,0,.27.14l.3.05.28,0a.5.5,0,0,1,.22.1.22.22,0,0,1,.05.16,2.09,2.09,0,0,1,0,.24l0,.31-.9,1q-.39.4-.75.06a.8.8,0,0,1-.22-.32,2.29,2.29,0,0,1-.07-.34,1.37,1.37,0,0,1-.14-.38.72.72,0,0,0-.2-.33l-.24-.22-.29-.27c-.24-.23-.44-.33-.59-.31a1.2,1.2,0,0,0-.59.43l-.35.36c-.1.16-.21.31-.32.46a3.85,3.85,0,0,0-.31.43.75.75,0,0,0-.14.42.7.7,0,0,0,.16.47l.81.77a2,2,0,0,0,.52.34,4.3,4.3,0,0,0,.69.25l.6.28a1.58,1.58,0,0,1,.46.29,1.25,1.25,0,0,1,0,.21v.17a.17.17,0,0,1,0,.13.37.37,0,0,1-.25.12h-.34a1.46,1.46,0,0,0-.65.11l-.51.2a1.29,1.29,0,0,1-.46.09.64.64,0,0,1-.45-.22.7.7,0,0,1-.14-.17,1.24,1.24,0,0,1-.1-.2.94.94,0,0,0-.13-.24,2,2,0,0,0-.25-.28l-1.45-1.29-.6-.35-.77-.73-.44-.41-.37-.19-.47-.38a.51.51,0,0,1-.1-.21,1.36,1.36,0,0,1,0-.29,1.27,1.27,0,0,1,0-.28.41.41,0,0,1,.06-.17c.23-.24.53-.19.88.15l.33.12a4.16,4.16,0,0,1,.5.19,1,1,0,0,0,.6.21,1.53,1.53,0,0,0,.68-.51.38.38,0,0,1,.2-.1c.08,0,.12-.1.11-.22l.13-.17a1.14,1.14,0,0,0,.1-.19,1.34,1.34,0,0,1,.12-.24l.26-.28.49-.52.35-.36,1.08-.91.23-.25c.06-.06.1-.09.13-.09a.32.32,0,0,0,.13-.1l.73-.77.39-.41.41-.43a.33.33,0,0,0,0-.35.7.7,0,0,0-.14-.29l-.4-.38a.56.56,0,0,1-.18-.61,1.54,1.54,0,0,1,.38-.66.34.34,0,0,1,.23-.08.32.32,0,0,1,.24.09l.48.45.29.27a2.27,2.27,0,0,0,.29.24,4.68,4.68,0,0,1,.47.41Z"/>
      <path d="M51.56,170.33a1.14,1.14,0,0,1,.4-.39,1.38,1.38,0,0,1,.48-.17,3.16,3.16,0,0,1,.55,0l.59,0a11,11,0,0,1,1.13.1,2.51,2.51,0,0,1,1,.45l.61.42a1.21,1.21,0,0,1,.39.6,1.19,1.19,0,0,1,0,.61,1.63,1.63,0,0,1-.27.59,1.41,1.41,0,0,1-.29.31,1.44,1.44,0,0,1-.4.22,1,1,0,0,1-.43.06A.85.85,0,0,1,55,173a.49.49,0,0,1-.22-.28,1.94,1.94,0,0,1-.07-.33,2.17,2.17,0,0,0-.07-.33.49.49,0,0,0-.21-.27,2.28,2.28,0,0,0-.46-.26,2,2,0,0,0-.5-.14,1.22,1.22,0,0,0-.47.05.65.65,0,0,0-.36.28.37.37,0,0,0-.06.37,1.06,1.06,0,0,0,.24.34l.36.34a1.27,1.27,0,0,1,.3.4c.19.36.36.67.49.94s.27.59.41,1l.17.32.15.26a1.71,1.71,0,0,1,.14.27,1.59,1.59,0,0,1,.14.36,5.12,5.12,0,0,1,.25,1.29,2,2,0,0,1-.41,1.21l-.26.38a1.18,1.18,0,0,0-.18.4,1.12,1.12,0,0,1-.19.42,1.17,1.17,0,0,1-.52.46,4.39,4.39,0,0,0-.61.31.44.44,0,0,0-.16.22c0,.08-.08.13-.18.16a.47.47,0,0,1-.4.13,1,1,0,0,0-.44,0,3.77,3.77,0,0,1-.44,0h-.78l-.47-.05a4,4,0,0,1-.73-.13l-.69-.24a.63.63,0,0,0-.27,0,.39.39,0,0,1-.27-.07,1,1,0,0,1-.21-.19,1.17,1.17,0,0,0-.16-.15,1.51,1.51,0,0,0-.43-.21,1.28,1.28,0,0,1-.38-.2.37.37,0,0,1-.17-.19.68.68,0,0,0-.14-.24.91.91,0,0,0-.29-.27,2.09,2.09,0,0,1-.3-.25.48.48,0,0,1-.22-.31,2.47,2.47,0,0,0-.15-.43,1.5,1.5,0,0,0-.25-.37,1,1,0,0,1-.19-.46.41.41,0,0,1,0-.4,1.17,1.17,0,0,0,.11-.41c0-.25.06-.45.07-.6a1.15,1.15,0,0,1,.23-.55,1.37,1.37,0,0,1,.94-.59,1.45,1.45,0,0,1,1.12.25,1.49,1.49,0,0,1,.49.54.56.56,0,0,1,0,.62.52.52,0,0,1-.13.13.33.33,0,0,0-.11.1.37.37,0,0,0-.07.21.32.32,0,0,1,0,.19l-.09.07a.3.3,0,0,0-.08.07.79.79,0,0,0-.16.51,1.42,1.42,0,0,0,.13.53,1.86,1.86,0,0,0,.35.51,4,4,0,0,0,.49.42,2.29,2.29,0,0,0,1.13.41,3.76,3.76,0,0,0,1.24-.12,2.92,2.92,0,0,0,.63-.22,1.43,1.43,0,0,0,.53-.49,1,1,0,0,0,.16-.44.84.84,0,0,1,.14-.42c0-.06.07-.08.09-.07s0,0,0,0a.83.83,0,0,0,.16-.53,2,2,0,0,0-.15-.55,3.91,3.91,0,0,0-.3-.57c-.11-.19-.23-.39-.33-.59a.3.3,0,0,1,0-.19.28.28,0,0,0,0-.2.94.94,0,0,0-.27-.32,1,1,0,0,1-.28-.65.83.83,0,0,0,0-.32,1.41,1.41,0,0,0-.26-.31.72.72,0,0,1-.23-.36c0-.12,0-.22,0-.31a1.07,1.07,0,0,1,0-.31,1.2,1.2,0,0,0-.14-.49.43.43,0,0,1,0-.47l.28-.42a.72.72,0,0,0,.12-.21,2.53,2.53,0,0,1,.13-.22.3.3,0,0,1,.09-.1l.09-.09a.51.51,0,0,1,.12-.13Z"/>
      <path d="M62.51,177.17a1.27,1.27,0,0,1,.34-.45,1.22,1.22,0,0,1,.45-.24,2.74,2.74,0,0,1,.53-.13l.59-.07a9.8,9.8,0,0,1,1.13-.08,2.56,2.56,0,0,1,1.1.28l.67.32a1.2,1.2,0,0,1,.48.53,1.25,1.25,0,0,1,.14.6,1.66,1.66,0,0,1-.17.63,1.52,1.52,0,0,1-.25.35,1.31,1.31,0,0,1-.35.27,1.23,1.23,0,0,1-.41.13.85.85,0,0,1-.42-.08.55.55,0,0,1-.27-.25,2,2,0,0,1-.12-.31,2,2,0,0,0-.12-.31.45.45,0,0,0-.25-.24,2.47,2.47,0,0,0-.5-.19,1.8,1.8,0,0,0-.51-.05,1.15,1.15,0,0,0-.46.11.69.69,0,0,0-.31.34.37.37,0,0,0,0,.38,1.14,1.14,0,0,0,.29.29l.41.28a1.71,1.71,0,0,1,.36.35l.63.85c.17.25.36.55.56.89l.21.29.19.24a1.55,1.55,0,0,1,.19.24,3.2,3.2,0,0,1,.19.34,4.71,4.71,0,0,1,.44,1.23,2,2,0,0,1-.21,1.27l-.2.41a1.19,1.19,0,0,0-.11.42,1.37,1.37,0,0,1-.12.45,1.23,1.23,0,0,1-.45.54,4.19,4.19,0,0,0-.55.4.45.45,0,0,0-.12.24.23.23,0,0,1-.15.18.5.5,0,0,1-.38.2.9.9,0,0,0-.43.1c-.15.05-.3.08-.43.11l-.38.07-.39.05-.47,0a3.66,3.66,0,0,1-.75,0l-.71-.13a.6.6,0,0,0-.27,0,.35.35,0,0,1-.28,0,1.53,1.53,0,0,1-.24-.14.83.83,0,0,0-.18-.13,1.5,1.5,0,0,0-.45-.14,1.79,1.79,0,0,1-.42-.13.42.42,0,0,1-.19-.18.79.79,0,0,0-.18-.2,1,1,0,0,0-.32-.23,1.37,1.37,0,0,1-.34-.2.51.51,0,0,1-.27-.27,3.15,3.15,0,0,0-.21-.4,2.46,2.46,0,0,0-.3-.33,1,1,0,0,1-.27-.42.39.39,0,0,1-.08-.39,1.13,1.13,0,0,0,0-.43,4.75,4.75,0,0,0,0-.6,1.06,1.06,0,0,1,.15-.58,1.33,1.33,0,0,1,.83-.72,1.42,1.42,0,0,1,1.14.06,1.65,1.65,0,0,1,.58.47.56.56,0,0,1,.09.6.48.48,0,0,1-.11.15l-.09.11a.4.4,0,0,0,0,.23.25.25,0,0,1,0,.19l-.07.08-.08.09a.77.77,0,0,0-.07.53,1.28,1.28,0,0,0,.21.5,1.93,1.93,0,0,0,.42.44,2.64,2.64,0,0,0,.55.34,2.27,2.27,0,0,0,1.19.23,3.33,3.33,0,0,0,1.2-.31,2.78,2.78,0,0,0,.59-.32,1.36,1.36,0,0,0,.45-.56.9.9,0,0,0,.08-.46.83.83,0,0,1,.08-.44c0-.06,0-.09.07-.08a.05.05,0,0,0,0,0,.77.77,0,0,0,.07-.55,1.93,1.93,0,0,0-.22-.52,5.77,5.77,0,0,0-.39-.51c-.15-.17-.29-.35-.42-.53a.29.29,0,0,1-.06-.19.34.34,0,0,0-.07-.19,1.15,1.15,0,0,0-.32-.27.58.58,0,0,1-.27-.32.62.62,0,0,1-.11-.28.75.75,0,0,0-.1-.3,1,1,0,0,0-.3-.27.76.76,0,0,1-.28-.32c0-.12-.06-.22-.09-.31a1.28,1.28,0,0,1,0-.3,1.28,1.28,0,0,0-.21-.46.42.42,0,0,1,0-.48l.21-.45a.92.92,0,0,0,.09-.23,1.44,1.44,0,0,1,.09-.24.31.31,0,0,1,.08-.11.35.35,0,0,0,.07-.11.5.5,0,0,1,.1-.14A.23.23,0,0,0,62.51,177.17Z"/>
      <path d="M77.45,181.49a1,1,0,0,1,.21.08,1.18,1.18,0,0,0,.25.1l.33.14.52.17.68,0h.31l.25,0,.18,0a.83.83,0,0,1,.31.19,2.8,2.8,0,0,1,.29.32,1.54,1.54,0,0,1,0,.64,2,2,0,0,0,0,.64.84.84,0,0,1,.07.26l.06.37A2.93,2.93,0,0,0,81,185c-.08.24-.27.31-.59.22a.7.7,0,0,1-.29-.29c-.12-.16-.28-.36-.48-.58a5.54,5.54,0,0,0-.74-.66,3.66,3.66,0,0,0-1.14-.53h-.39a2.58,2.58,0,0,1-.31.22.4.4,0,0,0-.16.16l0,.17c0,.1-.11.19-.16.27a2.39,2.39,0,0,0-.13.21,1.56,1.56,0,0,0-.07.17L76,185.7a1.41,1.41,0,0,0,0,.58.4.4,0,0,0,.28.37l.2,0a1.42,1.42,0,0,0,.31,0l.38,0,.39.12a.51.51,0,0,0,.3,0l.29-.09.26-.1a.43.43,0,0,1,.25,0,.26.26,0,0,1,.11.12,2.35,2.35,0,0,1,.1.22l.12.28-.37,1.27c-.11.36-.32.49-.64.39a.75.75,0,0,1-.34-.19,2.18,2.18,0,0,1-.21-.26,2.22,2.22,0,0,1-.31-.28.61.61,0,0,0-.32-.2l-.31-.09-.38-.12c-.32-.09-.55-.1-.67,0a1.39,1.39,0,0,0-.34.65l-.14.48a3.43,3.43,0,0,1-.08.56,3.67,3.67,0,0,0-.08.52.85.85,0,0,0,.06.45.75.75,0,0,0,.36.34l1.07.32a1.74,1.74,0,0,0,.62.07,4.72,4.72,0,0,0,.72-.09l.67,0a1.55,1.55,0,0,1,.54.06,1.42,1.42,0,0,1,.11.18l.08.15a.15.15,0,0,1,0,.13.36.36,0,0,1-.17.22,1.57,1.57,0,0,1-.29.16,1.64,1.64,0,0,0-.54.39l-.36.42a1.62,1.62,0,0,1-.37.29.71.71,0,0,1-.5,0,.53.53,0,0,1-.2-.09,1.1,1.1,0,0,1-.18-.14,1.53,1.53,0,0,0-.23-.15,2.2,2.2,0,0,0-.35-.13L74,192.06l-.7,0-1-.31-.57-.17h-.42l-.59-.13a.37.37,0,0,1-.18-.14.78.78,0,0,1-.16-.24c0-.09-.07-.18-.1-.26a.47.47,0,0,1,0-.19c.1-.31.38-.4.85-.26l.35,0a4.31,4.31,0,0,1,.54-.05,1,1,0,0,0,.62-.08,1.55,1.55,0,0,0,.38-.77.41.41,0,0,1,.13-.18c.06-.05.06-.13,0-.24a.65.65,0,0,0,0-.2,1.7,1.7,0,0,0,0-.22,2.44,2.44,0,0,1,0-.27l.11-.37.21-.69.14-.48.55-1.3.1-.32a.34.34,0,0,1,.07-.15s0-.06.08-.14l.3-1,.16-.53.17-.58a.32.32,0,0,0-.11-.33c-.11-.11-.19-.18-.26-.19l-.53-.16a.6.6,0,0,1-.44-.47,1.54,1.54,0,0,1,0-.76.38.38,0,0,1,.42-.2l.63.18.38.12.37.07c.16,0,.37.08.61.15Z"/>
      <path d="M99.6,184.51a1,1,0,0,1,.87.47,1.52,1.52,0,0,1,.14.81.31.31,0,0,1-.11.17,1,1,0,0,1-.24.22,1.73,1.73,0,0,1-.28.19.46.46,0,0,1-.21.07l-.34,0h-.24a.62.62,0,0,0-.37.11.64.64,0,0,0-.46.09.76.76,0,0,0-.26.3,1.45,1.45,0,0,0-.14.43c0,.16,0,.31,0,.44l-.12,1.33-.14,1.44a.86.86,0,0,0,0,.34c0,.09.06.16.08.23a.45.45,0,0,1,.09.25,2.46,2.46,0,0,1,0,.26l-.12.65a2.11,2.11,0,0,0,0,.56,1.25,1.25,0,0,1,0,.39l.19.58,0,.56a.5.5,0,0,0,.3.53,6.16,6.16,0,0,0,.73.3,7.79,7.79,0,0,1,.74.27.41.41,0,0,1,.31.44c0,.4-.24.58-.61.55l-.72-.07-.3,0a.66.66,0,0,0-.32.08l-1.65-.27-.56-.06-.37,0H94a1.82,1.82,0,0,1-.42-.08c-.09,0-.12-.14-.1-.31a1.37,1.37,0,0,1,.2-.6.56.56,0,0,1,.6-.27l.38,0,.78.08a.3.3,0,0,0,.23-.07.41.41,0,0,0,.14-.21,2.33,2.33,0,0,0,.07-.25q0-.13,0-.21a2.41,2.41,0,0,0-.05-.63,2.21,2.21,0,0,1-.07-.51l.07-.72.06-.59.05-.56s0-.14,0-.27a1.74,1.74,0,0,0,0-.39,2.31,2.31,0,0,0-.1-.34c0-.1-.08-.15-.14-.15s-.08.05-.18.15-.21.24-.34.41l-.43.56c-.16.21-.32.41-.46.61l-.41.55-.27.37a.86.86,0,0,0-.3.3,2.5,2.5,0,0,0-.23.39c-.07.13-.12.27-.18.4a2.27,2.27,0,0,1-.15.34c-.12.17-.24.33-.35.46l-.28.32a1.7,1.7,0,0,1-.26.37.36.36,0,0,1-.23,0,.32.32,0,0,1-.29-.19,3.35,3.35,0,0,0-.2-.48l0-1.23c-.07-.25-.15-.5-.25-.77s-.18-.53-.25-.79a6,6,0,0,1-.18-.79,2.64,2.64,0,0,1,0-.73l0-.22a1.31,1.31,0,0,0,0-.27c0-.13-.06-.26-.1-.4a2.16,2.16,0,0,0-.15-.34c-.06-.1-.11-.15-.17-.16s-.1,0-.17.17a2.11,2.11,0,0,0-.23.4,3.9,3.9,0,0,0-.2.47,2.35,2.35,0,0,0-.09.37l-.09,1,0,.38c-.09.34-.17.65-.25.92s-.12.46-.17.69a2.39,2.39,0,0,0-.09.41,1.08,1.08,0,0,0,.13.78,1,1,0,0,0,.41.3,3.54,3.54,0,0,1,.43.16c.13.05.18.17.16.37a.45.45,0,0,1-.12.32.44.44,0,0,1-.22.14.73.73,0,0,1-.25,0H88.9l-.77-.07-1.86-.52-.38,0-.34,0a.33.33,0,0,1-.14,0,.51.51,0,0,1-.27,0l-.38,0-.18,0a.89.89,0,0,1-.23-.1.91.91,0,0,1-.19-.13.14.14,0,0,1-.08-.14.48.48,0,0,1,.18-.34,1.31,1.31,0,0,1,.36-.21,1.47,1.47,0,0,1,.38-.11l.25,0,.39,0h.24l.39,0,.5,0a1.56,1.56,0,0,0,.33-.46,6.14,6.14,0,0,0,.3-.7l.24-.66a2.35,2.35,0,0,0,.1-.38l.07-.72,0-.22a.37.37,0,0,0,.12-.18,2,2,0,0,0,.08-.26,1.77,1.77,0,0,0,0-.32l.09-.89a.93.93,0,0,1,0-.24c0-.1.06-.21.1-.31l.15-.37.06-.56c0-.07.07-.15.1-.23a1,1,0,0,0,.08-.21,2,2,0,0,0,0-.26l0-.44a.79.79,0,0,0,0-.27,3.93,3.93,0,0,0-.1-.44q-.06-.27-.12-.6a1.13,1.13,0,0,0-.26-.28c-.11-.09-.22-.18-.31-.27a1.6,1.6,0,0,0-.28-.22.68.68,0,0,1-.24-.29l0-.22a.2.2,0,0,1,.12-.17,1.08,1.08,0,0,1,.59-.09l.5,0a1.36,1.36,0,0,0,.29,0,.32.32,0,0,0,.13-.07l.07-.07a.1.1,0,0,1,.08,0l.94.09.38,0,.53.27a13.29,13.29,0,0,1,.31,1.3c.11.51.22,1.06.32,1.63s.21,1.14.32,1.71.2,1.07.3,1.52.18.82.26,1.1.16.43.22.43l.12-.17a.83.83,0,0,1,.13-.16l.14-.13a15.92,15.92,0,0,1,1-2c.41-.7.78-1.37,1.11-2a1.13,1.13,0,0,1,.31-.71,8.46,8.46,0,0,0,.6-.67,1.26,1.26,0,0,0,.11-.37,3.74,3.74,0,0,1,.12-.45,1.3,1.3,0,0,1,.2-.41.68.68,0,0,1,.43-.24l.78.07.26.19a3,3,0,0,0,.52,0l.47-.07C99.28,184.61,99.44,184.57,99.6,184.51Z"/>
      <path d="M107.32,184.42l.16,0h.15l.56-.06a.35.35,0,0,0,.28.13h.24l.22,0,.12,0a6.25,6.25,0,0,1,1.06,0,3.29,3.29,0,0,1,1,.28,3.24,3.24,0,0,1,.92.62,4.07,4.07,0,0,1,.77,1l.11,1a1.22,1.22,0,0,1-.12.65,5.3,5.3,0,0,1-.33.57l-.33.49a.56.56,0,0,0-.14.34.3.3,0,0,0,.11.14l.21.17.3.19a.51.51,0,0,1,.4.14,1.72,1.72,0,0,1,.37.43,4,4,0,0,1,.27.55,2.4,2.4,0,0,1,.13.49l.06.55a3.13,3.13,0,0,0,0,.68,1.49,1.49,0,0,1-.13.72.67.67,0,0,0-.17.27c0,.09,0,.17-.07.25a.72.72,0,0,1-.12.21.64.64,0,0,1-.27.18,7,7,0,0,1-1.25.81,4.26,4.26,0,0,1-1.48.42l-1.32.13-.55.06-.56.06h-.12l-.56-.16-.18.14a.72.72,0,0,1-.29.13l-.4,0s0-.06,0-.07a.32.32,0,0,0-.13-.05.54.54,0,0,0-.19,0l-.19,0a.57.57,0,0,1-.4-.06.32.32,0,0,1-.13-.23,1.53,1.53,0,0,1,0-.59.4.4,0,0,1,.35-.34l.34,0a2.48,2.48,0,0,0,.43-.12,2.16,2.16,0,0,1,.43-.13c.08,0,.14,0,.16-.08a.24.24,0,0,0,0-.15,1.62,1.62,0,0,0,0-.19c0-.06,0-.11,0-.15a.25.25,0,0,0,0-.25.22.22,0,0,0-.07-.09l0-.5a1.49,1.49,0,0,0,.08-.53c0-.16,0-.28,0-.36l-.06-.56c0-.15,0-.3,0-.45s0-.22,0-.33a1.09,1.09,0,0,0,0-.24c0-.09,0-.13,0-.13a.05.05,0,0,1,0,0,.54.54,0,0,1,0-.22c0-.13,0-.37,0-.72l0-.34,0-.32a1,1,0,0,1,0-.35,1.07,1.07,0,0,0,0-.38,1.89,1.89,0,0,0-.27-.83,2,2,0,0,0-.5-.5,2,2,0,0,0-.62-.28l-.62-.19a2.28,2.28,0,0,1-.47-.22.44.44,0,0,1-.22-.34.46.46,0,0,1,.11-.33,1.08,1.08,0,0,1,.3-.26,1.49,1.49,0,0,1,.36-.17,1.71,1.71,0,0,1,.32-.07l.39,0,.86-.27Zm1.91,1.77a.58.58,0,0,0-.28.17,2.07,2.07,0,0,0-.27.37,2.2,2.2,0,0,0-.18.43.39.39,0,0,0,0,.33l0,.34,0,.38,0,.5c0,.18.09.33.13.46a1.12,1.12,0,0,0,.15.31.43.43,0,0,0,.24.18,1.33,1.33,0,0,0,.42,0,1.08,1.08,0,0,0,.37-.14,3.29,3.29,0,0,0,.46-.3,2.21,2.21,0,0,0,.37-.38.59.59,0,0,0,.13-.39l0-.49-.06-.56a1,1,0,0,0-.16-.41,2,2,0,0,0-.37-.41,2.25,2.25,0,0,0-.51-.31A1.13,1.13,0,0,0,109.23,186.19Zm.34,4.55a.55.55,0,0,0-.42.25,1.51,1.51,0,0,0-.22.48,3.35,3.35,0,0,0-.07.53,2.32,2.32,0,0,0,0,.38l.07.72,0,.5a.68.68,0,0,0,.07.17,1.6,1.6,0,0,0,.16.23,1.3,1.3,0,0,0,.23.18.46.46,0,0,0,.27.07,1.27,1.27,0,0,0,.41-.11l.29-.13a2,2,0,0,0,.53-.26,3.23,3.23,0,0,0,.49-.41,2,2,0,0,0,.33-.5.77.77,0,0,0,0-.54c0-.17,0-.3-.06-.4a.86.86,0,0,1,0-.23.76.76,0,0,0,0-.14s0-.07,0-.12a.69.69,0,0,0-.24-.42,1.08,1.08,0,0,0-.47-.22,2.62,2.62,0,0,0-.58-.08l-.57,0-.16,0Z"/>
      <path d="M122.13,182a1,1,0,0,1,.55,0,.53.53,0,0,1,.36.38l.1.37c-.12.14-.23.27-.34.38l-.26.27a.65.65,0,0,1-.19.14l-.58.15a.84.84,0,0,0-.64,1.1l.16.58a5.77,5.77,0,0,1,.17,1.18c0,.43.05.85.07,1.24l.29,1.06.28,1.09.15.54,0,.21a1.7,1.7,0,0,0,.26.46,1.51,1.51,0,0,0,.23.21.39.39,0,0,0,.28,0l.54-.15.58-.15.54-.14a1.17,1.17,0,0,0,.29-.21c.16-.12.32-.26.5-.42s.35-.32.52-.49a3.42,3.42,0,0,0,.36-.4l.24-.34a.46.46,0,0,1,.26-.21,1.18,1.18,0,0,1,.08-.36s.08-.07.19-.1a.72.72,0,0,1,.36,0q.24.06.27.18a1.81,1.81,0,0,1,0,.5c0,.29-.09.62-.16,1s-.15.73-.25,1.08a2,2,0,0,1-.34.75c0,.06-.13.12-.31.19l-.58.21-.78.23-.55.14-.36.1a4.6,4.6,0,0,1-.84.14c-.28,0-.46.07-.53.16l-.24.12-.87.46-.25,0-.42,0-.41,0-.25,0a1.17,1.17,0,0,0-.28.11l-.21.14-.21.16a.51.51,0,0,1-.35,0,.76.76,0,0,1-.21-.19.91.91,0,0,1-.13-.26c0-.08,0-.16-.07-.21a.5.5,0,0,1,.13-.57,4.36,4.36,0,0,1,.53-.31,1.92,1.92,0,0,0,.51-.39.8.8,0,0,0,.07-.77L120,190l-.23-1.49-.19-.69c0-.05,0-.16,0-.31a3.4,3.4,0,0,1-.07-.49c0-.2-.05-.41-.07-.64a.63.63,0,0,0-.16-.27.42.42,0,0,1-.16-.23l-.05-.21a1.28,1.28,0,0,0-.37-.7,1,1,0,0,0-.44-.21,2.83,2.83,0,0,1-.44-.14.78.78,0,0,1-.31-.5.73.73,0,0,1,0-.36.83.83,0,0,1,.14-.3,1,1,0,0,1,.2-.2l.16-.08Z"/>
      <path d="M134.83,176.39a1,1,0,0,1,.68-.11,1.07,1.07,0,0,1,.48.32,3.06,3.06,0,0,1,.38.54c.12.2.23.4.35.58l.3.65.53.41a1.62,1.62,0,0,1,.48.6l.21.46a3.07,3.07,0,0,0,.24.28l.49.5c.18.19.34.36.49.54a1.58,1.58,0,0,1,.28.36,7.49,7.49,0,0,0,.52.88,10.56,10.56,0,0,0,.75,1,5.82,5.82,0,0,0,.77.79c.25.21.44.28.59.21a1.3,1.3,0,0,1,.42-.13.9.9,0,0,0,.28-.06l.2-.07a1.61,1.61,0,0,1,.33-.06.89.89,0,0,1,.33,0,.39.39,0,0,1,.23.21.59.59,0,0,1,0,.63,1.26,1.26,0,0,1-.53.42l-1.25.51-.5.23-.91.42-.4.18-.49.29-.36.15c-.17.06-.27.05-.31,0a.52.52,0,0,1,0-.52,2.13,2.13,0,0,1,.41-.52,2.24,2.24,0,0,0,.33-.4.45.45,0,0,0,0-.44L140,185a5.15,5.15,0,0,0-.32-.41,2.49,2.49,0,0,0-.34-.37q-.18-.15-.24-.12a2.42,2.42,0,0,1-.27-.36,4.37,4.37,0,0,0-.25-.36.61.61,0,0,0-.27-.2.36.36,0,0,0-.32.09l-.62.28-.21.1a2.29,2.29,0,0,0-.31.16l-.3.19a.54.54,0,0,0-.17.18.3.3,0,0,0,0,.41,2.12,2.12,0,0,1,.25.42,1.78,1.78,0,0,0,0,.36,4.86,4.86,0,0,0,0,.54,3.89,3.89,0,0,0,0,.51,1,1,0,0,0,0,.29.41.41,0,0,0,.26.26l.34,0a1,1,0,0,1,.37.1.86.86,0,0,1,.34.44.22.22,0,0,1,0,.21.52.52,0,0,1-.13.17l-.18.12-.15.08a.14.14,0,0,1,0,.09.26.26,0,0,1-.1.07.39.39,0,0,1-.21,0l-.19.08-.26.1-.34.11a1.18,1.18,0,0,0-.36.23,1.25,1.25,0,0,1-.35.23,1.41,1.41,0,0,0-.35.2.52.52,0,0,0-.13.12.25.25,0,0,0-.05.08s0,0-.06,0l-.33.13-.49.15a2.09,2.09,0,0,1-.47.06c-.14,0-.22,0-.26-.11a1,1,0,0,1-.06-.68.78.78,0,0,1,.45-.49l.3-.25s.06-.06.11-.13a1.86,1.86,0,0,0,.14-.25l.14-.3.12-.24a4.71,4.71,0,0,1-.07-1.17c0-.44,0-.86.05-1.26a6.54,6.54,0,0,1,0-.78c0-.27,0-.51.06-.72s0-.55,0-.81,0-.51-.07-.77-.06-.52-.08-.79,0-.55,0-.84a3.37,3.37,0,0,0-.07-.69c-.05-.23-.11-.47-.17-.71s-.11-.5-.15-.76a5.34,5.34,0,0,1-.05-.81,2.85,2.85,0,0,0,.13-.33,1.58,1.58,0,0,1,.26-.4Zm1.31,3.42a.31.31,0,0,0-.18.22,1.65,1.65,0,0,0-.06.32,1.13,1.13,0,0,0,0,.32.91.91,0,0,0,.05.21c.05.11.09.19.11.25a.44.44,0,0,1,0,.15c0,.05,0,.11,0,.19s.05.21.08.39l.07.14c0,.07.12.12.26.14a.71.71,0,0,0,.34,0l.17-.08a2.53,2.53,0,0,0,.23-.12.69.69,0,0,0,.17-.17.23.23,0,0,0,0-.21.52.52,0,0,0-.3-.3.41.41,0,0,1-.24-.2l-.37-.8a1.17,1.17,0,0,0-.21-.28C136.28,179.83,136.2,179.78,136.14,179.81Z"/>
      <path d="M144.59,171.71a2.66,2.66,0,0,1,.36-.25.65.65,0,0,1,.37-.07,1,1,0,0,1,.44,0,1,1,0,0,0,.34.08.69.69,0,0,0,.63.14,1.47,1.47,0,0,1,.59-.07,2.75,2.75,0,0,1,.67.11l.74.21.74.22a3.73,3.73,0,0,0,.66.14,4.46,4.46,0,0,1,.83.26,1.49,1.49,0,0,0,.9.09l.64.1,1.06.17c.39,0,.74.09,1.07.11a1.09,1.09,0,0,0,.68-.1c.07-.06.11-.11.11-.16a.17.17,0,0,0,0-.15.53.53,0,0,0-.13-.13.57.57,0,0,1-.11-.1l-.9-1.21a1.07,1.07,0,0,1-.16-.4,1.37,1.37,0,0,0-.26-.53l-1-1.35-.3,0-.4-.06-.37-.06a.44.44,0,0,0-.23,0l-.3.23a1,1,0,0,1-.27.11,1.32,1.32,0,0,1-.34,0h-.3a.41.41,0,0,1-.15-.05l-.37-.5a.53.53,0,0,1-.12-.31.49.49,0,0,1,.09-.28,1,1,0,0,1,.2-.22l.22-.18.3-.23a3.39,3.39,0,0,1,.32-.19l.42-.24.42-.24.35-.22,2.23-1.66a1.55,1.55,0,0,1,.71-.3.59.59,0,0,1,.63.27.9.9,0,0,1,.15.23.93.93,0,0,1,.06.31,1.49,1.49,0,0,1-.56.74c-.25.15-.47.31-.69.47l-.35.46-.27.2a.31.31,0,0,0-.08.35,1.12,1.12,0,0,0,.2.46l.47.62.09.13.71.95.56.75a1,1,0,0,0,.28.24,1.55,1.55,0,0,1,.28.24l.67.9.88,1.76a1.64,1.64,0,0,0,.23.23l.35.26.33.24a2.58,2.58,0,0,1,.23.22l.15.23a3.24,3.24,0,0,1,.21.35,1.31,1.31,0,0,1,.13.34c0,.11,0,.19-.06.23l-.22.16a3.62,3.62,0,0,1-.32.22,3.16,3.16,0,0,1-.32.16c-.1,0-.16,0-.18,0a2.65,2.65,0,0,1-.78-.26,2,2,0,0,0-.77-.24,4.71,4.71,0,0,0-.63-.15l-.54-.07a4.17,4.17,0,0,1-.51-.09,1.78,1.78,0,0,1-.52-.21,3.14,3.14,0,0,0-1.12-.36c-.43-.07-.87-.12-1.33-.16s-.91-.09-1.36-.15a4.76,4.76,0,0,1-1.21-.31.47.47,0,0,0-.16-.11,1.36,1.36,0,0,0-.28-.11,1.65,1.65,0,0,0-.32,0,.48.48,0,0,0-.27.08c-.21.15-.19.39,0,.71l.9,1.2.46.63.8.8a5.24,5.24,0,0,1,.31.46,2.17,2.17,0,0,0,.24.38.71.71,0,0,0,.52.32,1.69,1.69,0,0,0,.64-.11,4.42,4.42,0,0,0,.67-.31,6.76,6.76,0,0,1,.66-.33,1.45,1.45,0,0,1,.61-.14.56.56,0,0,1,.48.25q.09.13,0,.21a.74.74,0,0,1-.18.17l-1.82,1.36-.92.91a.74.74,0,0,0-.42.11l-.32.21-.3.23a1.31,1.31,0,0,1-.56.28,1,1,0,0,0-.47.21l-.58.43v.27l-.33.24-.16-.21a2.92,2.92,0,0,1-.23-.29q-.15-.16-.3-.36a.34.34,0,0,1,0-.33.64.64,0,0,1,.19-.29l.34-.25.11-.09,0,0,.09-.08.29-.23.67-.5a.31.31,0,0,0,.14-.21.62.62,0,0,0,0-.27.68.68,0,0,0-.08-.24l-.1-.17a.67.67,0,0,1-.14-.09.64.64,0,0,1-.22-.19,2.12,2.12,0,0,0-.32-.37,1.6,1.6,0,0,0-.26-.22l-.21-.15a1.88,1.88,0,0,1-.19-.2l-.18-.29q-.09-.18-.15-.33l-.15-.4-.8-1.07a1.16,1.16,0,0,0-.19-.21.63.63,0,0,0-.34-.14c-.1-.13-.13-.23-.1-.3a.2.2,0,0,1,.07-.1,1.22,1.22,0,0,0-.19-.13l-.27-.15-.26-.14a.45.45,0,0,1-.14-.11.76.76,0,0,0-.64-.33,6,6,0,0,0-.82.09,4.1,4.1,0,0,1-.85.06.92.92,0,0,1-.71-.42l-.09-.39c0-.1,0-.21,0-.31a.26.26,0,0,1,.11-.23Z"/>
      <path d="M161.06,156.86a.75.75,0,0,1,.4-.24.91.91,0,0,1,.4.06,1.07,1.07,0,0,1,.36.21l.27.23.28.26a2.31,2.31,0,0,1,.33.87.88.88,0,0,1-.23.81,1.28,1.28,0,0,1-.57.34,1.49,1.49,0,0,0-.66.43,1.41,1.41,0,0,0-.36.84,4.11,4.11,0,0,0,0,1.05,4,4,0,0,0,.25,1,1.57,1.57,0,0,0,.35.61l.41.38.56.52a5.25,5.25,0,0,0,.65.5,8.8,8.8,0,0,0,1,.62,4.34,4.34,0,0,0,1.11.39.84.84,0,0,0,.84-.22l.16-.4a3.23,3.23,0,0,0,.5-.7,1.59,1.59,0,0,0,.17-.85,5.26,5.26,0,0,1,0-1.18.67.67,0,0,1,.08-.3c.06-.09.11-.17.16-.23h.16a.52.52,0,0,1,.29.1,2.16,2.16,0,0,1,.52.92,7,7,0,0,1,.27,1.3,6.77,6.77,0,0,1,0,1.27,1.42,1.42,0,0,1-.26.81l-.11.12c-.1.16-.19.31-.27.46s-.15.25-.22.36a1.92,1.92,0,0,1-.16.23,1.22,1.22,0,0,1-.41.24c-.2.08-.42.15-.66.22a4.77,4.77,0,0,1-.69.15,1,1,0,0,1-.49,0,1.23,1.23,0,0,1-.42-.11l-.72-.32q-.39-.18-.75-.39a3,3,0,0,1-.5-.34l-.45-.42-.24-.06a.73.73,0,0,1-.32-.16,4.56,4.56,0,0,1-.27-.39c-.07-.1-.15-.2-.22-.31a2.23,2.23,0,0,0-.21-.25l-.33-.3a.26.26,0,0,0-.13-.07l-.2-.07-.23-.08-.3-.58-.28-.26c-.09-.23-.18-.45-.25-.64s-.12-.34-.17-.5a1.92,1.92,0,0,1-.08-.39,1.48,1.48,0,0,1-.29-.68,3.52,3.52,0,0,1,0-.8,4.88,4.88,0,0,1,.13-.84c.06-.29.13-.57.19-.86.08-.13.16-.26.23-.39s.11-.2.17-.3a1.32,1.32,0,0,1,.12-.19l.27-.3.52-.55Z"/>
      <path d="M166.74,150.19l.15-.18.17-.2.23-.28c.09-.11.2-.25.33-.44l.24-.63.11-.3a2.09,2.09,0,0,1,.08-.23,1,1,0,0,1,.09-.16.87.87,0,0,1,.28-.23,1.7,1.7,0,0,1,.39-.18,1.68,1.68,0,0,1,.61.2,2.28,2.28,0,0,0,.6.23.63.63,0,0,1,.27,0l.37,0a3.26,3.26,0,0,0,.47.09q.31.21,0,.63a.81.81,0,0,1-.36.19,6.05,6.05,0,0,0-.7.27,5.19,5.19,0,0,0-.85.5,3.6,3.6,0,0,0-.86.91l-.14.37a3,3,0,0,1,.12.36.34.34,0,0,0,.1.21l.15.1.2.24.16.18.14.12,1.19.82a1.3,1.3,0,0,0,.53.22.38.38,0,0,0,.44-.16.75.75,0,0,0,.1-.17l.12-.28.15-.36.23-.33a.59.59,0,0,0,.1-.29v-.3a2.81,2.81,0,0,1,0-.29.44.44,0,0,1,.06-.23.23.23,0,0,1,.15-.07l.24,0,.31,0,1.08.75c.31.21.37.46.18.73a.71.71,0,0,1-.29.26,1.58,1.58,0,0,1-.31.13,2.23,2.23,0,0,1-.36.2.57.57,0,0,0-.29.25l-.18.26-.23.33a.83.83,0,0,0-.22.63,1.3,1.3,0,0,0,.52.52l.41.28c.17.08.34.16.51.26a3.94,3.94,0,0,0,.46.23.9.9,0,0,0,.45.08.76.76,0,0,0,.44-.23l.63-.92a2.14,2.14,0,0,0,.26-.57,5,5,0,0,0,.14-.71c.06-.24.12-.45.18-.65a1.57,1.57,0,0,1,.21-.49l.21-.05.17,0a.14.14,0,0,1,.13,0,.42.42,0,0,1,.16.23,1.72,1.72,0,0,1,.06.34,1.8,1.8,0,0,0,.21.63c.1.17.2.32.28.47a1.12,1.12,0,0,1,.16.44.71.71,0,0,1-.15.48.77.77,0,0,1-.15.16,1.18,1.18,0,0,1-.18.13,1.46,1.46,0,0,0-.22.17,2,2,0,0,0-.23.29l-1.05,1.63-.26.65-.6.87-.34.5-.13.39-.3.52a.45.45,0,0,1-.2.14,1.15,1.15,0,0,1-.28.07l-.28,0a.47.47,0,0,1-.17,0c-.28-.19-.27-.49,0-.9l.06-.34a4.62,4.62,0,0,1,.12-.52,1,1,0,0,0,.11-.62c0-.15-.25-.35-.61-.6a.42.42,0,0,1-.13-.18c0-.08-.11-.1-.23-.07l-.18-.1a.86.86,0,0,0-.21-.07l-.26-.09-.32-.21-.59-.41-.41-.28-1.06-.93-.28-.19a.44.44,0,0,1-.12-.12.22.22,0,0,0-.11-.11l-.87-.6-.46-.32-.5-.34a.32.32,0,0,0-.35,0,.66.66,0,0,0-.26.18l-.32.46a.58.58,0,0,1-.57.28,1.6,1.6,0,0,1-.71-.29.25.25,0,0,1-.12-.21.35.35,0,0,1,.05-.25l.37-.54.23-.33a3,3,0,0,0,.19-.32,4.65,4.65,0,0,1,.33-.54Z"/>
      <rect x="236.51" width="1" height="200"/>
      <path d="M277.42,86.92V32.38h7.13V80.93h28.59v6Z"/>
      <path d="M323.25,86.92h-6.61L339,32.38h7.18l20.63,54.54h-7.69l-5.65-15H329.41Zm8.14-60.53V19.84H338v6.55Zm.17,40.07H351.4l-9.55-25.37Zm15.09-40.07V19.84h6.56v6.55Z"/>
      <path d="M373,74.66h7.06V75c0,3,1.08,5.11,3.22,6.3a17.74,17.74,0,0,0,8.54,1.78,11.5,11.5,0,0,0,7.77-2.71,9,9,0,0,0,3.14-7.13,7.38,7.38,0,0,0-2.72-5.87,31.32,31.32,0,0,0-8.19-4.47L389,61.72A35.6,35.6,0,0,1,380.33,57a16,16,0,0,1-4.3-5.2,14.18,14.18,0,0,1-1.41-6.36A14,14,0,0,1,379,35q4.38-4.23,13.71-4.23c5.68,0,9.69,1.05,12,3.16a9.72,9.72,0,0,1,3.48,7.4v.34h-7.06v-.34a4.12,4.12,0,0,0-1.08-2.65,6.16,6.16,0,0,0-3.22-1.9,17.76,17.76,0,0,0-4.69-.59q-5.25,0-7.77,2.63a8.39,8.39,0,0,0-2.52,6A8.11,8.11,0,0,0,383,49a9.71,9.71,0,0,0,3.28,3.28,65.21,65.21,0,0,0,7.06,3.5l3.34,1.41q8,3.51,10.74,7.35a14.23,14.23,0,0,1,2.65,8.25,16,16,0,0,1-2.17,8,14.38,14.38,0,0,1-6.05,5.82q-3.87,2-10.32,2a31.15,31.15,0,0,1-10.2-1.44,11.59,11.59,0,0,1-6.21-4.81A13.39,13.39,0,0,1,373,75Z"/>
      <path d="M455.71,88.56A21,21,0,0,1,439,81q-6.47-7.51-6.47-21.42T439,38.26a22.32,22.32,0,0,1,33.4,0q6.48,7.52,6.47,21.36T472.41,81A21,21,0,0,1,455.71,88.56Zm0-5.48a13.15,13.15,0,0,0,11.64-6.42q4.18-6.41,4.19-17t-4.19-17a13.71,13.71,0,0,0-23.25,0q-4.22,6.45-4.21,17t4.21,17A13.17,13.17,0,0,0,455.71,83.08Z"/>
      <path d="M521.09,75.17h6.56v.34a11.85,11.85,0,0,1-2.23,6.61A13.06,13.06,0,0,1,519.34,87a24,24,0,0,1-9,1.55,22,22,0,0,1-17-7.23q-6.62-7.24-6.62-21.71T493.32,38q6.58-7.29,17.09-7.29a23.42,23.42,0,0,1,8.93,1.58,13.1,13.1,0,0,1,6.08,5,11.9,11.9,0,0,1,2.23,6.5v.34h-6.56v-.34a6.7,6.7,0,0,0-1.27-3.84,7.63,7.63,0,0,0-3.59-2.8,15,15,0,0,0-5.59-.93q-8.37,0-12.46,6.61t-4.1,16.84q0,10.35,4.1,16.93t12.4,6.58q5.71,0,8.11-2.37a7.24,7.24,0,0,0,2.4-5.25Z"/>
      <path d="M543.92,86.92H536.8V32.38h7.12V56.63H569V32.38h7.06V86.92H569V62.11h-25.1Z"/>
      <path d="M602.86,86.92V32.38h30.86v6H610V57.19h20.74v5.49H610V86.92Z"/>
      <path d="M665.3,88.56A21,21,0,0,1,648.6,81q-6.47-7.51-6.47-21.42t6.47-21.36a22.32,22.32,0,0,1,33.4,0q6.48,7.52,6.47,21.36T682,81A21,21,0,0,1,665.3,88.56Zm0-5.48a13.15,13.15,0,0,0,11.64-6.42q4.18-6.41,4.19-17t-4.19-17a13.71,13.71,0,0,0-23.25,0q-4.22,6.45-4.21,17t4.21,17A13.19,13.19,0,0,0,665.3,83.08ZM654.06,26.39V19.84h6.55v6.55Zm15.26,0V19.84h6.61v6.55Z"/>
      <path d="M705.31,86.92h-7.12V32.38h16.9c4.14,0,7.26.6,9.35,1.78a12.74,12.74,0,0,1,5,5.18,15.12,15.12,0,0,1,1.84,7.34A15.62,15.62,0,0,1,730,52.84a17.81,17.81,0,0,1-3.48,5.31,19,19,0,0,1-6.92,4.24,12,12,0,0,1,2.63,1.84,18,18,0,0,1,2.14,2.85c.85,1.32,1.6,2.55,2.24,3.68l8.7,16.16h-8.14l-7.57-14.35a31.47,31.47,0,0,0-7.12-9.1h-7.18Zm0-28.88h7a13.23,13.23,0,0,0,6.64-1.35,9.54,9.54,0,0,0,3.62-4,12.07,12.07,0,0,0,1.33-5.54,9.87,9.87,0,0,0-1.05-4.58,8.9,8.9,0,0,0-3.11-3.39q-2.06-1.35-6.92-1.35h-7.46Z"/>
      <path d="M741.82,74.66h7.06V75q0,4.52,3.22,6.3a17.7,17.7,0,0,0,8.53,1.78,11.5,11.5,0,0,0,7.77-2.71,9,9,0,0,0,3.14-7.13,7.37,7.37,0,0,0-2.71-5.87,31.24,31.24,0,0,0-8.2-4.47l-2.88-1.18A35.7,35.7,0,0,1,749.11,57a15.75,15.75,0,0,1-4.3-5.2,14.18,14.18,0,0,1-1.41-6.36A14,14,0,0,1,747.78,35q4.38-4.23,13.7-4.23,8.53,0,12,3.16a9.72,9.72,0,0,1,3.48,7.4v.34H769.9v-.34a4.16,4.16,0,0,0-1.07-2.65,6.2,6.2,0,0,0-3.22-1.9,17.82,17.82,0,0,0-4.69-.59q-5.26,0-7.77,2.63a8.39,8.39,0,0,0-2.52,6A8.11,8.11,0,0,0,751.82,49a9.71,9.71,0,0,0,3.28,3.28,64.26,64.26,0,0,0,7.06,3.5l3.33,1.41q8,3.51,10.74,7.35a14.24,14.24,0,0,1,2.66,8.25,16,16,0,0,1-2.18,8,14.3,14.3,0,0,1-6,5.82c-2.59,1.32-6,2-10.32,2a31.07,31.07,0,0,1-10.2-1.44,11.65,11.65,0,0,1-6.22-4.81A13.46,13.46,0,0,1,741.82,75Z"/>
      <path d="M802.56,86.92V37.87H784V32.38h43.91v5.49H809.63V86.92Z"/>
      <path d="M860.94,32.38l20.63,54.54h-7.69l-5.65-15H844.15l-6.16,15h-6.61l22.38-54.54A7.61,7.61,0,0,1,851.53,30a6.08,6.08,0,0,1-.76-3.05,6.39,6.39,0,0,1,1.89-4.6,6.45,6.45,0,0,1,9.24,0,6.33,6.33,0,0,1,1.92,4.6,6.41,6.41,0,0,1-.71,3A7.57,7.57,0,0,1,860.94,32.38ZM846.3,66.46h19.84l-9.55-25.37ZM854,26.9a3.18,3.18,0,0,0,.94,2.32,3.12,3.12,0,0,0,2.34,1,3.19,3.19,0,0,0,2.29-1,3.2,3.2,0,0,0,0-4.63,3.16,3.16,0,0,0-2.29-1,3.07,3.07,0,0,0-2.34,1A3.22,3.22,0,0,0,854,26.9Z"/>
      <path d="M288.5,176.92V129.17l-11.08,4.35v-6.05l11.08-5.09h6.56v54.54Z"/>
      <path d="M323,176.92h-7.07v-2.37A42.8,42.8,0,0,1,317.58,163q1.65-5.85,8.54-16.11t11.7-16.81l1.24-1.7H308.82v-6h36.85v6a12.19,12.19,0,0,0-.9,1.36l-5,6.73A132.49,132.49,0,0,0,330,152q-5,9.18-6,13.93a42.34,42.34,0,0,0-1,8.25Z"/>
      <path d="M370.59,178.56q-8.88,0-14.38-7.77t-5.51-21.17q0-13.34,5.51-21.1t14.38-7.77q8.93,0,14.44,7.77t5.51,21.1q0,13.4-5.51,21.17T370.59,178.56Zm0-5.48q6.95,0,10-7.12a44.78,44.78,0,0,0,0-32.64q-3.08-7.15-10-7.15t-10,7.15a44.78,44.78,0,0,0,0,32.64Q363.7,173.07,370.59,173.08Z"/>
      <path d="M419.87,178.56q-8.88,0-14.39-7.77T400,149.62q0-13.34,5.51-21.1t14.39-7.77q8.92,0,14.44,7.77t5.51,21.1q0,13.4-5.51,21.17T419.87,178.56Zm0-5.48q6.94,0,10-7.12a44.78,44.78,0,0,0,0-32.64q-3.09-7.15-10-7.15t-10,7.15a44.78,44.78,0,0,0,0,32.64Q413,173.07,419.87,173.08Z"/>
      <path d="M448,157.54v-5.43h21.81v5.43Z"/>
      <path d="M493.44,176.92v-49H474.85v-5.49h43.91v5.49H500.5v49Z"/>
      <path d="M528.87,176.92h-6.61l22.38-54.54h7.17l20.63,54.54h-7.68l-5.66-15H535Zm8.31-20.46H557l-9.55-25.37Z"/>
      <path d="M580,176.92V122.38h7.12v48.55h28.6v6Z"/>
      <path d="M623.24,176.92V122.38H654.1v6H630.36v17.18H651.1V151H630.36v19.89H656v6Z"/>
      <path d="M680.48,176.92v-49H661.89v-5.49H705.8v5.49H687.55v49Z"/>
    </g>
  </g>
</svg>