<svg xmlns="http://www.w3.org/2000/svg" viewBox="0 0 1050.09 327.84">
  <g id="full-logo" data-name="Layer 2">
    <g id="Layer_1-2" data-name="Layer 1">
      <path d="M232.5,232.21c40.51-18,77.8-57.61,114.35-76.92-41.09,18.14-62,51.77-123.27,51.77-44.16,0-64.34-19.89-64.34-43,0-32,38.75-70.19,106-70.19,19.74,0,31.58,7.75,36.26,18.42,6.44-.58,13-1,20-1,34.65,0,50.59,15.5,52.64,32.75a88.68,88.68,0,0,1,20.18-2.34,72.07,72.07,0,0,1,16.81,1.91l-1,3.65a56.23,56.23,0,0,0-17.84-2.78,73.18,73.18,0,0,0-17.84,2.2V148c0,19.89-17.4,41.09-45.18,44.6C327.55,203.11,311,222.71,311,233.67c0,4.68,1.9,6.44,4.68,6.44,3.51,0,8.18-2.64,11.84-4.83,7-4.24,16.09-10.67,26.32-17.4l.59,1.17c-10.09,6.58-19,13-26.47,17.55-6.29,3.8-12.28,5.85-17.11,5.85-6.73,0-11.11-3.95-11.11-12.58,0-9.07,18.28-27.2,23.69-36.85h-2.34c-5.12,0-7.61-2.05-7.61-4.24,0-2.92,3.8-4.68,7.75-4.68,4.1,0,8.19,1.9,8.19,6.87,22.23-3.94,39-24.12,40.21-43.13a123.11,123.11,0,0,0-34.21,16.23c-38.17,25.88-50,60.68-91,74.13,27.05,13.17,53.81,25.89,79.26,32a220.33,220.33,0,0,0,52.79,6.29A256.4,256.4,0,0,0,412.36,274c-9.65-7-15.35-15.94-15.35-26.9,0-21.35,21.79-34.51,42.7-34.51,19.59,0,38.6,11.55,38.6,39V253C524.08,228.26,551,186.44,551,138.33c0-27.64-9.21-50.59-24.28-69-6.72-.58-13.6-.88-20.91-.88C435,68.43,370,97,301.23,97c-32.32,0-54.4-18.86-54.4-39.92,0-36.12,53.23-57,115.38-57C423.92,0,494.4,20.76,529.64,68.29c87.15,7.6,124.44,57,124.44,101.19C654.08,253.12,558,291,483.28,291c-6.14,0-12-.29-17.69-.73-19.16,25.15-58.2,37.58-102.8,37.58-56,0-120.78-19.59-166-57.9l.59-.88c43,35.68,109.08,55,166.26,55,42.84,0,80.57-11,99.87-34.07-18.86-1.75-35.53-6.29-47.38-13.45a219.19,219.19,0,0,1-33,2.48,256.2,256.2,0,0,1-59.66-7.16c-25.59-6.14-53.08-19.3-81-33-10.39,3.07-22.67,5-37.58,5-30.27,0-39.63-7-39.63-14s9.5-14.33,16.23-14.33a3.2,3.2,0,0,1,3.51,3.37c0,3.8-4.54,9.79-15.21,11.55a2,2,0,0,0-1.32,1.75c0,7.61,20.77,9.22,24.86,9.22,12.72,0,25.15-3.08,37.44-8.34-39.34-19.45-78.82-38.31-114.06-38.31-75.6,0-112.3,34.07-112.3,61.27,0,18,16.08,32.9,47.67,32.9A81.55,81.55,0,0,0,68,287.05l2.19,5.11a85.86,85.86,0,0,1-16.38,1.76C18.42,293.92,0,276.81,0,256.63,0,228,37.29,193.46,116.69,193.46,153.1,193.46,192.87,212.62,232.5,232.21ZM302,113.47A28.06,28.06,0,0,1,304,124c0,23.4-25.3,51.77-70.34,51.77-12.57,0-18.42-5.12-18.42-12.43,0-16.24,29.68-43.73,81.88-50.45-1.75-10.09-11.4-17.4-33-17.4-64.64,0-103.24,37.28-103.24,68.58,0,22.37,19.74,41.67,64.19,41.67,63.47,0,83.94-39.77,135.27-57.61,3.21-1.17,6.28-2,9.5-2.93-.44-17.25-14.33-32.75-49.57-32.75A182.77,182.77,0,0,0,302,113.47Zm-70.77,60.25c30.56,0,66.24-34.37,66.24-57.47,0-.73-.15-1.61-.15-2.34C246.54,120.64,217,148.57,217,163.78,217,169.77,221.54,173.72,231.19,173.72ZM248,57c0,20.47,21.5,38.75,53.23,38.75,71.21,0,136.14-28.52,204.57-28.52,6.88,0,13.46.3,19.89.74C489.43,24.71,420.26,5.85,360,5.85,299.48,5.85,248,24.86,248,57Zm71.8,128.53c-2.34,0-4.53,1-4.53,2.93,0,1.61,2,3.21,6.43,3.21H324a6.46,6.46,0,0,0,.88-2.92C324.92,186.73,322.29,185.56,319.8,185.56Zm157.34,66.1c0-26.76-18.42-38-37.43-38-20.33,0-41.53,12.87-41.53,33.49,0,11,6.14,19.88,16.67,26.46a195.42,195.42,0,0,0,62.15-20C477,253,477.14,252.24,477.14,251.66Zm-58.05,24.42c12,6.14,28.22,9.94,46.65,11.11a58.22,58.22,0,0,0,11.11-30.56C459.89,265.84,440.44,272.42,419.09,276.08Zm60.54,11.7c74.57,0,173.28-37.88,173.28-118.3,0-43.43-36.71-92-122.39-99.88,13.59,18.72,21.64,41.53,21.64,68.73,0,49.13-28.23,92.42-74,117.57a61.22,61.22,0,0,1-10.53,31.44C471.59,287.63,475.53,287.78,479.63,287.78Z"/>
      <path d="M401.52,217.88l.59,1.17c-11.85,7.75-22.23,15.35-30.42,19.74-5.26,2.78-12.13,4.83-17.69,4.83s-10.24-2.2-10.24-7.75c0-11.85,21.35-37.73,49.72-37.73,2.78,0,3.95.88,3.95,2.34,0,4.68-13.45,14.91-32.9,17.84-7.9,7.75-14.19,15.79-14.19,19.45,0,3.07,2.49,4.09,5.85,4.09,4.68,0,11.12-2.05,14.92-4.24C378.13,233.67,389.09,226.07,401.52,217.88Zm-8-18.57c-6.14,0-18,8.63-27.78,17.84,15.5-2.34,30.27-12.72,30.27-16.53C396,199.75,395.24,199.31,393.48,199.31Z"/>
      <path d="M399.76,219.05c24.28-15.94,34.07-25.15,37.88-29.54a42.46,42.46,0,0,0,3.8-6.58l5.26,2.19c-11.7,2.64-1.61,27.5-17.55,44.6,5.71-.58,13-3.36,25.89-11.84l.58,1.17c-14,9.5-21.64,12-27.93,12.14a40.58,40.58,0,0,1-12.57,8C411,241,404.3,243,398.74,243c-6.14,0-9.36-2.34-9.36-5.26,0-4.1,6.58-9.22,20.18-9.22a63.44,63.44,0,0,1,8.19.59c11.4-12.14,17.69-31.15,19.74-37.73-4.24,4.54-14.48,14-36.7,28.52Zm-8.19,18c0,1.61,1.47,2.78,4.24,2.78,8.19,0,15.21-3.94,20.92-9.65a54.43,54.43,0,0,0-7.17-.44C397,229.72,391.57,234.11,391.57,237Z"/>
      <path d="M453.28,219.05c24.27-15.94,34.07-25.15,37.87-29.54a41.6,41.6,0,0,0,3.8-6.58l5.27,2.19c-12.29,2.64-.73,29.69-19.74,46.8,11,4.82,16.81,14.33,16.81,25,0,31.3-30.27,45.77-64.78,45.77-45.62,0-98.7-25.3-98.7-70.63A65.68,65.68,0,0,1,336,215.69l1.32.29a65.47,65.47,0,0,0-2.19,16.23c0,44.31,50.88,68.58,95.19,68.58,34.07,0,64.19-14.33,64.19-45.18,0-9.8-5.26-18.43-15.2-22.82a40,40,0,0,1-10.68,6.44c-4.09,1.75-10.82,3.8-16.38,3.8-6.14,0-9.35-2.34-9.35-5.26,0-4.1,6.58-9.22,20.17-9.22a45.56,45.56,0,0,1,8.05.74C482.67,217.15,489,198.14,491,191.41c-4.24,4.54-14.47,14-36.7,28.52Zm-8.19,18c0,1.61,1.46,2.78,4.24,2.78,8.19,0,15.06-3.94,20.76-9.5a35.74,35.74,0,0,0-7-.59C450.5,229.72,445.09,234.11,445.09,237Z"/>
      <path d="M556.22,217.88l.58,1.17c-11.84,7.75-22.22,15.35-30.41,19.74-5.27,2.78-12.14,4.83-17.7,4.83s-10.23-2.2-10.23-7.75c0-4.39,3.21-11,8.48-17.26-44.31-1.75-63.32-16.52-63.32-33.19,0-22.52,35.24-48.11,90.22-48.11,35.24,0,70.49,9.94,70.49,9.94l-.74,1.76s-31.14-9.51-61-9.51c-55.42,0-93.3,26-93.3,48,0,14.92,17.4,27.93,58.64,29.83,8.92-9.94,23.25-19.15,40.21-19.15,2.78,0,4,.88,4,2.34,0,4.68-13.45,14.91-32.9,17.84-7.9,7.75-14.18,15.79-14.18,19.45,0,3.07,2.48,4.09,5.85,4.09,4.68,0,11.11-2.05,14.91-4.24C532.82,233.67,543.79,226.07,556.22,217.88Zm-8.05-18.57c-6.14,0-18,8.63-27.78,17.84,15.5-2.34,30.27-12.72,30.27-16.53C550.66,199.75,549.93,199.31,548.17,199.31Z"/>
      <path d="M617.77,199.75a5.57,5.57,0,0,0-2,.44c-10,3.8-30.13,17.84-42.85,27.19L559,241.57c-6.58,0-13.31.73-13.31.73l-.44-.88c9.36-6.87,43.58-35.82,43.58-42.11,0-.44-.29-.73-.88-.73-1.9,0-16.52,10.53-24.27,15.79l-8.19,5.56-1-.88,8.92-6c12.13-8.33,24.12-17.1,29.1-17.1,2,0,2.77,1.31,2.77,2.92,0,3.22-4.67,9.65-18,23.84,14.77-10.53,36.26-25,43.28-25,2.2,0,3.66,1.46,3.66,4,0,2.78-4.68,8.48-19.45,23.83C619.38,215,644.24,197.7,652,197.7c2.19,0,3.66.88,3.66,3.36,0,14-33.2,32.9-33.2,38.46,0,1.61.73,2.34,2.2,2.34,5.41,0,20.61-10.82,40.5-24l.59,1.17c-19.45,12.87-35.39,24.57-43,24.57-3.08,0-5.42-2.49-5.42-7,0-9.8,34.51-32.76,34.51-36.85,0-.3-.29-.44-.73-.44-8,0-37.72,21.35-51.32,31.44l-10.68,10.82c-6.58,0-13.3.73-13.3.73l-.44-.88c9.36-6.87,43.72-35.68,43.72-40.8C619.09,200,618.5,199.75,617.77,199.75Z"/>
      <path d="M659.58,239.81a17.49,17.49,0,0,0,6.88-1.9,77.79,77.79,0,0,0,15.06-9.65,3.33,3.33,0,0,1-.59-2c0-4.53,7.61-9.35,13.75-9.65,5.85-6,10.23-12,11.11-15.79,1.9,0,10.24-.29,12.14-.88l.44.73s-7.17,3.51-10.53,6.44c-5.7,4.82-14.77,13.6-24.13,21.06.88.58,2.63.87,5,.87,4.83,0,12.14-1.75,20.47-7.31l5.71-3.8.58,1.17L710,222.71c-7.89,5.41-16.08,7.74-21.79,7.74-2.48,0-4.67-.43-5.84-1.31-5.42,4.09-10.68,7.75-15.65,10.09a17.41,17.41,0,0,1-7.31,1.9c-3.37,0-5.56-1.76-5.56-5.26,0-5.42,4.68-12.29,11.41-19.45,35.53-37.15,68.72-82.18,126.34-94.32l.58,2.78c-61.27,9.94-84.08,60.83-122.24,98.56-8.63,8.48-13.31,11.55-13.31,14.62C656.66,239.23,657.83,239.81,659.58,239.81Z"/>
      <path d="M710.17,240c3.08,0,8.05-1.32,14.48-5.12,3.22-1.9,6.87-4.53,11-7.16L751,217.44l.59,1.17L736.5,228.7q-6.15,4.17-11.41,7.46c-6.29,3.8-11.11,5.26-14.62,5.26-4.54,0-6.88-2.48-6.88-5.55,0-14.19,31.88-37,48.26-54.69,14.62-15.65,41.24-41,51.76-41,2.2,0,3.22,1.17,3.22,3.07,0,9.65-25.15,39.78-69.31,61.71-20.33,23.11-31.15,28.37-31.15,33.05C706.37,239.08,707.69,240,710.17,240Zm92.42-97.68c-6.43,0-24.57,14.77-40.5,31.44-8.19,11.55-15.65,20.76-22.08,28.37,46.2-25.3,64.19-50.74,64.19-57.91C804.2,142.86,803.61,142.28,802.59,142.28Z"/>
      <path d="M784,220.66c-12.58,9.21-30.86,21.49-39.92,21.49-3.08,0-4.68-2-4.68-5.41,0-11.84,20-39.19,60.1-39.19,2,0,4.38.15,7.16.15a82.45,82.45,0,0,0,11.26-.73l.29.44c-6.14,5.41-18.13,17.84-31.14,30.71-5,5-7.32,8.48-7.32,10.38,0,.87.44,1.31,1.61,1.31,1.9,0,5.56-1.31,10.68-4.53,6.87-4.39,16.08-10.67,26.32-17.4l.58,1.17c-10.09,6.58-19,12.87-26.46,17.55-5.12,3.21-10.09,4.82-13.6,4.82s-5.71-1.46-5.71-4.39c0-2.77,2-6.87,6.73-12Zm20.76-21.21c0-.29-.15-.58-.88-.58h-5.7c-20.76,0-54.1,33.19-54.1,40.36,0,.88.58,1.32,1.6,1.32,8.34,0,31-15.94,43.58-25.3,5-5.12,10.24-10.24,15.35-15.36A.62.62,0,0,0,804.78,199.45Z"/>
      <path d="M839.72,222.41c14.77-10.53,35.83-24.71,42.84-24.71,2.2,0,3.66.88,3.66,3.36,0,14-33.19,32.9-33.19,38.46,0,1.61.73,2.34,2.19,2.34,5.41,0,20.62-10.82,40.5-24l.59,1.17c-19.45,12.87-35.39,24.57-43,24.57-3.07,0-5.41-2.49-5.41-7,0-9.8,34.51-32.76,34.51-36.85,0-.3-.29-.44-.73-.44-7.17,0-31.59,17-46.5,27.78q-5.93,6.36-14,14.48c-6.58,0-13.31.73-13.31.73l-.44-.88c9.36-6.87,43.58-35.82,43.58-42.11,0-.44-.29-.73-.88-.73-1.9,0-16.52,10.53-24.27,15.79l-8.19,5.56-1-.88,8.92-6c12.13-8.33,24.12-17.1,29.1-17.1,2,0,2.77,1.31,2.77,2.92C857.41,202.09,852.88,208.37,839.72,222.41Z"/>
      <path d="M929.2,207.06c0-2.49,3.22-6.14,8.63-6.14a11.62,11.62,0,0,1,2.2.14,9.21,9.21,0,0,0,.29-1.75c0-1.9-1.17-2.63-2.78-2.63-11.7,0-44.6,30.56-44.6,41.38,0,2.34,1.46,3.8,5.12,3.8,4.68,0,11.11-2.05,14.91-4.24,7-4,18-11.55,30.42-19.74l.58,1.17c-11.84,7.75-22.22,15.35-30.41,19.74-5.27,2.78-12.14,4.83-17.7,4.83-7,0-10.09-2.93-10.09-7.46,0-13.6,27.5-40.95,50.74-40.95,3.66,0,5.13,1.76,5.13,4.1,0,4.09-4.68,9.94-9.66,9.94C930.08,209.25,929.2,208.37,929.2,207.06Z"/>
      <path d="M991.05,217.88l.59,1.17c-11.85,7.75-22.23,15.35-30.42,19.74-5.26,2.78-12.13,4.83-17.69,4.83s-10.24-2.2-10.24-7.75c0-11.85,21.35-37.73,49.72-37.73,2.78,0,4,.88,4,2.34,0,4.68-13.45,14.91-32.9,17.84-7.9,7.75-14.19,15.79-14.19,19.45,0,3.07,2.49,4.09,5.85,4.09,4.68,0,11.11-2.05,14.92-4.24C967.66,233.67,978.62,226.07,991.05,217.88Zm-8-18.57c-6.14,0-18,8.63-27.78,17.84,15.5-2.34,30.27-12.72,30.27-16.53C985.5,199.75,984.77,199.31,983,199.31Z"/>
      <path d="M990.32,219.93l-1-.88,6.14-4.09c7.76-5.27,15.07-7.46,21.35-7.46,16.53,0,26.62,13.74,26.62,29.68,0,22.67-20.18,50-70.49,50-39.18,0-109.52-21.06-181-21.06-49.14,0-98.86,9.95-139.51,43.43l-1-.43c36.56-37.59,85.54-48.84,134.82-48.84,74.43,0,150,25.73,186,25.73,50,0,69.75-26.9,69.75-49,0-15.2-9.5-28.07-25-28.07-6.29,0-13.74,2.34-21.79,7.75Z"/>
      <path d="M662.57,93.05v.48l-.34.29-1.86.11-.26.49-.42.06-.14.49-.63,1.15-.84,1.15V98l-.63.81.07.66-.51,1.07-.23.22-.4.9-.12.77-.3.52-.78,1v.53l-.32.43-.24.59-.7,1.89-.4.6-.45.77-.12.46-.22.36,0,.56-.57.66-.1.82.1.34-.5.8-1.17-.14-.24-.23-.23-1-.66-.54.06-1.35-.69-.14-.26-.37.06-.44.18-.19,0-.41-.26-.84-.41-.31,0-.45-.44-.47-.26-.65v-.47L647,104l-.78-1.22-.18-.82-.52-.53-.66-1.15-.63-2,.21-.29-.87-1.17L643,96l.08-.71-.45-.36-.3-.66V94l-.48-.43-.7-.25h-.74l-.18.19h-.46l-.37-.48-.06-.56.61-.51h1.15l.2.11h.92l.21-.11.13.11,2,0,1.52-.15.52-.19.27.19.17-.19h1.17l.07.28v.26l-.35.32-.64.7-.42.08-.47.25v.64l.3,1.37.52.41v.66l.51.81.1.52.37.42.37,1.07,1.34,2.67.11.81.49.52,0,.51.34.36.25.39,0,.61.34.35.33.54.07.49.37-.11v-.47l.11-.49L653,105l.22-1.2.7-1,.08-.71.18-.29.45-1.52.76-1.36.23-.37,0-.44.46-.46-.08-.51.22-.67.36-.34.2-1v-.73l-.57-.71-.29-.15h-1.2l-1-.25-.44-.78.21-.47.16-.2h1.91l.92.37.34-.14,2.29.1.68-.18.47.22,1.54-.33.49.26Z"/>
      <path d="M673.88,111.57a.38.38,0,0,1-.16.32.48.48,0,0,1-.28.12h-2a7.68,7.68,0,0,0-.81.2,2.24,2.24,0,0,1-.52.09.6.6,0,0,1-.23-.06l-.48-.23a.35.35,0,0,0-.24,0,1.43,1.43,0,0,1-.28.07h-1.47a1,1,0,0,1-.38-.1,1.19,1.19,0,0,1-.51-.4,1.59,1.59,0,0,1-.16-.32,1,1,0,0,1-.05-.35,1,1,0,0,1,.17-.58,1.29,1.29,0,0,1,.67-.45,2.19,2.19,0,0,1,.44-.08l.51-.09a5.4,5.4,0,0,0,.49-.23,1.33,1.33,0,0,1,.06-.44,2.74,2.74,0,0,0,.06-.73,4.64,4.64,0,0,0,0-.63,8.83,8.83,0,0,0-.23-1,.68.68,0,0,1,0-.22,1,1,0,0,1,.06-.3l.11-.19a.9.9,0,0,0,.11-.27.41.41,0,0,0-.06-.22.72.72,0,0,1-.07-.26v-.94a3,3,0,0,1,0-.37c0-.15,0-.23,0-.24a1.28,1.28,0,0,0,0-.22,1.28,1.28,0,0,1-.14-.21s0-.12,0-.26a2.49,2.49,0,0,0,0-.36v-.16a.5.5,0,0,1,0-.16s0-.08-.08-.13a.26.26,0,0,1-.09-.13,1.59,1.59,0,0,1,0-.31,13,13,0,0,1,.14-1.53,3.64,3.64,0,0,1,.1-.63,2.07,2.07,0,0,0,0-.41,1.49,1.49,0,0,0,0-.35,2.43,2.43,0,0,1-.05-.39.3.3,0,0,1,.07-.16.3.3,0,0,0,.08-.17V95.49a.21.21,0,0,1,.12-.21l0-.79-.13-.26.17-.1v-.29a1.65,1.65,0,0,0-.43-.12l-.55-.11a4.26,4.26,0,0,1-1-.37,1.13,1.13,0,0,1-.43-.44,1.26,1.26,0,0,1-.16-.67.83.83,0,0,1,.23-.65.89.89,0,0,1,.65-.2l1,.36a9.15,9.15,0,0,0,1.26.39H671a.9.9,0,0,1,.35-.11l.45,0h.31a2.64,2.64,0,0,1,.49.1l.46.08a1,1,0,0,1,.31.09.42.42,0,0,1,.17.15.35.35,0,0,1,.05.2.72.72,0,0,1-.56.78.69.69,0,0,1-.3,0,.87.87,0,0,0-.33,0,.76.76,0,0,0-.29.19,2.35,2.35,0,0,0-.22.3,1.08,1.08,0,0,0-.12.54v1.56a.29.29,0,0,0,.08.22.25.25,0,0,1,.07.15v2.81a.48.48,0,0,0,.08.2l.08.13q0,.23,0,.48c0,.17,0,.34,0,.51a1.25,1.25,0,0,1-.13.45.75.75,0,0,0-.1.27l.05,1.88.06.26-.06.37.16.26-.21.37v1.59a.31.31,0,0,0,.08.23.25.25,0,0,1,.07.15v2.66a.94.94,0,0,0,0,.33,1,1,0,0,1,.23.22,3.17,3.17,0,0,1,.21.43,1.74,1.74,0,0,0,.25.45,1.16,1.16,0,0,0,.36.1.7.7,0,0,1,.33.11c.13.17.25.35.37.53A1,1,0,0,1,673.88,111.57Z"/>
      <path d="M697.55,92.74l-.12.77-.26.89c-.1.27-.17.47-.23.61a3.71,3.71,0,0,1-.31.53.72.72,0,0,1-.6.33,1.1,1.1,0,0,1-.66-.29l-.3-.36-.48-.42a3.77,3.77,0,0,0-.52-.37h-.49a.45.45,0,0,1-.16,0,1.94,1.94,0,0,0-.34-.11l-.44-.12-.36-.12a1.24,1.24,0,0,0-.48-.16h-2.13l-.26.3a.45.45,0,0,0-.12.28.81.81,0,0,0,.12.22,1.25,1.25,0,0,1,.17.35,1.45,1.45,0,0,1,0,.37v.69a8.39,8.39,0,0,1-.27,1.29,2.37,2.37,0,0,1-.22.64l.22,1v.67l-.22.41v1.11a.43.43,0,0,0,.1.23,1,1,0,0,1,.21.47v.77l.08.26-.08,1.7v.26a1.39,1.39,0,0,1,0,.32.74.74,0,0,1-.15.27.48.48,0,0,0-.13.27,1.53,1.53,0,0,0,0,.3,3.89,3.89,0,0,0,.11.43l.15,1a3.68,3.68,0,0,1,0,.45,2.12,2.12,0,0,0,.06.56.42.42,0,0,0,.24.29.56.56,0,0,1-.08.15.31.31,0,0,0-.06.19.9.9,0,0,0,.44.66l.41.26a3.84,3.84,0,0,1,.42.31,2.52,2.52,0,0,1,.33.33,1.26,1.26,0,0,1,.26.77v.37a.61.61,0,0,1-.15.26.54.54,0,0,1-.22.15.62.62,0,0,1-.33,0,1.3,1.3,0,0,0-.32-.08h-1.09l-.88,0-.85-.12a.21.21,0,0,1-.18-.1.19.19,0,0,0-.18-.08,1,1,0,0,0-.18.16c-.1.11-.38.16-.83.16h-1l-.84,0-.7-.09a5.91,5.91,0,0,1-.65-.15,1.62,1.62,0,0,1-.42-.19.55.55,0,0,1-.23-.28,2,2,0,0,1,0-.48q0-.51.18-.54c.13,0,.23-.2.3-.5a2.47,2.47,0,0,0,.43-.05,6.09,6.09,0,0,1,.78-.11h.24a.71.71,0,0,0,.32-.17A1.82,1.82,0,0,0,685,109a1.71,1.71,0,0,0,.18-.74l-.15-.54a3.12,3.12,0,0,1-.16-.8.72.72,0,0,1,.13-.44l.33-.37a1,1,0,0,0,0-.42,4,4,0,0,1-.06-.65,2.9,2.9,0,0,1,.07-.37,1.09,1.09,0,0,0,0-.26.66.66,0,0,0-.07-.23.71.71,0,0,1-.08-.28v-2.55a.41.41,0,0,1,0-.19c.07-.19.11-.3.11-.31a.31.31,0,0,0-.05-.18,1.62,1.62,0,0,1-.1-.18,4.41,4.41,0,0,1,0-.52c0-.18,0-.33.08-.46a2.14,2.14,0,0,1,.13-.38.69.69,0,0,0,.1-.27V97.67a1.52,1.52,0,0,1,0-.32.83.83,0,0,1,.05-.2.39.39,0,0,0,0-.14v-.17l-.18-1.2v-.78l.18-.43-.35-.36a.54.54,0,0,0-.41-.19.53.53,0,0,0-.37.12l-.26.23a.8.8,0,0,1-.46.13.64.64,0,0,1-.31-.13l-.21-.13a.6.6,0,0,0-.26,0,.46.46,0,0,0-.23.06l-.2.12-.78.27a3.79,3.79,0,0,1-.94.18h-.55a.2.2,0,0,0-.06.14.88.88,0,0,1-.18.35,10.67,10.67,0,0,1-.73.91q-.48.54-.84.87a2.65,2.65,0,0,0-.24.24.66.66,0,0,1-.43.26.71.71,0,0,1-.68-.5A2.73,2.73,0,0,1,677,96a1,1,0,0,1,.19-.64,1.78,1.78,0,0,0,.3-.46,3.31,3.31,0,0,0,.1-.48,2.1,2.1,0,0,1,.16-.56,3,3,0,0,1,.29-.54c.13-.21.24-.39.33-.52a2,2,0,0,1,.33-.32,1.56,1.56,0,0,0,.3-.25l.06-.37a2.48,2.48,0,0,1,.5-.31l.59-.27,1.73.06.48.16.26-.16.41-.06a1,1,0,0,0,.2.15,2.24,2.24,0,0,0,.74.28,2,2,0,0,0,.36,0h4.56l1.88.26.33-.2,1.79-.06a3.23,3.23,0,0,1,.89.29,1.62,1.62,0,0,0,.55.15,2.12,2.12,0,0,0,.44.05,1.55,1.55,0,0,0,.31,0,2.19,2.19,0,0,0,.48-.13l.62-.2.39-.12.09,0a.84.84,0,0,1,.57.36A1,1,0,0,1,697.55,92.74Z"/>
      <path d="M721.83,92.74l-.13.77-.26.89c-.09.27-.17.47-.23.61a2.94,2.94,0,0,1-.3.53.74.74,0,0,1-.6.33,1.05,1.05,0,0,1-.66-.29l-.31-.36-.47-.42a4.49,4.49,0,0,0-.52-.37h-.49a.45.45,0,0,1-.16,0,1.94,1.94,0,0,0-.34-.11,3.74,3.74,0,0,0-.45-.12l-.36-.12a1.16,1.16,0,0,0-.47-.16H714l-.26.3a.47.47,0,0,0-.13.28,1,1,0,0,0,.13.22,1.25,1.25,0,0,1,.17.35,1.45,1.45,0,0,1,0,.37v.69a7.73,7.73,0,0,1-.28,1.29,2.54,2.54,0,0,1-.21.64l.22,1v.67l-.22.41v1.11a.48.48,0,0,0,.09.23,1,1,0,0,1,.22.47v.77l.07.26-.07,1.7v.26a1.39,1.39,0,0,1,0,.32.74.74,0,0,1-.15.27.42.42,0,0,0-.13.27,1.53,1.53,0,0,0,.05.3c0,.14.06.28.1.43l.16,1c0,.07,0,.22,0,.45a2.12,2.12,0,0,0,.06.56.43.43,0,0,0,.25.29,1.15,1.15,0,0,1-.08.15.31.31,0,0,0-.06.19.9.9,0,0,0,.44.66l.41.26a3.84,3.84,0,0,1,.42.31,2.52,2.52,0,0,1,.33.33,1.26,1.26,0,0,1,.26.77v.37a.48.48,0,0,1-.7.37,1.45,1.45,0,0,0-.33-.08h-1.08l-.88,0-.85-.12a.21.21,0,0,1-.18-.1.19.19,0,0,0-.18-.08,1,1,0,0,0-.18.16c-.11.11-.38.16-.83.16h-1.06l-.84,0L708,112a5.91,5.91,0,0,1-.65-.15,1.62,1.62,0,0,1-.42-.19.55.55,0,0,1-.23-.28,1.6,1.6,0,0,1,0-.48q0-.51.18-.54c.13,0,.22-.2.3-.5a2.47,2.47,0,0,0,.43-.05,5.87,5.87,0,0,1,.78-.11h.24a.69.69,0,0,0,.31-.17,1.92,1.92,0,0,0,.61-1.33c-.05-.18-.11-.36-.16-.54a3.47,3.47,0,0,1-.15-.8.78.78,0,0,1,.12-.44l.34-.37a1,1,0,0,0,0-.42,4.13,4.13,0,0,1-.07-.65s0-.15.08-.37a1.09,1.09,0,0,0,0-.26.77.77,0,0,0-.08-.23.67.67,0,0,1-.07-.28v-2.55a.41.41,0,0,1,0-.19c.07-.19.11-.3.11-.31a.41.41,0,0,0-.05-.18,1.62,1.62,0,0,1-.1-.18,4.41,4.41,0,0,1,0-.52,3.93,3.93,0,0,1,.08-.46,1.56,1.56,0,0,1,.13-.38.81.81,0,0,0,.09-.27V97.67a2.73,2.73,0,0,1,0-.32,1.67,1.67,0,0,1,.06-.2.39.39,0,0,0,0-.14v-.17l-.18-1.2v-.78l.18-.43-.35-.36a.54.54,0,0,0-.41-.19.53.53,0,0,0-.37.12l-.26.23a.82.82,0,0,1-.46.13.71.71,0,0,1-.32-.13,1,1,0,0,0-.2-.13.63.63,0,0,0-.26,0,.44.44,0,0,0-.23.06l-.2.12-.79.27a3.73,3.73,0,0,1-.93.18h-.55a.2.2,0,0,0-.06.14.94.94,0,0,1-.19.35,7.77,7.77,0,0,1-.73.91c-.32.36-.6.65-.83.87l-.25.24a.62.62,0,0,1-.43.26.69.69,0,0,1-.67-.5,2.7,2.7,0,0,1-.14-.94,1,1,0,0,1,.2-.64,1.78,1.78,0,0,0,.3-.46,3.31,3.31,0,0,0,.1-.48,2.61,2.61,0,0,1,.15-.56,3.73,3.73,0,0,1,.29-.54l.34-.52a1.44,1.44,0,0,1,.33-.32,1.56,1.56,0,0,0,.3-.25l.06-.37a2.23,2.23,0,0,1,.5-.31l.59-.27,1.73.06.48.16.26-.16.41-.06a.8.8,0,0,0,.2.15,2.16,2.16,0,0,0,.74.28,2,2,0,0,0,.36,0h4.56l1.88.26.32-.2,1.8-.06a3.23,3.23,0,0,1,.89.29,1.57,1.57,0,0,0,.55.15,2.12,2.12,0,0,0,.44.05,1.63,1.63,0,0,0,.31,0,2,2,0,0,0,.47-.13l.62-.2a2.66,2.66,0,0,0,.39-.12l.1,0a.84.84,0,0,1,.57.36A1,1,0,0,1,721.83,92.74Z"/>
      <path d="M742.69,107.78a1.45,1.45,0,0,0-.25.66c0,.09,0,.22-.05.38-.19.29-.36.58-.52.87a7.41,7.41,0,0,0-.4,1,1.35,1.35,0,0,0,0,.2,1.1,1.1,0,0,0,.1.4,1.22,1.22,0,0,1,.09.32.68.68,0,0,1-.29.64,1.64,1.64,0,0,1-.8.17,2.19,2.19,0,0,1-.69-.1l-.57-.19a.73.73,0,0,0-.25,0,1,1,0,0,0-.25.26h-2.61l-.11-.06a3,3,0,0,0-1-.23h-2.41l-.34-.13a1.1,1.1,0,0,0-.33-.12h-.56l-.47,0-.52.06-.92.17-3.76-.17c-.05-.15-.09-.28-.12-.4a1.61,1.61,0,0,1,0-.39c0-.39.25-.71.76-1a2.85,2.85,0,0,1,1.18-.27c0-.13.07-.25.09-.34a1.36,1.36,0,0,0,0-.29,3.64,3.64,0,0,0,0-.46c0-.21-.05-.35-.05-.41a1.76,1.76,0,0,0,0-.19.46.46,0,0,1,.13-.17.62.62,0,0,0,.13-.18,5.71,5.71,0,0,0,.09-.82c0-.28,0-.55,0-.82v-.32a3.58,3.58,0,0,0-.15-1,3.38,3.38,0,0,1-.15-.84,1.25,1.25,0,0,1,0-.43.9.9,0,0,1,.25-.28v-1.85l0-.11a2,2,0,0,1-.1-.76,3,3,0,0,1,.15-1l.2-.51.05-.61-.31-.15.2-.83.06-.8-.17-.2.17-.73v-1.1a.31.31,0,0,0-.11-.17.74.74,0,0,1-.1-.48,4,4,0,0,1-1.2-.24c-.66-.23-1-.52-1-.87a.46.46,0,0,1,.14-.23c.09-.1.23-.23.4-.39l.31-.27c.14-.13.24-.19.3-.19l.52.16,1.12.27.77.18h2.33a.2.2,0,0,1,.14,0,.53.53,0,0,0,.32.09,1.22,1.22,0,0,0,.35-.06,7.83,7.83,0,0,1,1.2-.24,5,5,0,0,0,.58.11,3.14,3.14,0,0,0,.57,0,8.32,8.32,0,0,0,.85,0,9.1,9.1,0,0,0,1.19-.2,6.43,6.43,0,0,1,.71-.08l.47,0,.58.08.38,0a1,1,0,0,0,.42-.07,2.26,2.26,0,0,0,.55-.52.94.94,0,0,1,.69-.38l.26.05c.09,0,.14,0,.15.1.1.4.17.7.21.91.16.64.23,1,.23,1a2.59,2.59,0,0,1-.15.91,1.4,1.4,0,0,1-.41.61v2.33l-.74.43a2,2,0,0,1-.37.19.33.33,0,0,1-.23-.12,1.45,1.45,0,0,0-.27-.28,1.84,1.84,0,0,1-.45-.41,3.63,3.63,0,0,1-.27-.49c-.13-.26-.22-.43-.25-.5a3.27,3.27,0,0,1-.2-.55,3.72,3.72,0,0,0-.32-1,1.33,1.33,0,0,0-1.12-.41h-1.85a.29.29,0,0,1-.19-.1.41.41,0,0,0-.18-.1l-.8.08-.52.18-.3-.26h-1a5.77,5.77,0,0,1-.35.67,1,1,0,0,0-.17.56,6.67,6.67,0,0,0,.11,1c.07.49.13.82.18,1a6.48,6.48,0,0,1,0,.74c-.07,1.28-.11,2.41-.11,3.41a1.86,1.86,0,0,1,.23.18l.17.18h2.61a.63.63,0,0,0,.35-.14,1.11,1.11,0,0,1,.33-.18l.19,0a.72.72,0,0,1,.3.07l.34.13c.17,0,.32-.16.44-.47l.23-.69.15-.72a2.26,2.26,0,0,0,.22-.33l.21-.43c.1-.15.2-.23.31-.23a.33.33,0,0,1,.22.09l.19.16.35.15a.64.64,0,0,1,.24.29,2.09,2.09,0,0,1,.11.49q0,.3,0,.63l-.05.77a1.14,1.14,0,0,0,.15.38,1.1,1.1,0,0,1,.15.45.77.77,0,0,1-.15.43.66.66,0,0,0-.15.36v1.72l-.27.21a.37.37,0,0,1-.23.11H738l-.22,0a1.49,1.49,0,0,1-.8-.15,2.87,2.87,0,0,1-.35-.48s-.06-.16-.14-.41a.69.69,0,0,0-.14-.27.6.6,0,0,0-.41-.12,2.16,2.16,0,0,1-.44-.06,1.79,1.79,0,0,0-.39,0h-.58l-1.22-.19a1.5,1.5,0,0,1-.64-.39h-1.33v1l.15.26-.11.58.07.52,0,.73-.21.31.3,1.1,0,.63-.35.26.06.3a3,3,0,0,0,.17.74,1.14,1.14,0,0,0,.35.47,2.49,2.49,0,0,0,1.26.55,8.16,8.16,0,0,0,1.47.11,1.68,1.68,0,0,0,.48,0l.22-.09H737a2.66,2.66,0,0,0,1.06-.25,6.36,6.36,0,0,0,1.16-.68l.48-.32a5.91,5.91,0,0,0,.61-.56c.27-.27.44-.44.54-.52a.78.78,0,0,1,.22-.13.65.65,0,0,0,.19-.09l.54-.42a.6.6,0,0,1,.33-.16.89.89,0,0,1,.3.06,1.16,1.16,0,0,0,.26.08Z"/>
      <path d="M765.15,111.45l-.52.49-.36,0-1.81-.16-1.63-.44-.3-.23h-.92l-.34-.15-.29.15-.13-.2v-.33L758,110l-.49-1.07-.35,0-.78-1.25v-.57l-.48-1.18-.5-.71v-.44l-.66-.81,0-.6-.86-.84-1.11-.45h-.34l-.58-.41h-.51l-.41.46.07,2.06-.07.94-.16.23.16,1.33v.81l-.14.26.14,2,.39.52.37.29,1.07.19.21-.19h.32l.34.35.22.72-.1.34-.46.19h-.63l-.71-.23-1.88-.13-.63-.09-.18.09-.71-.13-1.44,0-.55.4-.49-.21-.35-.23-.39-.42-.1-.37.52-.39.5,0,.28.16.24-.16.72-.71.11-.6.18-1.12-.15-.32.42-.23-.27-.29.07-.75.33-.8-.18-2.71-.11-.78.16-.26V100l-.16-.29.49-.89-.2-.34.11-.95-.24-.44.33-.57-.12-2.73-.66-.72h-.34l-.59.09-.33.35-.3.07-.52-.32-.17-.45.06-.67.18-.34.45-.32H747l.78.28.21-.13.85,0,3,.11.37.13.49-.13h2l1.46-.16.73.34.63.21,1.26.16.26.23.34,0,1.25,1.07.19.55.21.48v.57l.18.76-.06.46-.18.71,0,.61-.58.83v.66l-.6.73-.85.23-.71.51h-.68l-.79.78.11.18.67.7.12.38.29.24.11.31h.4l.26.23.23.34-.08.59.29.62.63.93.6.84.53.65.23.5.69.86.63.52.47.4,1.15.2.22-.08.63.33.26.23Zm-7.44-13.29-.14-.26.07-1.37-.18-.73-.23-.52-.37-.33.08-.15-.28-.34h-.25l-.67-.7-.82-.51-.63-.15-.12-.2-.81.08-1.23,0-.26.37-.23.48-.36.75.22.37v.62L751.28,97l-.17.33v.66l.13.22-.19.3v.34l.34.29-.28.42-.06,1,.23.16.93-.16.71.16.47-.11,1.24.18.37-.23.89-.07.34-.42h.37l1.11-1.13Z"/>
      <path d="M787.07,92.92a1.41,1.41,0,0,0,0,.2c0,.08,0,.16,0,.26a.21.21,0,0,1-.11.21l-.19.08-.32.14a1.65,1.65,0,0,1-.36.09.94.94,0,0,0-.41.17.8.8,0,0,0-.14.53v.19a1,1,0,0,1,0,.2,1.07,1.07,0,0,0,.07.25.93.93,0,0,1,0,.4l-.26.37q0,.09,0,.24V97a1.71,1.71,0,0,1,0,.4.37.37,0,0,1-.1.23.32.32,0,0,0-.09.2l.08,3.08-.23,2.25v.68l.41.11-.26.41.08,4.37a.41.41,0,0,0,.07.25.43.43,0,0,1,.1.24c0,.09,0,.2,0,.33a.8.8,0,0,0,0,.31,3.56,3.56,0,0,0,.22.35,1,1,0,0,0,.23.22,2.06,2.06,0,0,0,.5.32.81.81,0,0,1,.49.78.7.7,0,0,1-.69.78,3.55,3.55,0,0,1-.45-.17,5.26,5.26,0,0,0-.74-.27l-.12,0h-.1a7.69,7.69,0,0,0-.85.14,7.32,7.32,0,0,1-1.37.14l-.8,0-.52,0a3,3,0,0,1-1.19-.19.84.84,0,0,1-.52-.83.77.77,0,0,1,.36-.67,3,3,0,0,1,.82-.32l.56-.08a2.54,2.54,0,0,0,.43-.08.6.6,0,0,0,.21-.21l.16-.26a.6.6,0,0,0,.14-.34.4.4,0,0,0-.11-.27l-.11-.1a.8.8,0,0,1,.16-.49.83.83,0,0,1,.11-.13,1.53,1.53,0,0,0,0-.36,2,2,0,0,0-.08-.55,5.49,5.49,0,0,1-.18-1c.1-.7.19-1.32.26-1.88s.11-.88.11-1-.22-.32-.66-.32l-.54,0h-.72a.43.43,0,0,1-.27-.1.71.71,0,0,0-.29-.11l-1.18.06-1.81.08a.37.37,0,0,1-.2-.08.37.37,0,0,0-.19-.08l-1.81,0-.3,0h-.38a1.31,1.31,0,0,1-.33,0c-.07,0-.14-.1-.23-.23s-.06-.09-.07-.09l-1,.47.19,5.41a.26.26,0,0,1-.09.21.56.56,0,0,0-.1.13.43.43,0,0,0,.26.38.83.83,0,0,0,.26.1.51.51,0,0,1,0,.16,2,2,0,0,1,0,.23.85.85,0,0,0,.43.25l.65.2a1,1,0,0,1,.21.18.22.22,0,0,0,.15.08,2.64,2.64,0,0,0,.44.06,1.3,1.3,0,0,1,.45.09,1.67,1.67,0,0,1,.37.32.68.68,0,0,1,.15.42.6.6,0,0,1-.3.67.9.9,0,0,1-.36.13l-.39,0a.37.37,0,0,1-.26-.1l-.17-.13a1.55,1.55,0,0,0-.5.07,1.39,1.39,0,0,1-.32.06h-1.16a12.86,12.86,0,0,1-1.32.28h-.86s0-.1,0-.15a.81.81,0,0,1,0-.16c-.11,0-.17.07-.17.16a.22.22,0,0,0,0,.1l0,0a1.13,1.13,0,0,1-.32,0l-.23,0a.23.23,0,0,0-.16.06s-.1.15-.16.36H769a3.24,3.24,0,0,0-.68-.43.89.89,0,0,1-.44-.83,1,1,0,0,1,.27-.7l.29-.28.34-.29.26-.45-.09-2.17V107a.71.71,0,0,0-.32-.08.8.8,0,0,1,.07-.31.61.61,0,0,0,.08-.29,1.85,1.85,0,0,0,0-.29c0-.12,0-.25,0-.4s0-.22,0-.23a1.36,1.36,0,0,0,0-.18,4.36,4.36,0,0,1,.21-.64,5.11,5.11,0,0,1,.22-.48v-.83l-.06-.5a1.06,1.06,0,0,0-.14-.3.44.44,0,0,1-.06-.1l.09-2L769,97.68l-.17-.55a3,3,0,0,0,.15-.69c0-.14.06-.36.11-.64L769,94a6.33,6.33,0,0,0-1.41-.78.72.72,0,0,1-.51-.69.6.6,0,0,1,.46-.58l1.12-.12a1,1,0,0,1,.23-.2,1.82,1.82,0,0,1,.92-.2,9.24,9.24,0,0,1,1.16.13l1.8.27a3.11,3.11,0,0,0,.93-.13l.78-.27a1.84,1.84,0,0,1,1.14.33,1.08,1.08,0,0,1,.44.93c0,.59-.26.91-.8,1l-1.08.06-.86.12a.86.86,0,0,0-.35.33,1.85,1.85,0,0,0-.2,1,1.24,1.24,0,0,0-.06.37,5.33,5.33,0,0,0,0,.56c0,.19,0,.37,0,.54s0,.1-.15.14-.15.1-.15.17l0,2.1a.27.27,0,0,0,.07.17.27.27,0,0,1,.07.17.64.64,0,0,1-.06.29,2.76,2.76,0,0,0-.2.75,1,1,0,0,0,.35.74.91.91,0,0,0,.58.29l2.29-.06a.22.22,0,0,1,.18.07.57.57,0,0,0,.26.12,2.31,2.31,0,0,0,.45,0h.55l.37-.06.59-.13.38-.12.14-.06.28.06.32,0a5,5,0,0,0,.69.1,7.63,7.63,0,0,0,.89,0,.52.52,0,0,0,.28-.08.54.54,0,0,1,.26-.1.75.75,0,0,1,.37.08l.32.21h.23a.56.56,0,0,1,.1-.13.63.63,0,0,0,.16-.27c0-.17,0-.38,0-.61s0-.46,0-.66l0-.45-.14-.47.21-.41-.1-.8q-.06-.24-.12-.51c-.1-.37-.18-.73-.27-1.1L782,94.23a3.78,3.78,0,0,1-1.45-.32c-.61-.24-.92-.51-.95-.81a1.21,1.21,0,0,1,.33-.78.88.88,0,0,1,.48-.31l2.22-.14.34.22,1.84-.08.81-.17a.76.76,0,0,1,.29.1,1.23,1.23,0,0,0,.25.12,1.5,1.5,0,0,1,.66.28A.7.7,0,0,1,787.07,92.92Z"/>
      <path d="M807.09,107.78a1.57,1.57,0,0,0-.25.66c0,.09,0,.22,0,.38a8,8,0,0,0-.52.87,5.42,5.42,0,0,0-.4,1,1.35,1.35,0,0,0,0,.2,1.28,1.28,0,0,0,.09.4,1.22,1.22,0,0,1,.09.32.68.68,0,0,1-.29.64,1.64,1.64,0,0,1-.8.17,2.29,2.29,0,0,1-.69-.1c-.18-.07-.37-.13-.57-.19a.73.73,0,0,0-.25,0,1.22,1.22,0,0,0-.25.26h-2.61l-.1-.06a3.09,3.09,0,0,0-1-.23H797l-.33-.13a1.22,1.22,0,0,0-.34-.12h-.55l-.48,0-.52.06-.92.17-3.75-.17a3.05,3.05,0,0,1-.13-.4,1.61,1.61,0,0,1,0-.39c0-.39.25-.71.76-1a2.88,2.88,0,0,1,1.18-.27c0-.13.07-.25.09-.34a1.35,1.35,0,0,0,0-.29,4.32,4.32,0,0,0,0-.46c0-.21,0-.35,0-.41a1.76,1.76,0,0,0,0-.19.46.46,0,0,1,.13-.17.47.47,0,0,0,.13-.18,5.71,5.71,0,0,0,.09-.82c0-.28,0-.55,0-.82v-.32a3.58,3.58,0,0,0-.15-1,3.79,3.79,0,0,1-.14-.84,1.34,1.34,0,0,1,0-.43,1.06,1.06,0,0,1,.25-.28v-1.85l0-.11a2,2,0,0,1-.1-.76,3,3,0,0,1,.15-1c.07-.17.14-.34.2-.51l.05-.61-.31-.15.2-.83.06-.8-.17-.2.17-.73v-1.1a.28.28,0,0,0-.1-.17c-.08-.07-.11-.23-.11-.48a4.06,4.06,0,0,1-1.2-.24q-1-.34-1-.87a.42.42,0,0,1,.13-.23l.4-.39.31-.27c.14-.13.24-.19.31-.19l.52.16,1.12.27.76.18H796a.2.2,0,0,1,.14,0,.53.53,0,0,0,.32.09,1.22,1.22,0,0,0,.35-.06,7.83,7.83,0,0,1,1.2-.24,5.51,5.51,0,0,0,.58.11,3.29,3.29,0,0,0,.57,0,8.32,8.32,0,0,0,.85,0,8.84,8.84,0,0,0,1.19-.2,6.43,6.43,0,0,1,.71-.08l.47,0,.58.08.38,0a1,1,0,0,0,.42-.07,2.26,2.26,0,0,0,.55-.52.94.94,0,0,1,.69-.38l.26.05c.09,0,.14,0,.15.1.1.4.18.7.22.91.15.64.23,1,.23,1a2.38,2.38,0,0,1-.16.91,1.4,1.4,0,0,1-.41.61v2.33c-.13.09-.38.23-.74.43a2.07,2.07,0,0,1-.36.19.29.29,0,0,1-.23-.12,1.75,1.75,0,0,0-.28-.28,1.77,1.77,0,0,1-.44-.41,2.56,2.56,0,0,1-.28-.49l-.25-.5a3,3,0,0,1-.19-.55,3.61,3.61,0,0,0-.33-1,1.31,1.31,0,0,0-1.12-.41h-1.85a.32.32,0,0,1-.19-.1.41.41,0,0,0-.18-.1l-.79.08-.53.18-.3-.26h-1a5.77,5.77,0,0,1-.35.67,1.07,1.07,0,0,0-.17.56,8.5,8.5,0,0,0,.11,1c.07.49.13.82.18,1,0,0,0,.29,0,.74-.08,1.28-.12,2.41-.12,3.41a1.86,1.86,0,0,1,.23.18l.17.18h2.61a.63.63,0,0,0,.35-.14,1.11,1.11,0,0,1,.33-.18l.19,0a.8.8,0,0,1,.31.07l.33.13c.17,0,.32-.16.44-.47,0-.06.1-.29.23-.69l.16-.72a2,2,0,0,0,.21-.33l.21-.43c.1-.15.21-.23.31-.23a.33.33,0,0,1,.22.09l.19.16.35.15a.64.64,0,0,1,.24.29,2.09,2.09,0,0,1,.11.49q0,.3,0,.63l0,.77a1.28,1.28,0,0,0,.14.38,1.1,1.1,0,0,1,.15.45.77.77,0,0,1-.15.43.72.72,0,0,0-.14.36v1.72l-.28.21a.37.37,0,0,1-.23.11h-.16l-.22,0a1.49,1.49,0,0,1-.8-.15,2.87,2.87,0,0,1-.35-.48s-.06-.16-.14-.41a.69.69,0,0,0-.14-.27.6.6,0,0,0-.41-.12,2.16,2.16,0,0,1-.44-.06,1.79,1.79,0,0,0-.39,0h-.58l-1.22-.19a1.5,1.5,0,0,1-.64-.39h-1.33v1l.15.26-.1.58.06.52,0,.73-.21.31.3,1.1,0,.63-.35.26.06.3a3,3,0,0,0,.17.74,1.14,1.14,0,0,0,.35.47,2.53,2.53,0,0,0,1.26.55,8.32,8.32,0,0,0,1.47.11,1.63,1.63,0,0,0,.48,0l.22-.09h1.72a2.66,2.66,0,0,0,1.06-.25,6,6,0,0,0,1.16-.68l.48-.32a5,5,0,0,0,.61-.56c.27-.27.45-.44.54-.52a.78.78,0,0,1,.22-.13.65.65,0,0,0,.19-.09l.54-.42a.6.6,0,0,1,.34-.16.88.88,0,0,1,.29.06,1.34,1.34,0,0,0,.26.08Z"/>
      <path d="M830.08,92.74l-.13.77-.26.89a5.11,5.11,0,0,1-.23.61,2.94,2.94,0,0,1-.3.53.74.74,0,0,1-.6.33,1.1,1.1,0,0,1-.66-.29l-.31-.36-.47-.42a3.77,3.77,0,0,0-.52-.37h-.49a.45.45,0,0,1-.16,0,1.94,1.94,0,0,0-.34-.11,3.74,3.74,0,0,0-.45-.12L824.8,94a1.16,1.16,0,0,0-.47-.16H822.2l-.26.3a.45.45,0,0,0-.12.28.81.81,0,0,0,.12.22,1.25,1.25,0,0,1,.17.35,1.45,1.45,0,0,1,0,.37v.69a8.39,8.39,0,0,1-.27,1.29,2.37,2.37,0,0,1-.22.64l.22,1v.67l-.22.41v1.11a.48.48,0,0,0,.09.23,1,1,0,0,1,.22.47v.77l.08.26-.08,1.7v.26a1.39,1.39,0,0,1,0,.32.74.74,0,0,1-.15.27.42.42,0,0,0-.13.27,1.53,1.53,0,0,0,.05.3,3.89,3.89,0,0,0,.11.43l.15,1a3.68,3.68,0,0,1,0,.45,2.12,2.12,0,0,0,.06.56.42.42,0,0,0,.24.29,1.15,1.15,0,0,1-.08.15.31.31,0,0,0-.06.19.9.9,0,0,0,.44.66l.41.26a3.84,3.84,0,0,1,.42.31,2.52,2.52,0,0,1,.33.33,1.26,1.26,0,0,1,.26.77v.37a.61.61,0,0,1-.15.26.54.54,0,0,1-.22.15.62.62,0,0,1-.33,0,1.34,1.34,0,0,0-.33-.08H821.9l-.88,0-.85-.12a.21.21,0,0,1-.18-.1.19.19,0,0,0-.18-.08,1,1,0,0,0-.18.16c-.11.11-.38.16-.83.16h-1l-.85,0-.69-.09a5.91,5.91,0,0,1-.65-.15,1.62,1.62,0,0,1-.42-.19.55.55,0,0,1-.23-.28,2,2,0,0,1,0-.48q0-.51.18-.54c.13,0,.23-.2.3-.5a2.47,2.47,0,0,0,.43-.05,5.87,5.87,0,0,1,.78-.11h.24a.69.69,0,0,0,.31-.17,1.92,1.92,0,0,0,.61-1.33l-.15-.54a3.12,3.12,0,0,1-.16-.8.78.78,0,0,1,.12-.44l.34-.37a1,1,0,0,0,0-.42,4.13,4.13,0,0,1-.07-.65s0-.15.08-.37a1.09,1.09,0,0,0,0-.26.66.66,0,0,0-.07-.23.57.57,0,0,1-.08-.28v-2.55a.41.41,0,0,1,0-.19c.07-.19.11-.3.11-.31a.41.41,0,0,0-.05-.18,1.62,1.62,0,0,1-.1-.18,4.41,4.41,0,0,1,0-.52,3.93,3.93,0,0,1,.08-.46,2.14,2.14,0,0,1,.13-.38.92.92,0,0,0,.1-.27V97.67a1.52,1.52,0,0,1,0-.32.83.83,0,0,1,0-.2.39.39,0,0,0,0-.14v-.17l-.18-1.2v-.78l.18-.43-.35-.36a.54.54,0,0,0-.41-.19A.53.53,0,0,0,817,94l-.26.23a.8.8,0,0,1-.46.13.71.71,0,0,1-.32-.13,1,1,0,0,0-.2-.13.6.6,0,0,0-.26,0,.46.46,0,0,0-.23.06l-.2.12-.78.27a3.79,3.79,0,0,1-.94.18h-.55a.2.2,0,0,0-.06.14.81.81,0,0,1-.19.35,8.67,8.67,0,0,1-.72.91c-.33.36-.6.65-.84.87l-.24.24a.66.66,0,0,1-.43.26.7.7,0,0,1-.68-.5,2.7,2.7,0,0,1-.14-.94,1,1,0,0,1,.2-.64,1.78,1.78,0,0,0,.3-.46,3.31,3.31,0,0,0,.1-.48,2.61,2.61,0,0,1,.15-.56,3.93,3.93,0,0,1,.3-.54c.13-.21.24-.39.33-.52a1.44,1.44,0,0,1,.33-.32,1.56,1.56,0,0,0,.3-.25l.06-.37a2.48,2.48,0,0,1,.5-.31l.59-.27,1.73.06.48.16.26-.16.41-.06a.8.8,0,0,0,.2.15,2.24,2.24,0,0,0,.74.28,2,2,0,0,0,.36,0h4.56l1.88.26.32-.2,1.8-.06a3.23,3.23,0,0,1,.89.29,1.62,1.62,0,0,0,.55.15,2.12,2.12,0,0,0,.44.05,1.55,1.55,0,0,0,.31,0,2,2,0,0,0,.47-.13l.63-.2.39-.12.09,0a.84.84,0,0,1,.57.36A1,1,0,0,1,830.08,92.74Z"/>
      <path d="M845.2,106.2c0,.16-.06.33-.1.52a4.16,4.16,0,0,1-.13.59.47.47,0,0,1-.09.17l-.23.3c-.12.54-.24,1.09-.37,1.63a2.05,2.05,0,0,1-.29.63,1.06,1.06,0,0,1-.43.35,4.09,4.09,0,0,0-.55.63,2.59,2.59,0,0,1-.57.53l-.39.25a2.52,2.52,0,0,1-.54.21,1.82,1.82,0,0,1-.41,0h-.32l-.32,0a3.12,3.12,0,0,0-.5.11,2,2,0,0,1-.53.09,10.64,10.64,0,0,1-1.51-.09,4.22,4.22,0,0,1-1.11-.32,1.57,1.57,0,0,1-.34-.23l-.29-.25-.57-.36a1.7,1.7,0,0,0-.66-.31c-.17,0-.31.12-.41.35a3.14,3.14,0,0,1-.25.48,1.19,1.19,0,0,1-1,.43.74.74,0,0,1-.66-.43.47.47,0,0,1,0-.25v-.47l-.22-.52a3.23,3.23,0,0,1-.15-.85l.33-1.12.08-1.39.08-1.36a.61.61,0,0,1,.4-.28,2.6,2.6,0,0,1,.56-.06,2.81,2.81,0,0,1,.45,0,1.42,1.42,0,0,1,.35.11.74.74,0,0,1,.43.61c0,.29.08.54.11.77a1.34,1.34,0,0,0,.41.47l.69.55c0,.19.06.38.1.58a.41.41,0,0,0,.34.36l-.15.55.32.15a1.79,1.79,0,0,1,.4.24l.28.22a1.56,1.56,0,0,0,.46.2,1.71,1.71,0,0,0,.36,0l.45,0,.31.1a1,1,0,0,0,.38.08,1.34,1.34,0,0,0,.63-.13l.44-.32,1.41-.47a1.94,1.94,0,0,0,.63-1.58,3.25,3.25,0,0,0-.1-.85,2,2,0,0,0-.31-.68s-.13-.09-.28-.15a1.07,1.07,0,0,1-.25-.11,2,2,0,0,1-.17-.28,1.51,1.51,0,0,0-.25-.35,1.69,1.69,0,0,0-.27-.26l-.25-.21a1.47,1.47,0,0,0-.4-.19,1.51,1.51,0,0,1-.41-.2,1.29,1.29,0,0,1-.16-.17l-.18-.24s0-.07,0-.17,0-.16,0-.19l-.36-.34-.42-.35a1.07,1.07,0,0,0-.23-.07.67.67,0,0,1-.23-.08,1.8,1.8,0,0,1-.35-.37l-.37-.49a1.08,1.08,0,0,0-.56-.26l-.37-.06c0-.08-.08-.14-.11-.19a1.74,1.74,0,0,0-.29-.35l-.57-.4a2.17,2.17,0,0,1-.36-.32l-.3-.37c-.1-.13-.26-.36-.49-.69a.28.28,0,0,1,0-.15.58.58,0,0,0,0-.21c-.21-.29-.37-.5-.47-.62a.88.88,0,0,1-.16-.3.63.63,0,0,1,0-.19,1.2,1.2,0,0,1,0-.23c0-.09,0-.14,0-.15a.4.4,0,0,0,0-.17,7.42,7.42,0,0,1-.35-.86,1.94,1.94,0,0,1-.16-.52.27.27,0,0,1,.06-.17,1,1,0,0,0,.11-.2c0-.08,0-.17,0-.27a.71.71,0,0,1,0-.22.4.4,0,0,1,.11-.15.68.68,0,0,0,.13-.18,2.39,2.39,0,0,0,.1-.46,1.67,1.67,0,0,1,.18-.56,3.78,3.78,0,0,0,.43-.26.75.75,0,0,0,.11-.3.53.53,0,0,1,.13-.31,1.1,1.1,0,0,1,.21-.14l.29-.13s.1-.06.21-.09a.41.41,0,0,0,.2-.07,3.07,3.07,0,0,0,.35-.27,1.45,1.45,0,0,1,.35-.24,1.29,1.29,0,0,1,.28-.08l.28,0,.54-.09.42,0,.56-.18a2.42,2.42,0,0,1,.4-.14,3.12,3.12,0,0,1,.52,0,2.18,2.18,0,0,1,.42,0l.33.06a.73.73,0,0,1,.26.09l.26.13a4.57,4.57,0,0,1,.62.22l.52.25c.15.07.29.15.44.21a1,1,0,0,0,.44.1.91.91,0,0,0,.49-.11l.31-.23a.48.48,0,0,1,.29-.13,2.62,2.62,0,0,1,.49.35,1.35,1.35,0,0,1,.51,1,1.34,1.34,0,0,1-.07.3,2,2,0,0,0-.06.46c0,.14-.05.28-.07.41a2.24,2.24,0,0,0,0,.34s0,.21,0,.48a5.37,5.37,0,0,1,0,.6v.18a1.42,1.42,0,0,1,0,.31.59.59,0,0,1-.28.37,1.07,1.07,0,0,1-.53.12,1,1,0,0,1-.64-.23.42.42,0,0,1-.1-.25.77.77,0,0,0-.07-.23l-.63-.67a2.48,2.48,0,0,1-.13-.22,1.39,1.39,0,0,0-.18-.26l-.47-.3a1.28,1.28,0,0,0-.23-.25l-.25-.23a2.28,2.28,0,0,1-.17-.41,1.46,1.46,0,0,0-.18-.43.2.2,0,0,0-.15-.06h-.33a1.5,1.5,0,0,0-.36-.14l-.37-.12-.28-.26a.69.69,0,0,0-.43-.11.54.54,0,0,0-.26.14,1.3,1.3,0,0,1-.3.18l-.32.17-.4.24a2.48,2.48,0,0,0-.43.67c-.18.34-.29.58-.36.7a1.23,1.23,0,0,1-.13.2.43.43,0,0,0,0,.24,1,1,0,0,0,.09.4,2.48,2.48,0,0,1,.09.31c.11.4.16.61.17.64a1.49,1.49,0,0,0,.25.55,1.68,1.68,0,0,0,.64.43c.28.09.55.16.83.23a2.52,2.52,0,0,1,.61.62l.75,1,.89.73a1.09,1.09,0,0,0,.32.1.78.78,0,0,1,.28.1l.49.52a2.37,2.37,0,0,0,.28.28.2.2,0,0,0,.2,0,.62.62,0,0,1,.18,0,.46.46,0,0,1,.23.08,1.41,1.41,0,0,1,.18.3,1.15,1.15,0,0,0,.25.32,1.49,1.49,0,0,0,.31.3c.42.33.67.53.73.59a1.25,1.25,0,0,1,.28.51q0,.13.09.3c0,.11.11.56.24,1.36A3.89,3.89,0,0,0,845.2,106.2Z"/>
      <path d="M861.1,106.2c0,.16-.07.33-.1.52s-.08.39-.13.59a.47.47,0,0,1-.09.17,2.85,2.85,0,0,0-.23.3c-.13.54-.25,1.09-.37,1.63a2.32,2.32,0,0,1-.29.63,1.21,1.21,0,0,1-.43.35,3.56,3.56,0,0,0-.55.63,2.87,2.87,0,0,1-.58.53l-.39.25a2.17,2.17,0,0,1-.54.21,1.82,1.82,0,0,1-.41,0h-.31l-.33,0a3.05,3.05,0,0,0-.49.11,2.15,2.15,0,0,1-.54.09,10.58,10.58,0,0,1-1.5-.09,4.29,4.29,0,0,1-1.12-.32,1.85,1.85,0,0,1-.34-.23l-.29-.25-.57-.36a1.58,1.58,0,0,0-.66-.31c-.17,0-.31.12-.41.35a2.55,2.55,0,0,1-.24.48,1.22,1.22,0,0,1-1,.43.77.77,0,0,1-.66-.43.47.47,0,0,1,0-.25v-.47l-.22-.52a3.23,3.23,0,0,1-.15-.85l.34-1.12.07-1.39.08-1.36a.61.61,0,0,1,.41-.28,2.53,2.53,0,0,1,.56-.06,2.76,2.76,0,0,1,.44,0,1.42,1.42,0,0,1,.35.11.74.74,0,0,1,.43.61c0,.29.08.54.11.77a1.34,1.34,0,0,0,.41.47l.69.55c0,.19.07.38.1.58a.41.41,0,0,0,.35.36l-.16.55.33.15a2.44,2.44,0,0,1,.4.24l.27.22a1.69,1.69,0,0,0,.46.2,1.71,1.71,0,0,0,.36,0l.45,0a1.82,1.82,0,0,1,.31.1,1,1,0,0,0,.38.08,1.28,1.28,0,0,0,.63-.13l.45-.32,1.41-.47a2,2,0,0,0,.62-1.58,3.25,3.25,0,0,0-.1-.85,1.85,1.85,0,0,0-.31-.68s-.12-.09-.28-.15a1.37,1.37,0,0,1-.25-.11l-.17-.28a1.26,1.26,0,0,0-.25-.35,1.69,1.69,0,0,0-.27-.26l-.24-.21a1.59,1.59,0,0,0-.41-.19,1.69,1.69,0,0,1-.41-.2l-.16-.17-.18-.24s0-.07,0-.17a.38.38,0,0,0,0-.19l-.37-.34-.41-.35a1,1,0,0,0-.24-.07.58.58,0,0,1-.22-.08,1.82,1.82,0,0,1-.36-.37l-.36-.49a1.12,1.12,0,0,0-.57-.26l-.37-.06c0-.08-.08-.14-.11-.19a1.46,1.46,0,0,0-.29-.35l-.56-.4a1.59,1.59,0,0,1-.36-.32c-.11-.12-.21-.25-.31-.37s-.26-.36-.48-.69a.28.28,0,0,1,0-.15.58.58,0,0,0,0-.21l-.47-.62a.79.79,0,0,1-.17-.3.62.62,0,0,1,0-.19,1.06,1.06,0,0,1,0-.23c0-.09,0-.14,0-.15a.4.4,0,0,0,0-.17,7.42,7.42,0,0,1-.35-.86A2.19,2.19,0,0,1,849,96a.27.27,0,0,1,.06-.17.93.93,0,0,0,.1-.2c0-.08,0-.17,0-.27a1.23,1.23,0,0,1,0-.22.4.4,0,0,1,.11-.15.51.51,0,0,0,.13-.18,2.39,2.39,0,0,0,.1-.46,1.66,1.66,0,0,1,.19-.56l.43-.26a.78.78,0,0,0,.1-.3.6.6,0,0,1,.13-.31,1.1,1.1,0,0,1,.21-.14l.29-.13s.1-.06.22-.09a.46.46,0,0,0,.2-.07,3.18,3.18,0,0,0,.34-.27,1.68,1.68,0,0,1,.35-.24,1.23,1.23,0,0,1,.29-.08l.27,0,.55-.09.42,0,.55-.18a2.22,2.22,0,0,1,.41-.14,2.89,2.89,0,0,1,.51,0,2.18,2.18,0,0,1,.42,0l.34.06a.69.69,0,0,1,.25.09l.26.13a4.13,4.13,0,0,1,.62.22c.2.09.38.17.52.25l.44.21a1.1,1.1,0,0,0,.94,0l.3-.23a.48.48,0,0,1,.29-.13,2.32,2.32,0,0,1,.49.35,1.35,1.35,0,0,1,.51,1,1.8,1.8,0,0,1-.06.3,2,2,0,0,0-.06.46c0,.14-.06.28-.08.41a2.24,2.24,0,0,0,0,.34s0,.21,0,.48,0,.46,0,.6v.18a1.42,1.42,0,0,1,0,.31.64.64,0,0,1-.29.37,1,1,0,0,1-.53.12,1.07,1.07,0,0,1-.64-.23.5.5,0,0,1-.1-.25.77.77,0,0,0-.07-.23l-.63-.67a2.48,2.48,0,0,1-.13-.22,1.05,1.05,0,0,0-.17-.26l-.48-.3a1.28,1.28,0,0,0-.23-.25l-.24-.23a1.33,1.33,0,0,1-.17-.41,1.37,1.37,0,0,0-.19-.43.2.2,0,0,0-.15-.06H856a1.66,1.66,0,0,0-.37-.14l-.37-.12-.27-.26a.74.74,0,0,0-.43-.11.5.5,0,0,0-.26.14,1.92,1.92,0,0,1-.3.18,2.08,2.08,0,0,0-.32.17l-.41.24a2.75,2.75,0,0,0-.43.67l-.35.7a1.55,1.55,0,0,1-.14.2.43.43,0,0,0,0,.24,1,1,0,0,0,.09.4,3.22,3.22,0,0,1,.1.31c.1.4.16.61.17.64a1.51,1.51,0,0,0,.24.55,1.72,1.72,0,0,0,.65.43c.27.09.55.16.82.23a2.36,2.36,0,0,1,.61.62l.76,1,.89.73a1,1,0,0,0,.31.1.78.78,0,0,1,.28.1l.49.52a3.53,3.53,0,0,0,.28.28.22.22,0,0,0,.21,0,.51.51,0,0,1,.17,0,.43.43,0,0,1,.23.08,1.22,1.22,0,0,1,.19.3,1,1,0,0,0,.24.32,1.79,1.79,0,0,0,.31.3c.43.33.67.53.73.59a1.15,1.15,0,0,1,.28.51q0,.13.09.3c0,.11.12.56.25,1.36A3.49,3.49,0,0,0,861.1,106.2Z"/>
      <path d="M879.81,111.71l-.35.47-.45.19-.64-.19-1.38.12-.57-.12h-2l-.57.17-.25-.17-.53-.12-.22-.38.13-.38.2-.15.21.14,0-.14h.67l.29.14.37-.14.29-.33-.12-.28-.46-1,.07-.18-.18-.28-.34-1.22-.25-.48,0-.41-.37-.73-.09-.66-.39-.15-.49-.14h-3.08l-.21.15-.05.31-.21.16v.28l-.17.2.12,0-.49,1.07V108L868,108l0,.36-.4,1.09.2.11-.06.28h-.23l.06.38.32.27.06.49.2,0,.33.23h.41l.81.27.42.27L870,112l-.15,0-.06.28-.86-.11-1.69.14-.4-.14-.33.23-.37-.23h-.49l-.62.14-.28-.14-.16.38-.46-.23-.6-.15-.31-.33-.17-.39.43-.52.72-.44.79-.2.31-.2.4-.4.35-.46.57-1.79.46-1,.29-.37v-.49l.34-.27,0-.58.18-.12.4-1.09.26-.78.3-.18,0-.42.47-1.18,0-.36.15-.32.32-.74.17-.15.73-2,1.67-1,.62,0,.46.23,0,.44-.15,0,0,.54h.16l.31,1,.09.4.14.26-.09.34.52.49.2-.09,0,1.09-.1,1,.26.46.09.78,1.24,1.53.15.32,0,.69-.09.15,0,.42.37.15-.05.49.15.36.2.83v.34l.17.4.46,1.09.31.43.59.24.3.29.16.23h.3ZM871,93.88l-.06.31v.37l-.22.51-.29.27-.38.12-.26.23-.26-.23h-.43l-.46-.22-.37-.34-.21-.38,0-.48-.17-.61.09-.34.26-.32.19-.23.09-.26.29-.07L869,92l.56-.06.32.06.34.2.31.34.21.37.23.3ZM872.42,104v-.59l-.19-.5-.25-.29-.23-.54,0-.43-.26-.29-.18-.44-.34-.16-.37.39-.26.58-.23.5,0,.48-.23.54.06.38-.29.15.29.26.53.16.48.1.52.19.29-.06.59-.26Zm4-10.74,0,.38-.34.74-.15.41-.29.28-.37.13-.15.29h-.45l-.43.08-.41-.26-.31-.42-.09-.66-.17-.66.09-.55.25-.23.11-.23.15-.29.29-.11.15-.23.23,0,.52-.1h.4l.26.23.26.18.23.25.14.39Z"/>
      <path d="M901.68,106.34a2.24,2.24,0,0,1,0,.4c0,.1,0,.22,0,.34-.07.37-.13.73-.19,1.09a.42.42,0,0,1-.18.22.84.84,0,0,0-.19.14.41.41,0,0,0,0,.22v.49l-.71.73a2.9,2.9,0,0,1-.09.28,2.73,2.73,0,0,1-.21.43,4.21,4.21,0,0,1-.36.57,2.14,2.14,0,0,1-.49.53,1.17,1.17,0,0,1-.53.13,2.9,2.9,0,0,0-.54.06l-1,.23-.56-.23-.69.1-2.5.2a2.3,2.3,0,0,1-.74-.12,2,2,0,0,0-.47-.08c-.37,0-.67,0-.89,0l-.45,0-.33,0a1,1,0,0,1-.48-.12l-.07-.11a1.06,1.06,0,0,0-.76-.19,5.21,5.21,0,0,0-1.12.17l-1.57.38-.08-.06a.48.48,0,0,0-.24-.07l-2.07.08a2.62,2.62,0,0,1-.48-.24,1,1,0,0,1-.49-.79,1,1,0,0,1,.32-.53.84.84,0,0,1,.59-.35l1.94-.08a1,1,0,0,1,.16-.4.61.61,0,0,0,.09-.26,2.37,2.37,0,0,0-.08-.57c-.06-.19-.11-.39-.17-.58a5.83,5.83,0,0,1,.07-.74c.12-.67.18-1,.18-1l-.08-2.25.09-.46a2.94,2.94,0,0,1,.14-.55l-.08-2.65-.21-.16a.69.69,0,0,1-.11-.44,2,2,0,0,1,.21-.79,1.58,1.58,0,0,0,.19-.58l-.08-2a.51.51,0,0,1,.08-.19.43.43,0,0,0,.08-.21l-.08-2.36a.67.67,0,0,0-.32-.06h-.26l-.28,0h-.26a2.31,2.31,0,0,1-.83-.11.67.67,0,0,1-.38-.68.88.88,0,0,1,.17-.55,1.16,1.16,0,0,1,.39-.29,3.94,3.94,0,0,1,.75-.4.36.36,0,0,1,.21,0,.71.71,0,0,0,.23,0,.77.77,0,0,0,.19-.11,1,1,0,0,0,.16-.19,1.28,1.28,0,0,1,.45.05,1.71,1.71,0,0,0,.33.07c.65,0,1.09,0,1.33,0l.59,0a.28.28,0,0,0,.17-.1.28.28,0,0,1,.18-.1,1,1,0,0,0,.14.2.87.87,0,0,0,.61.21,1.47,1.47,0,0,0,.45-.05,2.49,2.49,0,0,1,.54-.07l2-.09.4.4c.17.16.26.26.26.3a1,1,0,0,1-.55,1,1.34,1.34,0,0,1-.55.19,4.5,4.5,0,0,1-.66,0,1.3,1.3,0,0,1-.88-.27.51.51,0,0,0-.38-.14l-.35.17a3.21,3.21,0,0,0-.43.24l.14,3.74c0,.22,0,.39,0,.52a7.32,7.32,0,0,1-.17,1,1.06,1.06,0,0,1-.11.36,1.14,1.14,0,0,0-.1.19.51.51,0,0,0,.2.4,1.29,1.29,0,0,1,.46,1,.93.93,0,0,1-.28.54.45.45,0,0,0-.14.26,1.74,1.74,0,0,1,.25.57,4,4,0,0,1,.12,1,2,2,0,0,1-.08.65,2.05,2.05,0,0,0-.18.69.76.76,0,0,0,.18.55.52.52,0,0,1,.19.38l.07,2.1a1.38,1.38,0,0,0-.52.68,1.59,1.59,0,0,1-.21.5v.39l1,.79a4.82,4.82,0,0,0,2.36.52,2.37,2.37,0,0,0,1-.18l.34-.22,1-.15a8.15,8.15,0,0,0,1-.18,2.18,2.18,0,0,0,.38-.19,2.49,2.49,0,0,0,.33-.33,1.13,1.13,0,0,0,.14-.19.51.51,0,0,1,.2-.21l.95-.57.52-.18a5.1,5.1,0,0,0,1.33-1.12,1.58,1.58,0,0,1,.37-.46l.3-.16a.52.52,0,0,0,.27-.41l.44,0,.08.13A.86.86,0,0,1,901.68,106.34Z"/>
      <path d="M922.94,106.34a3.9,3.9,0,0,1,0,.4c0,.1,0,.22-.06.34l-.18,1.09a.42.42,0,0,1-.18.22.54.54,0,0,0-.19.14.41.41,0,0,0,0,.22v.49l-.71.73a2.9,2.9,0,0,1-.09.28,2.19,2.19,0,0,1-.22.43,4.15,4.15,0,0,1-.35.57,2.34,2.34,0,0,1-.49.53,1.17,1.17,0,0,1-.53.13,2.9,2.9,0,0,0-.54.06l-1,.23-.57-.23-.68.1-2.5.2a2.27,2.27,0,0,1-.74-.12,2,2,0,0,0-.47-.08c-.37,0-.67,0-.89,0l-.45,0-.33,0a1,1,0,0,1-.48-.12l-.08-.11c-.11-.13-.36-.19-.75-.19a5.21,5.21,0,0,0-1.12.17l-1.57.38-.08-.06a.49.49,0,0,0-.25-.07l-2.07.08a2.82,2.82,0,0,1-.47-.24,1,1,0,0,1-.49-.79.94.94,0,0,1,.32-.53.84.84,0,0,1,.59-.35l1.94-.08a1,1,0,0,1,.16-.4.57.57,0,0,0,.08-.26,2,2,0,0,0-.08-.57c-.05-.19-.1-.39-.16-.58a4.43,4.43,0,0,1,.07-.74c.12-.67.17-1,.17-1l-.07-2.25.09-.46a2.94,2.94,0,0,1,.14-.55l-.08-2.65-.21-.16a.69.69,0,0,1-.11-.44,2,2,0,0,1,.21-.79,1.83,1.83,0,0,0,.19-.58l-.08-2a.51.51,0,0,1,.08-.19.4.4,0,0,0,.07-.21l-.07-2.36a.67.67,0,0,0-.32-.06H907l-.28,0h-.26a2.28,2.28,0,0,1-.83-.11.67.67,0,0,1-.38-.68.88.88,0,0,1,.17-.55,1.16,1.16,0,0,1,.39-.29,4.2,4.2,0,0,1,.74-.4.41.41,0,0,1,.21,0,.78.78,0,0,0,.24,0,.73.73,0,0,0,.18-.11.75.75,0,0,0,.17-.19,1.28,1.28,0,0,1,.45.05,1.71,1.71,0,0,0,.33.07q1,0,1.32,0l.6,0a.28.28,0,0,0,.17-.1.28.28,0,0,1,.18-.1,1,1,0,0,0,.14.2.85.85,0,0,0,.61.21,1.47,1.47,0,0,0,.45-.05,2.49,2.49,0,0,1,.54-.07l2-.09.4.4c.17.16.26.26.26.3a1.05,1.05,0,0,1-.55,1,1.34,1.34,0,0,1-.55.19,4.55,4.55,0,0,1-.67,0,1.29,1.29,0,0,1-.87-.27.51.51,0,0,0-.38-.14,2.91,2.91,0,0,0-.35.17,3.21,3.21,0,0,0-.43.24l.13,3.74c0,.22,0,.39,0,.52a7.32,7.32,0,0,1-.17,1,.9.9,0,0,1-.12.36l-.09.19a.53.53,0,0,0,.19.4,1.25,1.25,0,0,1,.46,1,.91.91,0,0,1-.27.54.45.45,0,0,0-.14.26,2.31,2.31,0,0,1,.25.57,4,4,0,0,1,.12,1,2,2,0,0,1-.08.65,2.05,2.05,0,0,0-.18.69.76.76,0,0,0,.18.55.56.56,0,0,1,.19.38l.07,2.1a1.47,1.47,0,0,0-.53.68,1.4,1.4,0,0,1-.2.5v.39l1,.79a4.82,4.82,0,0,0,2.36.52,2.37,2.37,0,0,0,1-.18l.34-.22,1-.15a8.15,8.15,0,0,0,1-.18,2.63,2.63,0,0,0,.38-.19l.33-.33a.81.81,0,0,0,.13-.19.68.68,0,0,1,.2-.21l.95-.57.52-.18a5,5,0,0,0,1.34-1.12,1.58,1.58,0,0,1,.37-.46l.3-.16a.49.49,0,0,0,.26-.41l.45,0a.55.55,0,0,0,.07.13A.74.74,0,0,1,922.94,106.34Z"/>
      <path d="M938.71,106.2c0,.16-.06.33-.1.52s-.08.39-.13.59a.47.47,0,0,1-.09.17l-.23.3c-.12.54-.25,1.09-.37,1.63a2.32,2.32,0,0,1-.29.63,1.06,1.06,0,0,1-.43.35,4.09,4.09,0,0,0-.55.63,2.63,2.63,0,0,1-.58.53l-.39.25a2.25,2.25,0,0,1-.53.21,1.86,1.86,0,0,1-.42,0h-.31l-.32,0a2.91,2.91,0,0,0-.5.11,2,2,0,0,1-.54.09,10.58,10.58,0,0,1-1.5-.09,4.29,4.29,0,0,1-1.12-.32,1.82,1.82,0,0,1-.33-.23l-.3-.25-.56-.36a1.7,1.7,0,0,0-.66-.31c-.18,0-.31.12-.42.35a2.55,2.55,0,0,1-.24.48,1.2,1.2,0,0,1-1,.43.74.74,0,0,1-.66-.43.44.44,0,0,1,0-.25v-.47l-.21-.52a3.32,3.32,0,0,1-.16-.85l.34-1.12.08-1.39.07-1.36a.63.63,0,0,1,.41-.28,2.6,2.6,0,0,1,.56-.06,2.76,2.76,0,0,1,.44,0,1.5,1.5,0,0,1,.36.11.76.76,0,0,1,.43.61c0,.29.07.54.1.77a1.29,1.29,0,0,0,.42.47c.22.19.45.37.69.55,0,.19.06.38.1.58a.4.4,0,0,0,.34.36l-.15.55.32.15a2.07,2.07,0,0,1,.4.24l.27.22a1.84,1.84,0,0,0,.46.2,1.87,1.87,0,0,0,.36,0l.46,0a2.08,2.08,0,0,1,.3.1,1,1,0,0,0,.39.08,1.34,1.34,0,0,0,.63-.13l.44-.32,1.41-.47a1.94,1.94,0,0,0,.63-1.58,3.74,3.74,0,0,0-.1-.85,1.86,1.86,0,0,0-.32-.68s-.12-.09-.27-.15A.87.87,0,0,1,935,106a1.31,1.31,0,0,1-.17-.28,1.25,1.25,0,0,0-.26-.35,2.12,2.12,0,0,0-.26-.26l-.25-.21a1.59,1.59,0,0,0-.41-.19,1.4,1.4,0,0,1-.4-.2,1.29,1.29,0,0,1-.16-.17l-.19-.24s0-.07,0-.17a.38.38,0,0,0,0-.19l-.37-.34-.41-.35a1,1,0,0,0-.24-.07.58.58,0,0,1-.22-.08,1.8,1.8,0,0,1-.35-.37l-.37-.49a1.08,1.08,0,0,0-.57-.26l-.36-.06-.11-.19a1.74,1.74,0,0,0-.29-.35l-.57-.4a2.17,2.17,0,0,1-.36-.32c-.11-.12-.21-.25-.31-.37s-.26-.36-.48-.69a.28.28,0,0,1,0-.15.58.58,0,0,0,0-.21c-.22-.29-.37-.5-.47-.62a1,1,0,0,1-.17-.3,1.23,1.23,0,0,1,0-.19c0-.06,0-.13,0-.23l0-.15a.4.4,0,0,0,0-.17,6.66,6.66,0,0,1-.36-.86,2.19,2.19,0,0,1-.15-.52.27.27,0,0,1,.06-.17,1,1,0,0,0,.11-.2c0-.08,0-.17,0-.27a1.49,1.49,0,0,1,0-.22A.64.64,0,0,1,927,95a.68.68,0,0,0,.13-.18,3.63,3.63,0,0,0,.1-.46,1.67,1.67,0,0,1,.18-.56,4.92,4.92,0,0,0,.43-.26.75.75,0,0,0,.11-.3.53.53,0,0,1,.13-.31.78.78,0,0,1,.2-.14l.3-.13s.1-.06.21-.09a.46.46,0,0,0,.2-.07,2.42,2.42,0,0,0,.34-.27,1.46,1.46,0,0,1,.36-.24,1.15,1.15,0,0,1,.28-.08l.28,0,.54-.09.42,0,.55-.18a2.5,2.5,0,0,1,.41-.14,3.08,3.08,0,0,1,.51,0,2,2,0,0,1,.42,0l.34.06a.69.69,0,0,1,.25.09l.27.13a4.57,4.57,0,0,1,.62.22l.52.25.43.21a1,1,0,0,0,.45.1.94.94,0,0,0,.49-.11l.31-.23a.48.48,0,0,1,.29-.13,2.62,2.62,0,0,1,.49.35,1.38,1.38,0,0,1,.5,1,1.8,1.8,0,0,1-.06.3,2,2,0,0,0-.06.46c0,.14-.06.28-.08.41a2.24,2.24,0,0,0,0,.34s0,.21,0,.48a5.37,5.37,0,0,1,0,.6v.18a1.42,1.42,0,0,1,0,.31.63.63,0,0,1-.28.37,1.07,1.07,0,0,1-.53.12,1.1,1.1,0,0,1-.65-.23.5.5,0,0,1-.1-.25.54.54,0,0,0-.07-.23l-.62-.67a1.2,1.2,0,0,1-.13-.22,1.39,1.39,0,0,0-.18-.26l-.48-.3a1,1,0,0,0-.23-.25l-.24-.23a1.68,1.68,0,0,1-.17-.41,1.46,1.46,0,0,0-.18-.43.23.23,0,0,0-.16-.06h-.32a1.46,1.46,0,0,0-.37-.14l-.36-.12-.28-.26a.69.69,0,0,0-.43-.11.5.5,0,0,0-.26.14,1.3,1.3,0,0,1-.3.18,2.67,2.67,0,0,0-.32.17l-.41.24a3.09,3.09,0,0,0-.43.67l-.35.7a.92.92,0,0,1-.14.2.45.45,0,0,0,0,.24,1.19,1.19,0,0,0,.08.4,1.68,1.68,0,0,1,.1.31c.1.4.16.61.17.64a1.35,1.35,0,0,0,.25.55,1.61,1.61,0,0,0,.64.43c.28.09.55.16.83.23a2.53,2.53,0,0,1,.6.62l.76,1,.89.73a1.1,1.1,0,0,0,.31.1.87.87,0,0,1,.29.1l.49.52a2.51,2.51,0,0,0,.27.28.22.22,0,0,0,.21,0,.62.62,0,0,1,.18,0,.46.46,0,0,1,.23.08,1.41,1.41,0,0,1,.18.3.87.87,0,0,0,.25.32,1.67,1.67,0,0,0,.3.3c.43.33.68.53.74.59a1.24,1.24,0,0,1,.27.51,2.11,2.11,0,0,1,.1.3c0,.11.11.56.24,1.36A3.68,3.68,0,0,0,938.71,106.2Z"/>
      <path d="M962.41,111.45a.74.74,0,0,1-.46.72,2.66,2.66,0,0,1-1,.13,3.11,3.11,0,0,1-1.27-.26,1.48,1.48,0,0,0-.54-.13l-2,.1-.3-.13a1.38,1.38,0,0,0-.37,0,1,1,0,0,0-.4,0l-.23.13-1.92.11a.23.23,0,0,0-.11,0,1,1,0,0,1-.48.11A1.6,1.6,0,0,1,952,111.2a.6.6,0,0,1,.11-.32.76.76,0,0,0,.12-.35,1.64,1.64,0,0,0,.59-.16,2,2,0,0,1,.65-.2l.61-.07a1.51,1.51,0,0,0,.43-.11.19.19,0,0,0,.12-.18.44.44,0,0,0,0-.13s0,0,0,0-.08-.21-.25-.3l-.53-.28a1.21,1.21,0,0,1-.25-.23,3.65,3.65,0,0,1-.27-.3,3.14,3.14,0,0,1-.44-.78,1,1,0,0,1-.11-.2,1.11,1.11,0,0,0-.29-.23,1.32,1.32,0,0,0-.26-.12.81.81,0,0,1-.28-.15.23.23,0,0,1,0-.19c0-.09,0-.14,0-.16l-.75-.94-.77-1.09a5,5,0,0,0-.78-1,.36.36,0,0,0-.2-.06.39.39,0,0,1-.2-.06l-.17-.23a.92.92,0,0,0-.13-.14l-.8-.61-.72-.54h-.44v.37a.87.87,0,0,1-.11.46l0,1.32.26.41L947,105.9l.12.37-.26,1.15.14.93a2.49,2.49,0,0,0,.25.84,1.7,1.7,0,0,0,.61.68.71.71,0,0,0,.41.1l.26.23a.58.58,0,0,0,.3.18.9.9,0,0,0,.23,0l.43,0a1,1,0,0,1,.3,0,1.36,1.36,0,0,1,.29.19.51.51,0,0,1,0,.21,1.19,1.19,0,0,1-1,1.27l-1.06.14h-.12l-.16,0a1.46,1.46,0,0,1-.38,0l-.27-.23-2.24.09s-.07,0-.15.12a.79.79,0,0,1-.23.17,1,1,0,0,1-.27.09,2.39,2.39,0,0,1-.43,0h-.39a3.56,3.56,0,0,1-.52,0l-.44-.11-.43-.17a1.18,1.18,0,0,1-.35-.21.51.51,0,0,1-.16-.39,1,1,0,0,1,.12-.54.82.82,0,0,1,.29-.36,2.69,2.69,0,0,1,.4-.13l.5-.12a1.72,1.72,0,0,0,.35-.12,1.18,1.18,0,0,0,.38-.32l.26-.63a4.46,4.46,0,0,0,.11-.46c0-.16.06-.27.07-.33V108a2,2,0,0,1,.06-.49,2.2,2.2,0,0,0,0-.59,1.18,1.18,0,0,0-.12-.27.53.53,0,0,0-.12-.14.54.54,0,0,1,.13-.14,1,1,0,0,0,.21-.38,2,2,0,0,0,0-.43c0-.21,0-.36,0-.43a4.29,4.29,0,0,1-.06-.53c0-.19,0-.37,0-.55l.06-.63c0-.24-.07-.49-.11-.73a.5.5,0,0,1,0-.16.27.27,0,0,0,0-.15c0-.12-.08-.24-.11-.37a3.55,3.55,0,0,1,.06-.52,1.64,1.64,0,0,0,.05-.48.46.46,0,0,0-.13-.2.4.4,0,0,1-.1-.13.63.63,0,0,1,0-.17c0-.17,0-.31,0-.43,0-.59.08-1,.08-1.21l0-.45c0-.15,0-.34,0-.55a1.71,1.71,0,0,1,.13-.42,1.62,1.62,0,0,0,.09-.26,1.74,1.74,0,0,0,0-.57,3,3,0,0,1-.07-.53.7.7,0,0,0-.1-.25.67.67,0,0,1-.1-.23.87.87,0,0,0,.09-.37.67.67,0,0,1-.13-.27,1.46,1.46,0,0,1,0-.31,1.17,1.17,0,0,0-.1-.59,1.29,1.29,0,0,0-.45-.36,1,1,0,0,0-.46-.15,1,1,0,0,1-.43-.1.38.38,0,0,1-.23-.25,1.84,1.84,0,0,1-.06-.53c0-.26.22-.51.66-.74a.77.77,0,0,0,.13-.12.35.35,0,0,1,.16-.09l.29-.08a1.22,1.22,0,0,1,.33-.06,2.85,2.85,0,0,1,.49,0c.11,0,.3.08.58.16l.48.09.41.08a2.53,2.53,0,0,0,.37.18h.62l.5,0a1.17,1.17,0,0,0,.29,0,2.5,2.5,0,0,0,.53-.28,1,1,0,0,1,.54-.2l.37.12c.3.12.63.26,1,.42V93a.52.52,0,0,0-.29.23.76.76,0,0,1-.23.24,4.25,4.25,0,0,1-.57.1,1.71,1.71,0,0,0-.62.14,1.65,1.65,0,0,0-.62.52,4.49,4.49,0,0,0-.27.66,4.68,4.68,0,0,0-.25.53,1.83,1.83,0,0,0-.11.64l.07,1.77s-.06.27-.18.75a4.19,4.19,0,0,0-.12.47,1.56,1.56,0,0,0,.23.59c.14.27.32.41.51.41a1,1,0,0,0,.25,0,1.65,1.65,0,0,0,.32-.1,12.89,12.89,0,0,1,1.16-1.08l.31-.26.15-.4c.11-.17.2-.29.26-.39a1.05,1.05,0,0,0,.08-.13l.31-.09a.67.67,0,0,0,.38-.21,3.32,3.32,0,0,0,.4-.7l.12-.4.21-.14a2.54,2.54,0,0,0,.71-.58v-.43a1.43,1.43,0,0,1,.27-.17,1.14,1.14,0,0,0,.28-.21,1.29,1.29,0,0,0,.22-.48,1.62,1.62,0,0,0,.06-.41c0-.14-.19-.32-.56-.54s-.56-.4-.56-.53a.88.88,0,0,1,.23-.48c.12-.16.24-.33.37-.49.49,0,.94-.06,1.36-.06h.47l.31,0h.23l.45.07a.49.49,0,0,0,.23,0l.38,0a2.63,2.63,0,0,0,.38-.07.85.85,0,0,1,.35-.08l.34,0,.63,0a8.21,8.21,0,0,1,1.12.09c.23,0,.51,0,.81,0a3.79,3.79,0,0,1,.71.12,1.12,1.12,0,0,1,.43.27.6.6,0,0,1,.16.4,1.72,1.72,0,0,1-.06.44,1.21,1.21,0,0,1-.18.36.61.61,0,0,1-.24.19,1.55,1.55,0,0,1-.42.08.68.68,0,0,1-.2-.15.77.77,0,0,0-.52-.15.7.7,0,0,0-.32.11s-.2.1-.46.26l-.68.3a1.86,1.86,0,0,1-.4.09,1.37,1.37,0,0,0-.44.13.83.83,0,0,0-.34.26,1.94,1.94,0,0,1-.3.3c-.39.29-.82.64-1.29,1.06a.29.29,0,0,0-.11.17,2.19,2.19,0,0,1-.17.38.94.94,0,0,1-.27.11.83.83,0,0,0-.34.17l-.28.34a1.36,1.36,0,0,1-.24.24,2,2,0,0,1-.71.23.37.37,0,0,0-.21.06l-.29.49-.52.48h-.16l-.18,0a.44.44,0,0,0-.18,0,.43.43,0,0,0-.22.34.37.37,0,0,1-.18.3,1.48,1.48,0,0,1-.48.25l-.37.14a.91.91,0,0,0-.22.23,4,4,0,0,1-.39.44l.09.24a.81.81,0,0,0,.25.22l.41.16a1.54,1.54,0,0,1,.26.13l.74.6.75.49.32.2c0,.12.07.25.1.39a2.24,2.24,0,0,0,.24.51,1.79,1.79,0,0,0,.54.47c.29.19.59.38.9.56a.6.6,0,0,1,.15.09,2.14,2.14,0,0,1,.36.4s0,.11.08.3a.79.79,0,0,0,.18.39l.33.12a.41.41,0,0,1,.22.12,2.43,2.43,0,0,1,.19.28,1.72,1.72,0,0,0,.28.35,4,4,0,0,1,.42.45,1.83,1.83,0,0,0,.23.24,5.22,5.22,0,0,0,.64.55,3.93,3.93,0,0,1,.51.45,3,3,0,0,1,.33.38c.15.19.24.3.29.35a3,3,0,0,0,.44.47,1.28,1.28,0,0,0,.33.21l.43.27a2.33,2.33,0,0,0,.64.27l.83.19a2.4,2.4,0,0,0,.33.2,1.32,1.32,0,0,0,.41.09.74.74,0,0,1,.37.08,2.18,2.18,0,0,1,.37.49A1.21,1.21,0,0,1,962.41,111.45Z"/>
      <path d="M987.08,111.48l-.46.63-.56.24-.85-.24-1.78.16-.75-.11-.81,0h-1.78l-.73.24-.34-.24-.69-.16-.28-.47.16-.48.26-.17.29.14v-.23l.88,0,.38.2.48-.23.36-.43-.15-.37-.6-1.3.1-.23L980,108l-.44-1.58-.31-.59-.06-.55-.5-.94-.11-.86-.51-.18-.62-.19-3.15,0-.6,0-.26,0-.29.18-.06.4-.27.2v.37l-.22.26.16,0-.63,1.38v.71l-.34-.08,0,.47-.52,1.41.28.16-.1.35-.29,0,.08.5.41.34.08.63.26,0,.43.33.52-.06,1.07.34.52.37-.17.38-.19,0-.08.36-1.12-.15-2.19.19-.52-.13-.45.26-.47-.36-.63,0-.8.19-.36-.19-.23.5-.6-.26-.77-.17-.41-.44-.22-.49.56-.68,1-.58,1-.26.4-.26.53-.51.44-.6L970,106l.6-1.3.39-.48v-.63l.43-.37,0-.75.23-.15.51-1.41.34-1,.4-.23,0-.54.62-1.53,0-.48.21-.41.41-1,.22-.2,1-2.59,2.16-1.32.8,0,.58.31.08.58-.19,0,0,.7H979l.39,1.23.12.52.18.34-.12.42.68.65.26-.12.06,1.41-.14,1.22.34.6.1,1,1.63,2,.18.41,0,.89-.12.22,0,.52.47.21,0,.63.2.46.25,1.07v.45l.23.5.6,1.41.4.55.78.34.36.37.23.29h.37Zm-9.58-10v-.75l-.26-.68-.32-.36-.31-.69-.06-.57-.33-.37-.23-.58-.45-.2-.47.49-.34.77-.29.64-.05.63-.29.69.08.49-.39.21.39.34.68.2.63.14.67.23.37-.08.76-.34Z"/>
      <path d="M1006.59,96.56v.62a2.32,2.32,0,0,1,0,.46,9.3,9.3,0,0,1-.3,1.29,6.36,6.36,0,0,1-.32.9,4.37,4.37,0,0,1-1.19,1.36,3.3,3.3,0,0,1-1,.46l-.37,0a.78.78,0,0,0-.18.29l-.14.26a.7.7,0,0,1-.22.23,1.43,1.43,0,0,1-.3.14l-1,.16-1.11.15a1.82,1.82,0,0,1-.38,0,4.58,4.58,0,0,1-.59-.16,4.71,4.71,0,0,1-1-.48c-.32-.21-.49-.41-.49-.59s.25-.26.75-.27a6.38,6.38,0,0,0,1.11-.11,3.65,3.65,0,0,0,.8-.28.89.89,0,0,0,.26-.25.66.66,0,0,1,.18-.15l.25-.06.26-.06a2.65,2.65,0,0,0,.42-.18l.41-.24s0-.07,0-.17,0-.14,0-.15a1.26,1.26,0,0,1,.26-.14.49.49,0,0,0,.2-.12.35.35,0,0,0,.07-.22.78.78,0,0,1,0-.19,2.83,2.83,0,0,1,.14-.26.79.79,0,0,1,.18-.19V96.82a3.33,3.33,0,0,0-.3-.58c-.16-.26-.24-.42-.27-.47a.21.21,0,0,1,0-.15.54.54,0,0,1,0-.08.3.3,0,0,0-.08-.16l-.37-.16-.48-.53c-.19-.2-.35-.35-.47-.46a1.54,1.54,0,0,0-.83-.39h-2c-.08-.1-.14-.19-.2-.28a.19.19,0,0,0-.22,0,1.39,1.39,0,0,0-.57.4,1.11,1.11,0,0,0-.17.66.68.68,0,0,0,.16.35.75.75,0,0,1,.15.32c0,.07,0,.13-.15.19s-.16.1-.16.15l0,2.84,0,4.13a.79.79,0,0,1-.1.4l-.15.26a.63.63,0,0,0,0,.23,1.22,1.22,0,0,0,.07.3c0,.14.08.22.09.26q.13.72.21,1.23a5.65,5.65,0,0,1,.09,1,1,1,0,0,1-.15.64c-.1.11-.15.18-.15.22l.09.2a3.3,3.3,0,0,1,.27.92s0,.08-.11.16-.12.15-.12.19.11.17.31.23a1.36,1.36,0,0,0,.18.68,2.14,2.14,0,0,0,.52.57.73.73,0,0,0,.26.09l.22.06a1.59,1.59,0,0,1,.33.45,2.94,2.94,0,0,0,.25.41,2.23,2.23,0,0,0,.22.21.37.37,0,0,1,.09.22,1.49,1.49,0,0,1-.34.27,2,2,0,0,0-.35.36l-3,.16-.85-.16h-3.15a.67.67,0,0,0-.27,0l-.55,0A.68.68,0,0,1,991,112a1.87,1.87,0,0,1-.25-.19,6.73,6.73,0,0,1-.54-.69,1.43,1.43,0,0,0-.39-.39v-.22a1.69,1.69,0,0,0,.5-.17l.23-.15.34-.14a1.39,1.39,0,0,1,.38-.09l1.15-.11a3.18,3.18,0,0,0,.83-.09.8.8,0,0,0,.49-.37,1.08,1.08,0,0,0,.08-.49v-.32a1.34,1.34,0,0,0-.07-.4.79.79,0,0,1-.07-.3c0-.17,0-.47,0-.92s0-.71,0-.78v-.57l-.06-.32c0-.05,0-.12-.05-.22a5.55,5.55,0,0,1-.15-.7,2.88,2.88,0,0,1-.06-.41,2,2,0,0,0-.06-.39.27.27,0,0,0-.13-.16c-.08,0-.12-.07-.12-.08a.9.9,0,0,1-.07-.24c0-.07,0-.12,0-.16a3.47,3.47,0,0,0,.32-.55,2.71,2.71,0,0,0,.27-.89.63.63,0,0,0,0-.17c0-.18,0-.43,0-.73s0-.48,0-.51a.46.46,0,0,1,.07-.21.35.35,0,0,0,0-.2l-.05-1.06.05-1a.32.32,0,0,1,.07-.18.35.35,0,0,0,.07-.16.34.34,0,0,0-.07-.17.3.3,0,0,1-.07-.16l.06-1.15-.06-1.06a1.17,1.17,0,0,0-.22-.73,1.87,1.87,0,0,0-.67-.46l-.57-.22a1.14,1.14,0,0,1-.23-.15l-.35-.32-.21-.13c-.07-.05-.1-.14-.1-.29a.47.47,0,0,1,.27-.45,1.36,1.36,0,0,1,.67-.14,3,3,0,0,1,.45,0l.33,0a.9.9,0,0,0,.31,0,1.39,1.39,0,0,0,.32-.25,12.23,12.23,0,0,1,1.32.06,9,9,0,0,1,1.27.26.67.67,0,0,0,.24,0l.36,0,.59,0,.58-.07a.4.4,0,0,0,.2-.07.46.46,0,0,1,.17-.08l.52.15a4.28,4.28,0,0,0,1.09.16,1.38,1.38,0,0,0,.52-.1l.44-.21a.41.41,0,0,1,.24.15.82.82,0,0,0,.32.19l1.08.18a3.52,3.52,0,0,1,.54.12,1.93,1.93,0,0,0,.65.17,1.56,1.56,0,0,1,.62.19.57.57,0,0,1,.23.25.85.85,0,0,0,.19.27l.66.47a2.81,2.81,0,0,1,.34.36,2.15,2.15,0,0,1,.29.59,2.7,2.7,0,0,0,.14.4,5.28,5.28,0,0,1,.2.75A3.54,3.54,0,0,1,1006.59,96.56Z"/>
      <path d="M1027.1,107.78a1.72,1.72,0,0,0-.25.66c0,.09,0,.22,0,.38a8,8,0,0,0-.52.87,5.42,5.42,0,0,0-.4,1,1.35,1.35,0,0,0,0,.2,1.28,1.28,0,0,0,.09.4,1.22,1.22,0,0,1,.09.32.68.68,0,0,1-.29.64,1.61,1.61,0,0,1-.8.17,2.29,2.29,0,0,1-.69-.1l-.56-.19a.75.75,0,0,0-.26,0,1.22,1.22,0,0,0-.25.26h-2.6l-.11-.06a3.09,3.09,0,0,0-1-.23h-2.4a2.47,2.47,0,0,1-.34-.13,1.22,1.22,0,0,0-.34-.12h-.55l-.48,0-.52.06-.92.17-3.75-.17c0-.15-.09-.28-.12-.4a1.23,1.23,0,0,1,0-.39c0-.39.25-.71.77-1a2.81,2.81,0,0,1,1.18-.27l.08-.34a.92.92,0,0,0,0-.29,4.32,4.32,0,0,0,0-.46,3.42,3.42,0,0,1,0-.41,1.42,1.42,0,0,0,0-.19.62.62,0,0,1,.13-.17.47.47,0,0,0,.13-.18,5.71,5.71,0,0,0,.09-.82c0-.28,0-.55,0-.82v-.32a3.58,3.58,0,0,0-.15-1,3.79,3.79,0,0,1-.14-.84,1.34,1.34,0,0,1,0-.43,1.06,1.06,0,0,1,.25-.28v-1.85a.36.36,0,0,0,0-.11,2,2,0,0,1-.1-.76,3,3,0,0,1,.15-1c.07-.17.14-.34.2-.51l.05-.61-.31-.15.2-.83.06-.8-.16-.2.16-.73v-1.1a.28.28,0,0,0-.1-.17.72.72,0,0,1-.11-.48,4,4,0,0,1-1.19-.24c-.67-.23-1-.52-1-.87a.39.39,0,0,1,.14-.23l.39-.39.31-.27a.6.6,0,0,1,.31-.19l.52.16,1.12.27.76.18H1016a.2.2,0,0,1,.14,0,.53.53,0,0,0,.32.09,1.29,1.29,0,0,0,.36-.06,7.42,7.42,0,0,1,1.19-.24,5.51,5.51,0,0,0,.58.11,3.29,3.29,0,0,0,.57,0,8.19,8.19,0,0,0,.85,0,8.84,8.84,0,0,0,1.19-.2,6.43,6.43,0,0,1,.71-.08l.47,0,.58.08.38,0a1,1,0,0,0,.43-.07,2.29,2.29,0,0,0,.54-.52,1,1,0,0,1,.69-.38l.26.05c.09,0,.14,0,.15.1.11.4.18.7.22.91.15.64.23,1,.23,1a2.59,2.59,0,0,1-.15.91,1.41,1.41,0,0,1-.42.61v2.33c-.13.09-.38.23-.73.43a2.35,2.35,0,0,1-.37.19.31.31,0,0,1-.23-.12,1.41,1.41,0,0,0-.28-.28,1.77,1.77,0,0,1-.44-.41,3.29,3.29,0,0,1-.28-.49c-.13-.26-.21-.43-.24-.5a2.55,2.55,0,0,1-.2-.55,4.16,4.16,0,0,0-.32-1,1.34,1.34,0,0,0-1.12-.41h-1.86a.32.32,0,0,1-.19-.1c-.08-.06-.13-.1-.18-.1l-.79.08-.52.18-.31-.26h-1a5.77,5.77,0,0,1-.35.67,1.07,1.07,0,0,0-.17.56,8.5,8.5,0,0,0,.11,1c.07.49.13.82.18,1a5.23,5.23,0,0,1,0,.74c-.08,1.28-.11,2.41-.11,3.41a1.64,1.64,0,0,1,.22.18l.17.18h2.61a.63.63,0,0,0,.35-.14,1.24,1.24,0,0,1,.33-.18l.19,0a.76.76,0,0,1,.31.07l.33.13c.18,0,.32-.16.45-.47l.22-.69.16-.72a2,2,0,0,0,.21-.33l.21-.43c.11-.15.21-.23.31-.23a.33.33,0,0,1,.22.09l.19.16a2.65,2.65,0,0,1,.35.15.64.64,0,0,1,.24.29,1.69,1.69,0,0,1,.11.49q0,.3,0,.63l0,.77a1.28,1.28,0,0,0,.14.38,1.1,1.1,0,0,1,.15.45.77.77,0,0,1-.15.43.72.72,0,0,0-.14.36v1.72l-.28.21a.37.37,0,0,1-.23.11h-.16l-.22,0a1.52,1.52,0,0,1-.8-.15,2.87,2.87,0,0,1-.35-.48s-.06-.16-.14-.41a.58.58,0,0,0-.14-.27.6.6,0,0,0-.41-.12,2.29,2.29,0,0,1-.44-.06,1.67,1.67,0,0,0-.39,0h-.58l-1.22-.19a1.43,1.43,0,0,1-.63-.39h-1.34v1l.16.26-.11.58.06.52,0,.73-.22.31.3,1.1,0,.63-.35.26.06.3a3,3,0,0,0,.17.74,1.14,1.14,0,0,0,.35.47,2.53,2.53,0,0,0,1.26.55,8.32,8.32,0,0,0,1.47.11,1.58,1.58,0,0,0,.48,0l.23-.09h1.71a2.66,2.66,0,0,0,1.06-.25,6.43,6.43,0,0,0,1.17-.68l.47-.32a5,5,0,0,0,.61-.56c.27-.27.45-.44.54-.52a1,1,0,0,1,.22-.13.65.65,0,0,0,.19-.09l.54-.42a.63.63,0,0,1,.34-.16,1,1,0,0,1,.3.06,1.12,1.12,0,0,0,.25.08Z"/>
      <path d="M1050.09,92.74l-.12.77-.26.89c-.1.27-.17.47-.23.61a3.71,3.71,0,0,1-.31.53.72.72,0,0,1-.6.33,1.1,1.1,0,0,1-.66-.29l-.3-.36-.48-.42a3.77,3.77,0,0,0-.52-.37h-.49a.5.5,0,0,1-.16,0,1.94,1.94,0,0,0-.34-.11,3.6,3.6,0,0,0-.44-.12,2.5,2.5,0,0,1-.36-.12,1.24,1.24,0,0,0-.48-.16h-2.13l-.26.3a.45.45,0,0,0-.12.28.81.81,0,0,0,.12.22,1.25,1.25,0,0,1,.17.35,1.44,1.44,0,0,1,.05.37v.69a9.06,9.06,0,0,1-.28,1.29,3.09,3.09,0,0,1-.21.64l.21,1v.67l-.21.41v1.11a.48.48,0,0,0,.09.23,1,1,0,0,1,.21.47v.77l.08.26-.08,1.7v.26a1.39,1.39,0,0,1,0,.32.74.74,0,0,1-.15.27.45.45,0,0,0-.12.27,1.37,1.37,0,0,0,0,.3c0,.14.07.28.11.43l.15,1a3.68,3.68,0,0,1,0,.45,2.12,2.12,0,0,0,.06.56.42.42,0,0,0,.24.29.56.56,0,0,1-.08.15.3.3,0,0,0,0,.19.88.88,0,0,0,.43.66l.41.26a3.84,3.84,0,0,1,.42.31,2.52,2.52,0,0,1,.33.33,1.26,1.26,0,0,1,.26.77v.37a.61.61,0,0,1-.15.26.54.54,0,0,1-.22.15.62.62,0,0,1-.33,0,1.3,1.3,0,0,0-.32-.08h-1.09l-.88,0q-.32,0-.84-.12a.21.21,0,0,1-.19-.1.19.19,0,0,0-.18-.08,1,1,0,0,0-.18.16c-.1.11-.38.16-.83.16h-1l-.84,0-.7-.09a6.52,6.52,0,0,1-.65-.15,1.62,1.62,0,0,1-.42-.19.61.61,0,0,1-.23-.28,2,2,0,0,1-.05-.48c0-.34.06-.52.19-.54s.22-.2.29-.5a2.47,2.47,0,0,0,.43-.05,6.09,6.09,0,0,1,.78-.11h.24a.71.71,0,0,0,.32-.17,1.82,1.82,0,0,0,.42-.59,1.71,1.71,0,0,0,.18-.74l-.15-.54a3.63,3.63,0,0,1-.16-.8.79.79,0,0,1,.13-.44l.33-.37a1.14,1.14,0,0,0,0-.42,3.21,3.21,0,0,1-.07-.65,2.9,2.9,0,0,1,.07-.37,1.09,1.09,0,0,0,0-.26.66.66,0,0,0-.07-.23.71.71,0,0,1-.08-.28v-2.55a.41.41,0,0,1,0-.19,1.9,1.9,0,0,0,.11-.31.31.31,0,0,0,0-.18,1.62,1.62,0,0,1-.1-.18,4.41,4.41,0,0,1,0-.52c0-.18,0-.33.08-.46a1.61,1.61,0,0,1,.14-.38.81.81,0,0,0,.09-.27V97.67a1.52,1.52,0,0,1,0-.32.83.83,0,0,1,.05-.2.43.43,0,0,0,0-.14v-.17l-.19-1.2v-.78l.19-.43-.36-.36A.58.58,0,0,0,1037,94l-.26.23a.8.8,0,0,1-.46.13.64.64,0,0,1-.31-.13l-.21-.13a.6.6,0,0,0-.26,0,.46.46,0,0,0-.23.06l-.2.12-.78.27a3.79,3.79,0,0,1-.94.18h-.55a.2.2,0,0,0-.06.14.88.88,0,0,1-.18.35,10.67,10.67,0,0,1-.73.91q-.48.54-.84.87l-.24.24a.66.66,0,0,1-.43.26.71.71,0,0,1-.68-.5,2.73,2.73,0,0,1-.13-.94.94.94,0,0,1,.2-.64,1.94,1.94,0,0,0,.29-.46,3.31,3.31,0,0,0,.1-.48,2.55,2.55,0,0,1,.16-.56,3.73,3.73,0,0,1,.29-.54c.13-.21.24-.39.34-.52a1.44,1.44,0,0,1,.33-.32,1.75,1.75,0,0,0,.29-.25l.07-.37a2.16,2.16,0,0,1,.49-.31l.59-.27,1.74.06.47.16.26-.16.42-.06a.77.77,0,0,0,.19.15,2.24,2.24,0,0,0,.74.28,2,2,0,0,0,.36,0h4.56l1.89.26.32-.2,1.79-.06a3.23,3.23,0,0,1,.89.29,1.62,1.62,0,0,0,.55.15,2.14,2.14,0,0,0,.45.05,1.53,1.53,0,0,0,.3,0,2.19,2.19,0,0,0,.48-.13l.62-.2a3.08,3.08,0,0,0,.39-.12l.09,0a.86.86,0,0,1,.58.36A1.08,1.08,0,0,1,1050.09,92.74Z"/>
    </g>
  </g>
</svg>