<svg xmlns="http://www.w3.org/2000/svg" viewBox="0 0 121 121"><defs></defs><g id="Layer_2" data-name="Layer 2"><g id="Layer_2-2" data-name="Layer 2"><path d="M101.75,46.48A48.64,48.64,0,0,0,87.93,53.4c-19.48,14-21.9,34-52.71,34-12.22,0-16-3-16-6s3.83-6.11,6.55-6.11a1.32,1.32,0,0,1,1.42,1.44c0,1.62-1.83,4.17-6.14,4.92a.83.83,0,0,0-.53.75c0,3.24,8.38,3.92,10,3.92,22.67,0,42.62-25.86,62-36.64C76,57.39,67.51,71.72,42.77,71.72c-17.83,0-26-8.48-26-18.32,0-13.65,15.64-29.92,42.8-29.92,8,0,12.75,3.3,14.64,7.85,2.59-.25,5.25-.43,8.09-.43,14,0,20.42,6.6,21.25,14a33.57,33.57,0,0,1,8.14-1,27.72,27.72,0,0,1,6.79.81l-.41,1.56A21.58,21.58,0,0,0,110.9,45a28.35,28.35,0,0,0-7.2.94v.56c0,8.48-7,17.51-18.25,19-.7,4.49-7.38,12.84-7.38,17.51,0,2,.77,2.75,1.89,2.75,1.42,0,3.31-1.13,4.79-2.06,2.83-1.81,6.49-4.55,10.62-7.42l.24.5c-4.08,2.81-7.68,5.55-10.69,7.48A13.66,13.66,0,0,1,78,86.8c-2.72,0-4.49-1.68-4.49-5.36,0-3.86,7.38-11.59,9.56-15.7h-.94c-2.07,0-3.07-.88-3.07-1.81,0-1.25,1.53-2,3.13-2s3.3.82,3.3,2.93C94.49,63.18,101.27,54.58,101.75,46.48ZM74.41,31.83a12.39,12.39,0,0,1,.83,4.49c0,10-10.21,22.06-28.39,22.06-5.08,0-7.44-2.18-7.44-5.3,0-6.91,12-18.63,33.06-21.5-.71-4.3-4.61-7.41-13.35-7.41C33,24.17,17.45,40.06,17.45,53.4c0,9.53,8,17.76,25.91,17.76C69,71.16,77.25,54.21,98,46.6c1.3-.5,2.54-.87,3.84-1.24-.18-7.36-5.79-14-20-14A69.39,69.39,0,0,0,74.41,31.83ZM45.84,57.51c12.34,0,26.74-14.65,26.74-24.49,0-.32,0-.69,0-1C52,34.89,40.12,46.79,40.12,53.27,40.12,55.83,42,57.51,45.84,57.51Zm35.78,5.05c-1,0-1.83.43-1.83,1.24s.82,1.38,2.59,1.38h1a3,3,0,0,0,.35-1.25C83.68,63.06,82.62,62.56,81.62,62.56Z"/><path d="M5.93,44.8A1.23,1.23,0,0,1,6,44.58c0-.06.1-.07.19,0a.41.41,0,0,1,.28.24,1,1,0,0,1,.06.36,3.28,3.28,0,0,0,0,.34.2.2,0,0,0,.13.2l.22,0h.24l.2,0s.09,0,.09-.06a.85.85,0,0,1,.22-.09l.2,0a.41.41,0,0,1,.19,0h.19l.39,0,.48,0a3.2,3.2,0,0,0,.48-.08,2.21,2.21,0,0,0,.38-.11.3.3,0,0,0,.19-.14.22.22,0,0,0-.07-.18,1.39,1.39,0,0,0-.21-.21,2.36,2.36,0,0,0-.33-.25,2.81,2.81,0,0,0-.34-.38,7,7,0,0,0-.55-.53c-.21-.18-.4-.35-.59-.5a1.78,1.78,0,0,0-.46-.29.19.19,0,0,0-.19,0l-.13.11a.53.53,0,0,1-.13.13A.2.2,0,0,1,7,43a.25.25,0,0,1-.16-.12.45.45,0,0,1,0-.2,1,1,0,0,1,0-.19.86.86,0,0,1,0-.13L7,41.84a.21.21,0,0,1,0-.06l0-.05,0,0a2.73,2.73,0,0,0,.1-.38c0-.08,0-.15,0-.2a1.21,1.21,0,0,1,.07-.41l.1-.21,0-.24A.41.41,0,0,1,7.61,40a.33.33,0,0,1,.31,0,.38.38,0,0,1,.19.11.26.26,0,0,1,.07.15,1,1,0,0,1,0,.18v.19a5.51,5.51,0,0,0-.06.57.55.55,0,0,0,.18.49l.23.14.1.12a2.61,2.61,0,0,0,.17.2l.2.21a2.62,2.62,0,0,0,.21.17l.11.12a.76.76,0,0,1,.08.11.37.37,0,0,1,.06.1l.34.29a1.69,1.69,0,0,1,.3.36c.39.34.76.63,1.1.89l.43.33.42.31.34.23a.89.89,0,0,0,.23.11l.32.1a.81.81,0,0,1,.28.14c.07,0,.08.15,0,.31a1.08,1.08,0,0,1-.08.19.33.33,0,0,1-.13.16c-.08.09-.15.13-.22.12a.33.33,0,0,0-.19,0,.47.47,0,0,1-.28,0l-.24,0-.21,0a.54.54,0,0,0-.23,0,.39.39,0,0,1-.22,0,2.93,2.93,0,0,1-.48.07l-.46,0-.48,0a3.33,3.33,0,0,0-.56.12H9.23l-.2,0H8.86l-.32,0a.84.84,0,0,0-.23,0l-.31.1L7.62,47A3.83,3.83,0,0,0,6.74,47a1,1,0,0,0-.65.24c-.32.32-.55.46-.7.41s-.15-.16-.08-.37L5.38,47a2,2,0,0,0,.06-.41c0-.09,0-.18,0-.27l.13-.41.15-.27,0-.22a.88.88,0,0,0,0-.16,1,1,0,0,1,0-.12Z"/><path d="M8.91,36.78l.07-.1.1-.15.11-.16.07-.12.07-.06.16,0,.19,0a.47.47,0,0,1,.17,0s0,.07,0,.17,0,.2-.07.32,0,.23-.05.33,0,.16.05.18l.77.34a.62.62,0,0,0,.19,0l.15,0,.1,0,.47.35.12,0,.21,0L12,38l.12,0,.6.15a2.23,2.23,0,0,1,.4.24,1.55,1.55,0,0,0,.25.17l.31.14a.17.17,0,0,1,.09.11s.1.11.25.18a.22.22,0,0,0,.12,0l.15,0,.12-.06s.07-.05.08-.08l.17-.21a.54.54,0,0,1,.6-.1.28.28,0,0,1,.13.28,1.06,1.06,0,0,1-.08.4l-.08.19-.1.2-.09.21-.3.35a.71.71,0,0,0,0,.21,2.36,2.36,0,0,0,0,.28l0,.28a.61.61,0,0,1,0,.15.35.35,0,0,1-.15.15.21.21,0,0,1-.2,0,.3.3,0,0,1-.16-.22L14,40.74A1.69,1.69,0,0,0,14,40.4a.3.3,0,0,0-.24-.19c-.14,0-.23,0-.27-.07A.36.36,0,0,0,13.3,40L13,39.9l-.73-.33-1.59-.71h-.35a1.56,1.56,0,0,1-.2-.16L10,38.57l-.12-.08-.36-.12a.64.64,0,0,0-.24,0,.25.25,0,0,0-.13.09l-.08.12L9,38.73l-.11.12a.36.36,0,0,1-.19,0,.91.91,0,0,1-.33-.09l-.08,0s0,0,0-.06a.06.06,0,0,1,0-.07l.09-.21L8.47,38a.27.27,0,0,1,.06-.1.39.39,0,0,1,.08-.1l.1-.1a1.62,1.62,0,0,0,.06-.17,1.94,1.94,0,0,0,.05-.2l.06-.25,0-.12a.18.18,0,0,0,0-.13Z"/><path d="M13.44,28.1s.05,0,.12,0a1,1,0,0,1,.22,0l.23.07.16.06.74.45.15.09a1.84,1.84,0,0,1,.22.17.82.82,0,0,1,.16.22.24.24,0,0,1,0,.22.45.45,0,0,1-.23.21.58.58,0,0,1-.26,0,1.66,1.66,0,0,1-.29-.1,1.11,1.11,0,0,0-.3-.08.63.63,0,0,0-.3,0,.73.73,0,0,0-.27.28l-.33.57a.23.23,0,0,0-.06.12.65.65,0,0,0,0,.13l0,.15a.46.46,0,0,0-.06.42.56.56,0,0,0,.27.32l.5.3.14.09a.18.18,0,0,0,.16,0l.37.29,1.67,1a1.86,1.86,0,0,0,.36.17.61.61,0,0,0,.26,0,.64.64,0,0,0,.2,0l.18,0a2.35,2.35,0,0,1,.26-.22,1.25,1.25,0,0,0,.23-.27,1,1,0,0,1,.47-.35.5.5,0,0,1,.38,0,.4.4,0,0,1,.21.28.67.67,0,0,1-.06.47.54.54,0,0,1-.14.16l-.15.14a1.37,1.37,0,0,0-.13.2l-.15.23a1.16,1.16,0,0,1-.16.21.9.9,0,0,1-.19.15l0,.06-.55.92a1,1,0,0,0-.1.28,1.32,1.32,0,0,1-.2.46q-.09.16-.18.3a1.77,1.77,0,0,0-.16.22l-.1.16a.11.11,0,0,0,0,.1s0,.12-.08.23l-.07,0H16.4l-.08,0-.17-.24L16,36.53a1.17,1.17,0,0,1-.1-.26c0-.11.05-.22.07-.32a1.44,1.44,0,0,1,.05-.24,1.27,1.27,0,0,1,0-.15l.19-.56a.18.18,0,0,0,0-.18l-.18-.18a2.3,2.3,0,0,0-.31-.22l-1.09-.65-.12-.13-.05-.09-1.32-.79a.91.91,0,0,1-.16-.11l-.14-.11-.11,0a.55.55,0,0,0-.18,0,.61.61,0,0,0-.18,0,.26.26,0,0,0-.12.11l-.69,1.14a.66.66,0,0,0-.12.38.53.53,0,0,0,.09.3,1.16,1.16,0,0,0,.2.25A1.51,1.51,0,0,1,12,35a.64.64,0,0,1,.12.25.43.43,0,0,1-.07.29.3.3,0,0,1-.25.15.61.61,0,0,1-.3-.08l-.12-.09-.16-.14L11,35.24l-.1-.08-.42-.42-.14-.1-.2-.19a2.39,2.39,0,0,1-.16-.22.17.17,0,0,1,0-.18.39.39,0,0,1,.18-.18l.21-.1.16-.08a.45.45,0,0,0,.14-.16.77.77,0,0,0,.09-.2,1.62,1.62,0,0,1,.08-.2l.13-.21a.19.19,0,0,0,.07-.06l.07-.08.07-.11.93-1.55.12-.31.22-.26a5,5,0,0,0,.25-.46,3.14,3.14,0,0,1,.23-.45l.3-.5a1.07,1.07,0,0,0,.14-.36,1.92,1.92,0,0,0,0-.32,1.77,1.77,0,0,0,0-.24A.35.35,0,0,1,13.44,28.1Z"/><path d="M19.28,20.94s0,0,.12,0l.21.08.22.11.14.09.66.55a1.53,1.53,0,0,1,.13.13,1.21,1.21,0,0,1,.19.2.57.57,0,0,1,.12.23.24.24,0,0,1,0,.22.47.47,0,0,1-.26.17.63.63,0,0,1-.26,0l-.27-.14A1.17,1.17,0,0,0,20,22.4a.61.61,0,0,0-.3,0,.67.67,0,0,0-.31.23l-.43.51a.86.86,0,0,0-.07.1.49.49,0,0,0-.06.13l-.06.14a.49.49,0,0,0-.13.4.68.68,0,0,0,.22.37l.44.37.13.12a.2.2,0,0,0,.16,0l.32.35,1.48,1.26a2.06,2.06,0,0,0,.32.22.76.76,0,0,0,.25.09.74.74,0,0,0,.21,0l.18,0,.3-.17a.92.92,0,0,0,.26-.23,1,1,0,0,1,.52-.27.47.47,0,0,1,.38.07.38.38,0,0,1,.16.31.68.68,0,0,1-.13.45.79.79,0,0,1-.17.14l-.17.11-.16.17-.18.21-.2.18a.56.56,0,0,1-.2.11l0,.06-.69.81a1.49,1.49,0,0,0-.14.27,1.65,1.65,0,0,1-.27.42l-.23.26c-.07.06-.13.13-.19.19l-.13.14A.14.14,0,0,0,21,30s0,.11-.12.21h-.13a.25.25,0,0,1-.08-.05,1.23,1.23,0,0,1-.12-.26l-.09-.25a1.51,1.51,0,0,1-.05-.28q.06-.16.12-.3a1.69,1.69,0,0,1,.08-.24l.07-.14.28-.52A.15.15,0,0,0,21,28a.74.74,0,0,0-.14-.22,3.49,3.49,0,0,0-.27-.26l-1-.82a.85.85,0,0,1-.09-.14l-.05-.1-1.17-1-.13-.14L18,25.24a.19.19,0,0,0-.11,0,.47.47,0,0,0-.17,0,.55.55,0,0,0-.18,0,.38.38,0,0,0-.15.09l-.86,1a.62.62,0,0,0-.18.35.55.55,0,0,0,0,.31.88.88,0,0,0,.16.28,2.33,2.33,0,0,1,.17.26.59.59,0,0,1,.07.26.39.39,0,0,1-.11.28.31.31,0,0,1-.28.11.68.68,0,0,1-.27-.13L16,27.92l-.14-.16a1.83,1.83,0,0,1-.13-.16l-.09-.1L15.31,27l-.11-.12a2.11,2.11,0,0,1-.17-.22,1.34,1.34,0,0,1-.12-.24c0-.08,0-.14,0-.18a.39.39,0,0,1,.2-.15l.23-.06a.49.49,0,0,0,.17-.06.46.46,0,0,0,.16-.13,1.67,1.67,0,0,0,.12-.19,1.36,1.36,0,0,1,.12-.18l.15-.19a.12.12,0,0,0,.08,0l.08-.07.1-.09,1.17-1.39.16-.28.26-.22a4.63,4.63,0,0,0,.32-.42,3.38,3.38,0,0,1,.31-.41l.37-.44a1.17,1.17,0,0,0,.2-.33,2.43,2.43,0,0,0,.09-.3,1.48,1.48,0,0,0,0-.24A.19.19,0,0,1,19.28,20.94Z"/><path d="M22.73,18.28l.12-.08.12-.09.18-.13.25-.21.23-.34.11-.15a.5.5,0,0,1,.08-.12.3.3,0,0,1,.07-.08.53.53,0,0,1,.2-.1l.25-.05a1,1,0,0,1,.33.21,1,1,0,0,0,.32.21l.15,0,.21.08a1.23,1.23,0,0,0,.26.12c.1.11.08.24-.07.37a.47.47,0,0,1-.24.06l-.44.06a2.8,2.8,0,0,0-.57.17,2.05,2.05,0,0,0-.63.41l-.13.19a2,2,0,0,1,0,.23.19.19,0,0,0,0,.13l.07.09.09.16a.54.54,0,0,0,.07.13.35.35,0,0,0,.06.09l.57.65a.72.72,0,0,0,.29.2.22.22,0,0,0,.27,0l.09-.08.11-.15.13-.19.18-.16a.31.31,0,0,0,.1-.15c0-.06,0-.12,0-.18l0-.16a.23.23,0,0,1,.07-.13s.05,0,.1,0l.14,0,.18,0,.53.59a.29.29,0,0,1,0,.46.56.56,0,0,1-.2.11l-.2,0a.9.9,0,0,1-.24.07.37.37,0,0,0-.21.1l-.14.13-.18.16c-.15.13-.22.24-.22.34a.75.75,0,0,0,.23.37l.2.23a2.75,2.75,0,0,1,.26.22,2.12,2.12,0,0,0,.24.2.48.48,0,0,0,.24.11.46.46,0,0,0,.29-.07l.51-.45a1.16,1.16,0,0,0,.22-.29,3,3,0,0,0,.19-.4l.19-.35a.88.88,0,0,1,.2-.25h.23a.08.08,0,0,1,.07,0,.21.21,0,0,1,.06.16.69.69,0,0,1,0,.2,1.28,1.28,0,0,0,0,.4c0,.11.07.21.1.31a.69.69,0,0,1,0,.28.44.44,0,0,1-.15.26l-.11.07-.13.05-.15.07-.18.13-.84.8-.24.35-.48.42L26,24.4l-.13.21-.25.26a.22.22,0,0,1-.13.05h-.18a.45.45,0,0,1-.16,0l-.1,0c-.13-.15-.09-.33.13-.52a1.63,1.63,0,0,0,.09-.19,1.28,1.28,0,0,1,.15-.29.64.64,0,0,0,.15-.35,1,1,0,0,0-.27-.43.22.22,0,0,1-.05-.13c0-.05-.05-.07-.13-.07a.38.38,0,0,0-.09-.09L25,22.71l-.14-.08-.15-.17-.29-.32-.2-.23-.49-.69-.13-.15a.21.21,0,0,1,0-.09s0,0-.05-.08L23,20.43l-.23-.26-.24-.26a.18.18,0,0,0-.2-.05.39.39,0,0,0-.18.07l-.25.22a.36.36,0,0,1-.38.08.93.93,0,0,1-.37-.27.2.2,0,0,1,0-.14.21.21,0,0,1,.07-.14l.29-.26.18-.16.16-.16a2.26,2.26,0,0,1,.27-.27Z"/><path d="M29.64,12.68a.69.69,0,0,1,.48-.1l.5.08a.82.82,0,0,0,.49.19l.22.07a.52.52,0,0,1,.21.13s.07,0,.13,0a.69.69,0,0,1,.21.15l.19.18a1,1,0,0,1,.11.11,1.92,1.92,0,0,1,.16.35c0,.13.07.27.1.42s0,.29.06.43,0,.26,0,.35a.27.27,0,0,1,0,.18c0,.06-.05.11-.07.16a.29.29,0,0,0,0,.16.29.29,0,0,0,.06.19,1,1,0,0,0,.25.25,2.65,2.65,0,0,0,.39.26,3.52,3.52,0,0,0,.4.19.52.52,0,0,0,.27.07,1.07,1.07,0,0,1,.35.06l.36.1a2.2,2.2,0,0,0,.37.06.76.76,0,0,0,.36-.06l.24-.05a.68.68,0,0,1,.28,0,.25.25,0,0,1,.12,0s0,.05.06.11a.3.3,0,0,1,0,.26.87.87,0,0,1-.2.23l-.24.18-.14.07a.35.35,0,0,0-.23.06.65.65,0,0,1-.19.11,3,3,0,0,1-.55,0,2.47,2.47,0,0,0-.39,0h-.22l-.31,0L33,17.56l-.33-.07a2.08,2.08,0,0,1-.4-.15L32,17.18,31.7,17a.64.64,0,0,0-.24-.07,1.37,1.37,0,0,1-.31,0,.37.37,0,0,0-.25.07.27.27,0,0,0-.13.2.65.65,0,0,0,0,.24,1.22,1.22,0,0,0,.1.24c0,.08.08.14.11.19l.42.39.14.2a.51.51,0,0,0,.39.25,1.83,1.83,0,0,0,.47,0l.44-.07a.28.28,0,0,1,.3.12.17.17,0,0,1,0,.17.22.22,0,0,1-.09.13l-.36.24-.61.3-.22.15-.47.31-.17.11-.39.27-.2.11c-.12.06-.24.13-.38.19a1.64,1.64,0,0,1-.4.12c-.13,0-.22,0-.27-.07a.11.11,0,0,1,0-.08l0-.11a1.21,1.21,0,0,1,.05-.14l.1-.05.13-.06.16-.08.2-.13a.58.58,0,0,0,.26-.34.36.36,0,0,0,0-.33l-.7-1.05L28.7,16.8,28.3,16a2.3,2.3,0,0,1-.2-.22l-.21-.24a1.11,1.11,0,0,0-.24-.16.34.34,0,0,0-.28,0l-.39.26-.23.13a1.25,1.25,0,0,1-.26.07.51.51,0,0,1-.24,0,.46.46,0,0,1-.22-.2s0-.05,0-.09a.5.5,0,0,1,0-.13,1,1,0,0,1,.09-.17L27.8,14l1-.69.1-.08a1.85,1.85,0,0,0,.14-.14,1.53,1.53,0,0,0,.18-.18Zm-.26,1.65-.08.08a.31.31,0,0,1-.09.11.53.53,0,0,0-.08.15.24.24,0,0,0-.09.16.33.33,0,0,0,.07.25l.11.17.26.38.12.17a.37.37,0,0,1,0,.18.33.33,0,0,0,.05.15h.1a.17.17,0,0,1,.06.06.24.24,0,0,0,.14.17.48.48,0,0,0,.24.06,1.09,1.09,0,0,0,.26,0,1,1,0,0,0,.2-.08l.13-.2.1-.16a.27.27,0,0,1,.1-.11l.25-.05a.35.35,0,0,0,.15-.25,1.3,1.3,0,0,0,0-.34,1.68,1.68,0,0,0-.09-.32l-.06-.19L31,14.45a.64.64,0,0,0-.1-.13.49.49,0,0,0-.19-.08l-.14-.17a.28.28,0,0,0-.21-.11L30.2,14l-.29.1-.32.11Z"/><path d="M34.2,10.15l.12-.06a.57.57,0,0,1,.25,0,.71.71,0,0,0,.32-.07l.26-.24.43-.19.2-.1a.2.2,0,0,1,.22,0,.22.22,0,0,1,.07.09.62.62,0,0,1,.08.36.29.29,0,0,1-.11.19l-.2.14a.75.75,0,0,0-.2.15.43.43,0,0,0-.09.24,1.13,1.13,0,0,0,.12.43,1.37,1.37,0,0,0,.17.25,1.37,1.37,0,0,1,.17.26l.14.3a.62.62,0,0,0,.32.32.54.54,0,0,0,.45,0,.35.35,0,0,0,.13-.11A.13.13,0,0,0,37.1,12l.42-.11.33-.16.19-.08.17-.07a.47.47,0,0,1,.31,0,.24.24,0,0,0,.08-.06l0,0a.36.36,0,0,0,.07-.1.1.1,0,0,1,.05-.06l.42-.2a.53.53,0,0,0,.06-.19.31.31,0,0,0,0-.19l-.07-.15-.32-.7-.37-.49-.09-.19a.16.16,0,0,0-.14-.11.67.67,0,0,0-.2,0,.75.75,0,0,1-.21,0,.31.31,0,0,1-.18-.19.36.36,0,0,1,0-.3.45.45,0,0,1,.24-.25l.34,0,.31-.08a2,2,0,0,0,.34-.12L39,8.08l.3-.14a1,1,0,0,1,.27-.09.74.74,0,0,1,.29,0,.5.5,0,0,1,.27.07.43.43,0,0,1,.21.23v.14l-.22.17-.3.14s-.09.1-.12.23a.38.38,0,0,0,0,.3l.34.73.19.43.14.22a1.9,1.9,0,0,1,.14.24.2.2,0,0,1,0,.11.71.71,0,0,0,0,.14.8.8,0,0,0,0,.23l.15.31.14.3a1.46,1.46,0,0,0,.17.3,1.64,1.64,0,0,1,.16.28.66.66,0,0,1,.06.2.69.69,0,0,0,.09.25l0,.13s0,.06,0,.09a.47.47,0,0,0,.05.1.59.59,0,0,0,.08.11.37.37,0,0,0,.29.11,2.71,2.71,0,0,0,.4,0l.38,0c.12,0,.19,0,.22.09a.26.26,0,0,1,0,.15.91.91,0,0,1-.07.14,1.16,1.16,0,0,1-.11.16l-.6.28-.3.14-.31.14-.56.12-.25.26-.1,0-.14,0h-.15a.23.23,0,0,1-.11-.11.28.28,0,0,1,0-.25l.16-.28a1.4,1.4,0,0,0,.13-.36.82.82,0,0,0-.08-.46l-.14-.3-.14-.31-.16-.32-.14-.31a.43.43,0,0,0-.15-.16.2.2,0,0,0-.2,0l-.3.14-.39.19a1.08,1.08,0,0,1-.25,0,.6.6,0,0,0-.23,0l-.22.1-.31.14-.29.14-.22.1a.67.67,0,0,0-.32.27.39.39,0,0,0,0,.39l.32.7a1.64,1.64,0,0,0,0,.26.21.21,0,0,0,0,.11.4.4,0,0,0,.12.15.54.54,0,0,1,.14.2.26.26,0,0,0,.16.25,1.8,1.8,0,0,0,.35.08l.38,0a.27.27,0,0,1,.24.14s0,0,0,.09a.47.47,0,0,1-.09.12l-.11.1-.09.06-.16,0-.24,0a1.28,1.28,0,0,0-.27,0,1.22,1.22,0,0,0-.27.09l-.08.1-.09.08-.08.05-.12.06-.31.14-.18.09a.79.79,0,0,1-.34.06.31.31,0,0,1-.27-.19,1.71,1.71,0,0,1-.09-.3.21.21,0,0,1,.14-.24l.18-.15a.35.35,0,0,0,.14-.21.42.42,0,0,0,0-.24l-.2-.42L36,14.56a1.4,1.4,0,0,0-.19-.26,1.59,1.59,0,0,1-.26-.41l-.24-.51a.5.5,0,0,1,0-.13,1.18,1.18,0,0,1,0-.2c0-.08,0-.15,0-.21l0-.13-.36-.45a.57.57,0,0,1-.05-.26c0-.06,0-.12,0-.19l-.34-.73c0-.05-.08-.07-.18-.06l-.32.06-.31.08c-.09,0-.14,0-.15,0a.58.58,0,0,1,0-.41.39.39,0,0,1,.2-.28l.53-.28Z"/><path d="M44.26,6.24a.35.35,0,0,1,.14,0l.15,0,.21,0,.32-.09.36-.2.15-.1.13-.08.1,0a.54.54,0,0,1,.22,0,.92.92,0,0,1,.25.06A1.17,1.17,0,0,1,46.5,6a1.32,1.32,0,0,0,.2.33.36.36,0,0,1,.12.11l.15.16a1.86,1.86,0,0,0,.19.22c0,.14,0,.24-.22.3a.42.42,0,0,1-.24,0c-.12,0-.26-.09-.43-.13a2.52,2.52,0,0,0-.59-.09,2.35,2.35,0,0,0-.75.1l-.2.13a1,1,0,0,1-.08.21.18.18,0,0,0,0,.13l0,.11a1.09,1.09,0,0,1,0,.18.76.76,0,0,0,0,.15s0,.08,0,.11l.25.83a.9.9,0,0,0,.17.3.23.23,0,0,0,.26.09.37.37,0,0,0,.11,0l.17-.09.2-.11.23-.07a.38.38,0,0,0,.15-.09l.12-.14.1-.14a.22.22,0,0,1,.12-.09.16.16,0,0,1,.09,0l.13.08.15.1.23.76c.06.22,0,.35-.19.41a.46.46,0,0,1-.23,0,.59.59,0,0,1-.2-.06.86.86,0,0,1-.24,0,.37.37,0,0,0-.23,0l-.19,0-.23.07c-.19.06-.3.13-.33.22a.69.69,0,0,0,0,.43l.09.29a2.92,2.92,0,0,1,.14.31,2.55,2.55,0,0,0,.13.29.49.49,0,0,0,.18.2.43.43,0,0,0,.29.06l.64-.2a1.15,1.15,0,0,0,.34-.16A2.86,2.86,0,0,0,47.5,11l.33-.23a1,1,0,0,1,.28-.15l.12.05.09.05s0,0,0,.06a.25.25,0,0,1,0,.17.81.81,0,0,1-.1.18,1.21,1.21,0,0,0-.14.37c0,.12,0,.23,0,.33a.88.88,0,0,1-.09.26.43.43,0,0,1-.25.17l-.13,0h-.3l-.22.05-1.1.36-.37.21-.61.18-.34.11-.21.13-.34.13a.23.23,0,0,1-.14,0,.46.46,0,0,1-.16-.07.45.45,0,0,1-.13-.1s-.07-.06-.07-.08c-.06-.19.05-.33.34-.42l.16-.13a1.28,1.28,0,0,1,.25-.2.54.54,0,0,0,.28-.25.84.84,0,0,0-.06-.51.2.2,0,0,1,0-.13s0-.09-.08-.12a.61.61,0,0,0-.05-.12.41.41,0,0,0-.07-.11l-.09-.14-.06-.21-.13-.42L44,10.13l-.15-.83-.06-.19s0-.08,0-.1,0,0,0-.1l-.18-.61L43.53,8l-.1-.34a.21.21,0,0,0-.17-.14.43.43,0,0,0-.19,0l-.32.1a.35.35,0,0,1-.37-.09,1,1,0,0,1-.23-.4.19.19,0,0,1,0-.14.21.21,0,0,1,.11-.1l.38-.11.23-.07.21-.08.36-.13Z"/><path d="M55.65,3.57s.06,0,.09.08a.86.86,0,0,1,.11.19c0,.08.07.16.1.23a1,1,0,0,1,0,.17l.13.85a1.55,1.55,0,0,1,0,.18,2.44,2.44,0,0,1,0,.27.71.71,0,0,1-.07.26.19.19,0,0,1-.17.13.35.35,0,0,1-.3,0,.51.51,0,0,1-.17-.21,1.82,1.82,0,0,1-.11-.28,1,1,0,0,0-.13-.29.58.58,0,0,0-.21-.2.8.8,0,0,0-.39,0L54,5l-.13,0a.52.52,0,0,0-.13.06l-.13.06a.48.48,0,0,0-.36.22.55.55,0,0,0-.08.42l.08.57a1.11,1.11,0,0,1,0,.17.24.24,0,0,0,.09.14v.47l.29,1.93a1.63,1.63,0,0,0,.09.38,1,1,0,0,0,.13.23A1.07,1.07,0,0,0,54,9.8l.15.1.33.07a1.08,1.08,0,0,0,.36,0,1,1,0,0,1,.56.14.48.48,0,0,1,.24.3.4.4,0,0,1-.08.34.69.69,0,0,1-.4.25h-.21l-.21,0-.24,0-.26,0H54a.56.56,0,0,1-.23,0h-.07l-1.06.16a1.23,1.23,0,0,0-.28.11,2.09,2.09,0,0,1-.48.14l-.35,0-.27,0-.18,0a.15.15,0,0,0-.09.06s-.1.07-.23.09a.13.13,0,0,1-.06-.05l0,0a.46.46,0,0,1,0-.09c0-.09,0-.18.08-.28a2.56,2.56,0,0,1,.11-.24,1,1,0,0,1,.14-.24l.29-.16.22-.11.14-.06.55-.22c.06,0,.09-.05.12-.13a1,1,0,0,0,0-.25,2.87,2.87,0,0,0,0-.38l-.19-1.25a.73.73,0,0,1,0-.18l0-.1-.23-1.52a1.21,1.21,0,0,1,0-.19,1,1,0,0,0,0-.18.19.19,0,0,0,0-.1.75.75,0,0,0-.27-.23.38.38,0,0,0-.17,0l-1.32.2a.79.79,0,0,0-.37.15.56.56,0,0,0-.17.26,1,1,0,0,0-.07.31,1.55,1.55,0,0,1,0,.31.58.58,0,0,1-.12.25A.43.43,0,0,1,49,7.2a.28.28,0,0,1-.27-.1.5.5,0,0,1-.12-.28.58.58,0,0,1,0-.15,1.48,1.48,0,0,1,0-.21,1.55,1.55,0,0,0,0-.21V6.12l.06-.59a.67.67,0,0,1,0-.17,1.32,1.32,0,0,1,0-.27,1.07,1.07,0,0,1,.06-.27c0-.07.07-.12.13-.12a.4.4,0,0,1,.25,0l.22.1a.46.46,0,0,0,.16.07.47.47,0,0,0,.21,0l.21-.06a1,1,0,0,1,.21-.07l.24,0a.13.13,0,0,0,.09,0h.24l1.79-.27.31-.11h.34a4.59,4.59,0,0,0,.51-.1c.18,0,.34-.08.5-.11l.57-.08A1.15,1.15,0,0,0,55.09,4a2.29,2.29,0,0,0,.28-.17l.18-.15S55.63,3.57,55.65,3.57Z"/><path d="M58.42,4.8a.67.67,0,0,1,.07-.33.85.85,0,0,1,.17-.25L58.92,4l.3-.19a6.6,6.6,0,0,1,.59-.34,1.48,1.48,0,0,1,.67-.13h.44a.71.71,0,0,1,.4.16.69.69,0,0,1,.23.29.86.86,0,0,1,.07.38.77.77,0,0,1,0,.25.9.9,0,0,1-.12.24.55.55,0,0,1-.19.18.51.51,0,0,1-.24.07.33.33,0,0,1-.21-.07,1,1,0,0,1-.15-.14l-.14-.13a.29.29,0,0,0-.2-.07,1.73,1.73,0,0,0-.32,0,.83.83,0,0,0-.29.11.79.79,0,0,0-.22.18.45.45,0,0,0-.08.26.22.22,0,0,0,.1.21.69.69,0,0,0,.23.08l.3,0a.66.66,0,0,1,.28.09l.56.3a4.38,4.38,0,0,1,.54.33l.19.1.16.08.17.08.19.13a3,3,0,0,1,.56.56,1.17,1.17,0,0,1,.21.73v.28a.71.71,0,0,0,0,.26.54.54,0,0,1,0,.27.7.7,0,0,1-.09.4,2.56,2.56,0,0,0-.2.37.22.22,0,0,0,0,.16s0,.09,0,.14a.29.29,0,0,1-.15.2.52.52,0,0,0-.2.17,1.57,1.57,0,0,1-.21.17l-.19.14-.19.13-.25.13a2.07,2.07,0,0,1-.41.19l-.42.11-.14.08a.21.21,0,0,1-.16.06l-.16,0-.14,0a1,1,0,0,0-.28,0,.65.65,0,0,1-.26,0,.33.33,0,0,1-.15,0,.35.35,0,0,0-.15-.07A.66.66,0,0,0,59,11a.62.62,0,0,1-.23,0,.32.32,0,0,1-.22-.07,1,1,0,0,0-.22-.16,1,1,0,0,0-.25-.1.65.65,0,0,1-.25-.16.25.25,0,0,1-.15-.19.9.9,0,0,0-.08-.25l-.17-.31a.69.69,0,0,1-.08-.36.83.83,0,0,1,.26-.6.86.86,0,0,1,.64-.26.92.92,0,0,1,.43.09.33.33,0,0,1,.21.31.31.31,0,0,1,0,.11.19.19,0,0,0,0,.08.17.17,0,0,0,0,.13.23.23,0,0,1,0,.11.2.2,0,0,1,0,.07.08.08,0,0,0,0,.06.46.46,0,0,0,.1.31.83.83,0,0,0,.24.21,1,1,0,0,0,.35.13,1.64,1.64,0,0,0,.38,0,1.38,1.38,0,0,0,.7-.18,2.14,2.14,0,0,0,.57-.48,3.43,3.43,0,0,0,.24-.33.87.87,0,0,0,.09-.42.52.52,0,0,0-.07-.27.61.61,0,0,1-.08-.26s0-.06,0-.06,0,0,0,0a.53.53,0,0,0-.1-.32,1.12,1.12,0,0,0-.26-.22l-.35-.18-.36-.18a.15.15,0,0,1-.08-.08.14.14,0,0,0-.09-.08A.73.73,0,0,0,60,7a.37.37,0,0,1-.23-.1.38.38,0,0,1-.13-.12.46.46,0,0,0-.14-.14.75.75,0,0,0-.23-.07.36.36,0,0,1-.23-.1l-.13-.14a.49.49,0,0,1-.1-.16A.88.88,0,0,0,58.53,6a.25.25,0,0,1-.14-.25v-.3s0-.09,0-.14a.78.78,0,0,1,0-.16.19.19,0,0,1,0-.08s0,0,0-.07a.37.37,0,0,1,0-.11A.08.08,0,0,0,58.42,4.8Z"/><path d="M65.25,5a.71.71,0,0,1,.1-.32,1.15,1.15,0,0,1,.21-.23,1.89,1.89,0,0,1,.28-.17l.32-.15q.34-.16.63-.27a1.49,1.49,0,0,1,.68-.05l.44.06a.68.68,0,0,1,.37.2.74.74,0,0,1,.2.32,1,1,0,0,1,0,.39.73.73,0,0,1-.07.24.91.91,0,0,1-.15.23.8.8,0,0,1-.21.15.52.52,0,0,1-.25,0,.31.31,0,0,1-.2-.09l-.13-.15L67.37,5a.37.37,0,0,0-.19-.08,1.15,1.15,0,0,0-.32,0,1.08,1.08,0,0,0-.31.07.51.51,0,0,0-.23.15.37.37,0,0,0-.12.25.21.21,0,0,0,.07.21.71.71,0,0,0,.23.12l.28.08a.9.9,0,0,1,.28.13l.52.36.49.4a.94.94,0,0,0,.18.12l.15.1.15.1.17.15a2.88,2.88,0,0,1,.49.62,1.17,1.17,0,0,1,.12.76l0,.27a.78.78,0,0,0,0,.27.78.78,0,0,1,0,.27.7.7,0,0,1-.15.39,3.33,3.33,0,0,0-.24.34.23.23,0,0,0,0,.16.15.15,0,0,1-.05.13.37.37,0,0,1-.18.19.57.57,0,0,0-.23.14l-.22.14-.2.12-.22.1-.26.1a2.57,2.57,0,0,1-.42.14l-.43.06a.44.44,0,0,0-.16.06.25.25,0,0,1-.16,0l-.16,0a.28.28,0,0,0-.13,0,.7.7,0,0,0-.29,0,.74.74,0,0,1-.26,0,.17.17,0,0,1-.14-.06.37.37,0,0,0-.14-.08.75.75,0,0,0-.23-.07,1.11,1.11,0,0,1-.23,0,.29.29,0,0,1-.2-.11,1.2,1.2,0,0,0-.2-.18.94.94,0,0,0-.24-.13.74.74,0,0,1-.23-.19.26.26,0,0,1-.12-.21.85.85,0,0,0,0-.25c-.05-.14-.1-.25-.13-.34a.65.65,0,0,1,0-.36A.81.81,0,0,1,64,8.79a.87.87,0,0,1,.66-.18,1.06,1.06,0,0,1,.42.15.35.35,0,0,1,.17.33.81.81,0,0,1,0,.11.11.11,0,0,0,0,.08.18.18,0,0,0,0,.13.15.15,0,0,1,0,.11.13.13,0,0,1,0,.07l0,.06a.49.49,0,0,0,.06.32.71.71,0,0,0,.22.24,1.09,1.09,0,0,0,.32.17,1.75,1.75,0,0,0,.38.09,1.36,1.36,0,0,0,.72-.1,2,2,0,0,0,.62-.41,1.9,1.9,0,0,0,.28-.29.9.9,0,0,0,.14-.41.51.51,0,0,0,0-.27.51.51,0,0,1,0-.27s0-.06,0-.06,0,0,0,0a.52.52,0,0,0-.07-.33,1.07,1.07,0,0,0-.23-.25,3,3,0,0,0-.32-.22l-.34-.22a.22.22,0,0,1-.07-.09.14.14,0,0,0-.08-.09.67.67,0,0,0-.23-.1.3.3,0,0,1-.21-.13.31.31,0,0,1-.12-.14.55.55,0,0,0-.11-.15.68.68,0,0,0-.23-.09.52.52,0,0,1-.22-.13l-.1-.16a.54.54,0,0,1-.09-.17.6.6,0,0,0-.21-.21.29.29,0,0,1-.11-.27l0-.3a.66.66,0,0,0,0-.14.92.92,0,0,1,0-.16s0-.06,0-.08a.12.12,0,0,0,0-.07l0-.1A.15.15,0,0,0,65.25,5Z"/><path d="M74.35,6.35a.54.54,0,0,1,.3.17.62.62,0,0,1,.09.28,1.94,1.94,0,0,1,0,.33c0,.11,0,.22,0,.33l-.08.35c0,.08,0,.19.08.32a.86.86,0,0,1,0,.39l-.06.24a1.05,1.05,0,0,0,0,.19c0,.1,0,.22,0,.35s0,.25,0,.36a1.23,1.23,0,0,1,0,.23,3.74,3.74,0,0,0-.07.5,4.47,4.47,0,0,0,0,.63,3,3,0,0,0,0,.55c0,.16.09.25.17.27a.71.71,0,0,1,.21.08.34.34,0,0,0,.12.06l.1,0,.15.07a.68.68,0,0,1,.12.12.18.18,0,0,1,0,.16.3.3,0,0,1-.2.24.79.79,0,0,1-.34,0l-.64-.18-.27-.07-.49-.12-.21-.05-.28,0-.19-.06c-.09,0-.12-.06-.11-.11a.27.27,0,0,1,.17-.19,1.14,1.14,0,0,1,.33-.08.92.92,0,0,0,.25,0,.21.21,0,0,0,.14-.17.5.5,0,0,0,0-.15,2.17,2.17,0,0,0,0-.26c0-.1,0-.18,0-.26s0-.11-.06-.12a1.7,1.7,0,0,1,0-.22,1.77,1.77,0,0,0,0-.22.25.25,0,0,0,0-.16.22.22,0,0,0-.16-.07l-.33-.08-.11,0-.17,0-.18,0a.22.22,0,0,0-.12,0c-.09,0-.14.07-.14.14a1.18,1.18,0,0,1,0,.25l-.12.13a1.2,1.2,0,0,0-.17.21,1.37,1.37,0,0,0-.15.21.41.41,0,0,0-.07.12.21.21,0,0,0,0,.18.49.49,0,0,0,.12.13.5.5,0,0,1,.11.16.41.41,0,0,1,0,.27.15.15,0,0,1-.06.09l-.11,0h-.11l-.09,0s0,0,0,0h-.06s0,0-.08-.07l-.1,0-.13-.05-.17-.06a.53.53,0,0,0-.21,0,.53.53,0,0,1-.21,0l-.2,0h-.09l0,0h0l-.17-.05L70,11.4a.56.56,0,0,1-.2-.12c-.05,0-.08-.08-.07-.12a.5.5,0,0,1,.19-.29.42.42,0,0,1,.33,0h.2a.17.17,0,0,0,.08,0l.13-.05.14-.08.13-.05a2,2,0,0,1,.34-.48l.41-.48c.07-.1.14-.2.23-.31l.25-.26c.09-.11.18-.22.25-.32l.22-.32a3.87,3.87,0,0,1,.21-.34l.25-.34a1.62,1.62,0,0,0,.19-.29q.08-.15.15-.33l.18-.34a2.54,2.54,0,0,1,.23-.34L74,6.39a.79.79,0,0,1,.22-.08ZM72.26,4.6a.28.28,0,0,1,.12-.16.64.64,0,0,1,.19-.08l.23,0H73l.15-.06.13-.11a.57.57,0,0,1,.13-.08.19.19,0,0,1,.15,0c.08,0,.12.08.13.18a.76.76,0,0,0,0,.27,1.35,1.35,0,0,0,.08.24A2.14,2.14,0,0,0,74,5,.9.9,0,0,1,74,5.2a.6.6,0,0,1,0,.26.1.1,0,0,1-.07.08l-.13,0-.16,0a.46.46,0,0,0-.14,0l-.13.1-.09.1a.19.19,0,0,1-.09,0h-.13a.29.29,0,0,1-.17-.1.83.83,0,0,1-.09-.16l-.09-.18a.59.59,0,0,0-.13-.18.52.52,0,0,1-.13-.18c0-.08-.07-.16-.1-.23s0-.14-.07-.19A.58.58,0,0,1,72.26,4.6Zm1.53,3.5a.16.16,0,0,0-.13,0,.45.45,0,0,0-.13.11.6.6,0,0,0-.09.13l0,.09a1.06,1.06,0,0,1,0,.14.11.11,0,0,1,0,.07l0,.09-.09.17,0,.08s0,.08.06.13a.33.33,0,0,0,.14.09l.09,0,.13,0h.12a.11.11,0,0,0,.07-.08.25.25,0,0,0,0-.21.22.22,0,0,1,0-.15l.1-.43a.44.44,0,0,0,0-.17C73.85,8.15,73.83,8.11,73.79,8.1ZM75.08,5a1.74,1.74,0,0,1,.34-.16l.38-.12a.15.15,0,0,0,.09,0L76,4.62l.08-.06h.08a.22.22,0,0,1,.13.1.75.75,0,0,1,0,.16,1.18,1.18,0,0,1,0,.2.64.64,0,0,0,.06.18.37.37,0,0,0,.1.17l.12.14a.61.61,0,0,1,.07.14.32.32,0,0,1,0,.17.34.34,0,0,1-.09.14L76.46,6l-.18.08a.54.54,0,0,0-.16.1.85.85,0,0,1-.17.16.22.22,0,0,1-.21,0,.19.19,0,0,1-.16-.12.44.44,0,0,0-.12-.17A.43.43,0,0,0,75.32,6a.4.4,0,0,1-.13-.17,1.44,1.44,0,0,0-.07-.22A.45.45,0,0,0,75,5.42a.45.45,0,0,0-.13-.11s-.06-.07,0-.13,0-.1.11-.1A.41.41,0,0,0,75.08,5Z"/><path d="M81.3,7.88a.63.63,0,0,1,.26.2.29.29,0,0,1,0,.31l-.08.22-.29.06-.22,0h-.14l-.34-.13a.56.56,0,0,0-.42,0,.53.53,0,0,0-.28.32l-.13.34a3.12,3.12,0,0,1-.32.63c-.14.22-.28.43-.4.63l-.24.62-.24.63-.12.31,0,.12a.86.86,0,0,0,0,.13,1.15,1.15,0,0,0,0,.19,1.16,1.16,0,0,0,0,.18.23.23,0,0,0,.12.12l.32.12.33.12.32.12h.21l.39,0,.42-.06a2.34,2.34,0,0,0,.32-.07l.24-.08a.25.25,0,0,1,.19,0,.76.76,0,0,1,.17-.15.17.17,0,0,1,.13,0,.37.37,0,0,1,.16.14c.06.08.09.14.07.19a1.35,1.35,0,0,1-.19.22l-.43.43a5.08,5.08,0,0,1-.5.44,1.05,1.05,0,0,1-.43.24.33.33,0,0,1-.22,0l-.35-.1-.47-.17-.31-.12L78.62,14a2.77,2.77,0,0,1-.46-.22c-.14-.09-.25-.13-.31-.11l-.16,0-.59-.08L77,13.47l-.21-.14-.22-.13-.13-.07a.58.58,0,0,0-.18,0h-.31a.31.31,0,0,1-.16-.13.33.33,0,0,1,0-.17.51.51,0,0,1,0-.17.83.83,0,0,1,0-.12c.06-.16.15-.24.26-.24l.37,0a1.21,1.21,0,0,0,.38,0c.13,0,.23-.15.31-.36l.36-.94.41-.81.15-.4.08-.17.14-.26L78.44,9a.4.4,0,0,0,0-.19.22.22,0,0,1,0-.16l.05-.12a.8.8,0,0,0,.07-.47.93.93,0,0,0-.15-.26c-.06-.07-.11-.15-.16-.22a.45.45,0,0,1,0-.35.34.34,0,0,1,.12-.18.75.75,0,0,1,.17-.1.35.35,0,0,1,.17,0h.11Z"/><path d="M87.74,10.9a.59.59,0,0,1,.24.23.31.31,0,0,1,0,.32l-.11.2-.3,0h-.22c-.07,0-.12,0-.14,0l-.32-.16a.54.54,0,0,0-.42-.06.52.52,0,0,0-.31.28l-.17.32a3.79,3.79,0,0,1-.4.58l-.48.58-.31.58-.32.59-.15.3-.07.12s0,.06,0,.12a.57.57,0,0,0,0,.18.59.59,0,0,0,0,.19.24.24,0,0,0,.11.13l.3.16.31.17.3.16.21,0,.39,0h.43a1.27,1.27,0,0,0,.32,0l.25-.05a.29.29,0,0,1,.19,0l.19-.12a.15.15,0,0,1,.12,0c.05,0,.09.08.15.17s.07.15,0,.19a1.2,1.2,0,0,1-.22.2l-.48.37a4.81,4.81,0,0,1-.55.37,1.11,1.11,0,0,1-.45.19s-.11,0-.22,0a2.41,2.41,0,0,1-.33-.15l-.45-.22-.29-.16-.2-.1a2.87,2.87,0,0,1-.43-.28q-.19-.16-.3-.15l-.15,0L82.87,16l-.13-.08-.19-.16-.19-.16-.13-.08a.36.36,0,0,0-.17-.07l-.15,0-.15,0a.27.27,0,0,1-.15-.15.32.32,0,0,1,0-.17.75.75,0,0,1,0-.16.67.67,0,0,1,.06-.12c.08-.15.17-.22.29-.2a1.82,1.82,0,0,1,.36.08,1.58,1.58,0,0,0,.38,0c.12,0,.24-.12.35-.31l.47-.89.51-.75.2-.38s0-.09.1-.16l.17-.25.23-.31a.22.22,0,0,0,0-.18.35.35,0,0,1,0-.16l.06-.12a.74.74,0,0,0,.13-.45.78.78,0,0,0-.11-.28.94.94,0,0,1-.13-.24.44.44,0,0,1,.06-.35A.46.46,0,0,1,85,9.72a.67.67,0,0,1,.18-.07h.17l.11,0Z"/><path d="M91.2,14a.69.69,0,0,1,.24-.24.75.75,0,0,1,.29-.09,1.72,1.72,0,0,1,.33,0l.36,0a6,6,0,0,1,.67.06,1.48,1.48,0,0,1,.62.28l.36.26a.66.66,0,0,1,.23.36.81.81,0,0,1,0,.37,1,1,0,0,1-.17.35.62.62,0,0,1-.18.18.76.76,0,0,1-.23.13.58.58,0,0,1-.26,0,.42.42,0,0,1-.24-.09.27.27,0,0,1-.13-.17,1.42,1.42,0,0,1,0-.2A1.29,1.29,0,0,0,93,15a.33.33,0,0,0-.12-.17l-.28-.16-.3-.09a.65.65,0,0,0-.28,0,.38.38,0,0,0-.22.16.22.22,0,0,0,0,.23.81.81,0,0,0,.14.2l.21.21a.69.69,0,0,1,.18.24c.12.22.21.41.29.57l.24.58.1.2.09.15.08.17a1.56,1.56,0,0,1,.08.21,3,3,0,0,1,.13.78,1.15,1.15,0,0,1-.25.73l-.16.22a.86.86,0,0,0-.11.24,1.06,1.06,0,0,1-.11.25.71.71,0,0,1-.32.27l-.37.18a.41.41,0,0,0-.1.14s0,.07-.11.09a.28.28,0,0,1-.24.07.78.78,0,0,0-.26,0l-.27,0h-.23l-.24,0-.27,0a2.29,2.29,0,0,1-.45-.08l-.4-.15a.33.33,0,0,0-.17,0,.27.27,0,0,1-.16-.05.44.44,0,0,1-.12-.11L88.9,20a.86.86,0,0,0-.25-.13.73.73,0,0,1-.23-.12.21.21,0,0,1-.1-.12.28.28,0,0,0-.09-.14.44.44,0,0,0-.16-.17l-.18-.15a.27.27,0,0,1-.13-.19,2,2,0,0,0-.09-.26,1.28,1.28,0,0,0-.14-.23.48.48,0,0,1-.12-.27.26.26,0,0,1,0-.24.61.61,0,0,0,.07-.25,2.06,2.06,0,0,0,0-.35.73.73,0,0,1,.15-.34.81.81,0,0,1,.56-.34.85.85,0,0,1,.67.16.92.92,0,0,1,.29.33.31.31,0,0,1,0,.37.29.29,0,0,1-.07.08.18.18,0,0,0-.07.05.24.24,0,0,0,0,.13A.15.15,0,0,1,89,18s0,0,0,0l0,.05a.51.51,0,0,0-.1.3.76.76,0,0,0,.08.32A1,1,0,0,0,89,19a2.26,2.26,0,0,0,.29.25,1.36,1.36,0,0,0,.68.26,2.34,2.34,0,0,0,.74-.06,1.88,1.88,0,0,0,.38-.13.73.73,0,0,0,.32-.29.49.49,0,0,0,.1-.26.5.5,0,0,1,.09-.25s0,0,0,0,0,0,0,0a.5.5,0,0,0,.11-.32,1,1,0,0,0-.09-.33,2.7,2.7,0,0,0-.17-.34c-.07-.12-.14-.24-.2-.36a.14.14,0,0,1,0-.11.21.21,0,0,0,0-.12.53.53,0,0,0-.16-.2.37.37,0,0,1-.12-.21.45.45,0,0,1,0-.18.35.35,0,0,0,0-.19.79.79,0,0,0-.15-.19.41.41,0,0,1-.13-.22,1.37,1.37,0,0,1,0-.19.54.54,0,0,1,0-.18A.57.57,0,0,0,90.6,15a.26.26,0,0,1,0-.29l.17-.25a.75.75,0,0,0,.07-.12l.08-.13.06-.06,0-.06.07-.07Z"/><path d="M101.25,20.89a.52.52,0,0,1,.18.43.5.5,0,0,1-.13.39.32.32,0,0,1-.37.09,1.81,1.81,0,0,1-.44-.22,3,3,0,0,1-.38-.3l-.2-.19L99.58,21a1.7,1.7,0,0,0-.35,0l-.45,0-.48.06a3.42,3.42,0,0,0-.4.09.5.5,0,0,0-.23.1.29.29,0,0,0-.07.16,1.14,1.14,0,0,1,0,.26,1.86,1.86,0,0,0,0,.34v.32a2.13,2.13,0,0,0,0,.27,1.52,1.52,0,0,0,0,.19,1.67,1.67,0,0,1,0,.28l-.06.36-.06.37a.89.89,0,0,0,0,.33,2.23,2.23,0,0,0,0,.33c0,.12,0,.25,0,.38s0,.3,0,.47l.18.16.2.17a.29.29,0,0,1,.12.26,1.92,1.92,0,0,1-.07.29.8.8,0,0,1-.2.32.48.48,0,0,1-.36.13.88.88,0,0,1-.53-.28l-.23-.22a1.77,1.77,0,0,1-.14-.17l-.09-.19-.12-.28-.07-.25a.74.74,0,0,1-.08-.34,2.87,2.87,0,0,1,0-.41c0-.25,0-.54,0-.88s0-.64.09-.93.1-.44.14-.65a2.79,2.79,0,0,0,0-.55.57.57,0,0,0-.16-.32.19.19,0,0,0-.16-.05.14.14,0,0,0-.14,0,1.48,1.48,0,0,0-.25.35,1.52,1.52,0,0,1-.2.31l-.17.18-.08.23-.23.24a.6.6,0,0,0-.2.49,1.19,1.19,0,0,0,.15.46l.23.38c.08.11.09.19,0,.25a.35.35,0,0,1-.22.12.41.41,0,0,1-.22,0,.59.59,0,0,1-.2-.07l-.1-.06-.08-.15s-.06-.05-.08,0a.09.09,0,0,1-.07,0l-.44-.41a.82.82,0,0,1-.11-.17l-.08-.16a.34.34,0,0,1,0-.16l-.24-.24-.19-.12-.36-.2-.38-.23a1.54,1.54,0,0,1-.28-.21l-.1-.09a.5.5,0,0,1-.11-.18.22.22,0,0,1,0-.22.56.56,0,0,1,.18-.11,1.54,1.54,0,0,1,.28-.09l.28,0a.31.31,0,0,1,.21.06l.07.07.34.18.31.3a.08.08,0,0,0,.11,0,.43.43,0,0,0,.12-.11l.16-.16.12-.09a.66.66,0,0,0,.18-.23,1,1,0,0,1,.28-.34l.27-.24.16-.17.32-.34a2.2,2.2,0,0,0,.2-.23.46.46,0,0,0,.1-.23l.39-.41a1.88,1.88,0,0,1,.24-.18l.18-.14.12-.12a.64.64,0,0,0,.22-.51,1.49,1.49,0,0,0-.17-.44,4.23,4.23,0,0,1-.23-.37.25.25,0,0,1,0-.33.37.37,0,0,1,.22-.12.61.61,0,0,1,.23,0,.62.62,0,0,1,.22.1l.17.14.14.13.09.09a.48.48,0,0,1,.09.1.83.83,0,0,0,.12.16l.12.16a.57.57,0,0,0,.1.11l.24.23.41.25a.8.8,0,0,1,.18.29.28.28,0,0,1,0,.34l-.1.1a.06.06,0,0,1-.08,0,.44.44,0,0,0-.19-.1,1,1,0,0,0-.25,0,.57.57,0,0,0-.25.06.6.6,0,0,0-.21.14l-.16.17a1.64,1.64,0,0,0-.22.32c0,.09-.11.18-.16.28l-.07.07a.93.93,0,0,0,0,.13.34.34,0,0,0,0,.1.1.1,0,0,0,0,.08.11.11,0,0,0,.1,0l.16,0a5.19,5.19,0,0,0,.87-.23l.5-.17L99.2,20a2.13,2.13,0,0,1,.58-.13c.17,0,.28,0,.33.07l.11.1a.22.22,0,0,0,.13.06c.05,0,.1,0,.17.09Z"/><path d="M103.43,23.28a.23.23,0,0,1,0,.1.7.7,0,0,1,0,.14l1.29,1.61.48.91.21.26a.76.76,0,0,1,.17.6,1.9,1.9,0,0,1-.2.64,2.79,2.79,0,0,1-.37.57,2.43,2.43,0,0,1-.35.36,2.68,2.68,0,0,1-.37.26,2,2,0,0,1-.47.22,1.29,1.29,0,0,1-.52.07,1,1,0,0,1-.52-.19.59.59,0,0,0-.11-.09.8.8,0,0,0-.16-.08l-.15-.08a.17.17,0,0,1-.09-.06l-.14-.2A1.82,1.82,0,0,1,102,28a1.57,1.57,0,0,1-.06-.28.27.27,0,0,1,.1-.22.24.24,0,0,1,.24-.06.74.74,0,0,1,.22.13l.26.21a1,1,0,0,0,.33.15,1,1,0,0,0,.47-.06,2.23,2.23,0,0,0,.64-.39l.12-.11a.37.37,0,0,0,.08-.18.84.84,0,0,0,0-.36,1.89,1.89,0,0,0-.1-.41,2.32,2.32,0,0,0-.14-.35.76.76,0,0,0-.11-.19l-.13-.16a.22.22,0,0,0-.09-.07l-.14,0a.25.25,0,0,0-.12,0,.1.1,0,0,0-.07.08l-1.23,1-.44.36-.54.43L101,28l-.28.13-.21.12-.14.08c-.17.14-.25.28-.22.41a1.12,1.12,0,0,0,.17.37,2,2,0,0,1,.22.32.19.19,0,0,1,0,.27l-.11.09a.35.35,0,0,1-.12,0l-.17,0a.48.48,0,0,1-.17,0,.19.19,0,0,1-.11-.05l-.13-.16a1,1,0,0,1-.14-.28,1.13,1.13,0,0,0-.13-.27l-.48-.6-.14-.15-.24-.22a3.08,3.08,0,0,1-.26-.24l-.17-.19-.15-.2a.45.45,0,0,1-.09-.2.34.34,0,0,1,0-.2.52.52,0,0,1,.17-.22l.16-.12a.72.72,0,0,1,.2-.09.41.41,0,0,1,.22,0,.35.35,0,0,1,.21.15V27l.27.35a.3.3,0,0,0,.47,0l.28-.23.43-.17.09-.25.18-.06.14-.05.1,0a.57.57,0,0,0,.14-.2.69.69,0,0,1,.15-.2l.06,0h.08a.38.38,0,0,0,.13,0l.18-.12.33-.27.19-.15a.27.27,0,0,0,.08-.15.47.47,0,0,1,.17-.22l.27-.21a.83.83,0,0,1,.25-.13l.18,0a.38.38,0,0,0,.15-.32A.64.64,0,0,0,103,24l-.08-.1s0-.07-.08-.13l-.09-.22c0-.08,0-.16,0-.23a.15.15,0,0,1,0-.15.3.3,0,0,1,.18-.08.67.67,0,0,1,.2,0l.17.07A.35.35,0,0,1,103.43,23.28Z"/><path d="M108.5,30.43l.06.12a.66.66,0,0,0,.07.15c0,.05.06.11.09.19l.17.29.29.28.14.13a.94.94,0,0,1,.1.1.36.36,0,0,1,.07.09.44.44,0,0,1,.06.21,2.26,2.26,0,0,1,0,.25,1,1,0,0,1-.26.29,1.4,1.4,0,0,0-.27.28A.45.45,0,0,1,109,33l-.12.18-.16.24c-.13.08-.24,0-.35-.13a.4.4,0,0,1,0-.24,3.1,3.1,0,0,0,0-.45,3.25,3.25,0,0,0-.07-.59,2.42,2.42,0,0,0-.3-.7l-.17-.16-.23,0c-.06,0-.11,0-.13,0l-.1.06-.17.05-.15.05-.09,0-.74.46a.82.82,0,0,0-.25.24.24.24,0,0,0,0,.28l.07.1.12.13.17.17.12.2a.27.27,0,0,0,.14.12l.16.08.16.06a.27.27,0,0,1,.12.09.17.17,0,0,1,0,.1,1,1,0,0,1,0,.14l-.06.18-.67.41c-.19.12-.34.1-.45-.07a.51.51,0,0,1-.07-.22,1.41,1.41,0,0,1,0-.21,1.12,1.12,0,0,1,0-.24.38.38,0,0,0-.07-.22l-.1-.17-.12-.2q-.16-.25-.3-.27a.79.79,0,0,0-.41.16l-.25.16-.26.22a1.29,1.29,0,0,0-.25.2.57.57,0,0,0-.15.23.43.43,0,0,0,0,.29l.35.57a1.29,1.29,0,0,0,.25.28,3.27,3.27,0,0,0,.36.25l.32.25a.79.79,0,0,1,.21.24.5.5,0,0,1,0,.12.36.36,0,0,1,0,.1s0,.06,0,.07a.22.22,0,0,1-.16,0,.73.73,0,0,1-.2-.05,1.13,1.13,0,0,0-.4,0l-.33,0a.65.65,0,0,1-.28,0,.4.4,0,0,1-.23-.19.61.61,0,0,1,0-.12l0-.14a.48.48,0,0,0,0-.15.75.75,0,0,0-.1-.2l-.65-1-.29-.3L102.1,33l-.19-.31-.19-.17-.21-.29a.26.26,0,0,1,0-.14.55.55,0,0,1,0-.17.53.53,0,0,1,0-.15.25.25,0,0,1,.07-.09c.17-.11.33,0,.49.21a1,1,0,0,0,.17.12,2.55,2.55,0,0,1,.26.19.55.55,0,0,0,.32.21.9.9,0,0,0,.47-.19.28.28,0,0,1,.13,0s.08,0,.09-.11l.11-.08.08-.09.11-.13.19-.12.37-.23.25-.15.77-.37.17-.11.09,0a.16.16,0,0,0,.09,0l.54-.33.29-.18.3-.19a.22.22,0,0,0,.09-.2.48.48,0,0,0,0-.18l-.18-.29a.35.35,0,0,1,0-.38.89.89,0,0,1,.32-.32.19.19,0,0,1,.15,0,.23.23,0,0,1,.12.09l.21.34.13.2a1.76,1.76,0,0,0,.13.18,3.78,3.78,0,0,1,.22.31Z"/><path d="M114.08,40.7s0,.06,0,.11l-.16.16-.19.15-.15.09-.79.35-.16.07-.26.08a.81.81,0,0,1-.27,0,.21.21,0,0,1-.18-.13.39.39,0,0,1,0-.31.58.58,0,0,1,.15-.21l.25-.18a1.59,1.59,0,0,0,.24-.2.5.5,0,0,0,.13-.26.63.63,0,0,0-.07-.38l-.27-.61a.41.41,0,0,0-.06-.11l-.09-.11-.1-.11a.49.49,0,0,0-.31-.29.62.62,0,0,0-.42,0l-.53.24-.16.06a.22.22,0,0,0-.11.12l-.45.14-1.78.79a1.72,1.72,0,0,0-.34.19.85.85,0,0,0-.19.19.76.76,0,0,0-.09.18l-.06.17c0,.13,0,.24,0,.35a.82.82,0,0,0,.09.34,1,1,0,0,1,0,.58.48.48,0,0,1-.23.31.39.39,0,0,1-.35,0,.69.69,0,0,1-.34-.32.46.46,0,0,1-.05-.2c0-.08,0-.14,0-.21s0-.14-.08-.22a2.72,2.72,0,0,1-.11-.25,2.58,2.58,0,0,1-.08-.26.6.6,0,0,1,0-.23l0-.07-.43-1a1.73,1.73,0,0,0-.18-.24,1.76,1.76,0,0,1-.27-.43c0-.11-.09-.22-.13-.32a1.25,1.25,0,0,0-.09-.25c0-.09-.06-.15-.07-.18a.12.12,0,0,0-.08-.06s-.09-.08-.14-.2a.25.25,0,0,1,0-.07.1.1,0,0,1,0-.05s0,0,.07,0h.29l.27,0A1.34,1.34,0,0,1,106,38l.22.24.17.18a.58.58,0,0,1,.1.12l.35.48c0,.05.08.07.16.07a1.07,1.07,0,0,0,.25,0,2.62,2.62,0,0,0,.35-.13l1.17-.52a.49.49,0,0,1,.17,0H109l1.4-.62.18-.06a.67.67,0,0,0,.17-.06.24.24,0,0,0,.09-.07s.06-.09.09-.15a.64.64,0,0,0,.06-.18.25.25,0,0,0,0-.17l-.54-1.22a.63.63,0,0,0-.24-.32.52.52,0,0,0-.29-.09,1.17,1.17,0,0,0-.32,0l-.31,0a.59.59,0,0,1-.27,0,.44.44,0,0,1-.2-.22.32.32,0,0,1,0-.3.88.88,0,0,1,.24-.19l.14-.05.21,0,.2,0,.13,0,.58-.1.16-.05a1.81,1.81,0,0,1,.27-.06H111a.2.2,0,0,1,.16.09.4.4,0,0,1,0,.25c0,.07,0,.15,0,.24a1,1,0,0,0,0,.17.48.48,0,0,0,.06.21l.11.18a1.31,1.31,0,0,1,.12.19l.09.22a.28.28,0,0,0,0,.09l0,.1a.65.65,0,0,0,0,.13l.74,1.66.18.27.08.33a5.06,5.06,0,0,0,.24.46c.09.16.17.31.24.46l.23.52a1,1,0,0,0,.21.33,1.6,1.6,0,0,0,.24.22.92.92,0,0,0,.19.13C114,40.66,114.07,40.68,114.08,40.7Z"/><circle class="circle" cx="60.5" cy="60.5" r="60"/><circle class="circle" cx="60.5" cy="60.5" r="47.5"/><path d="M94.45,94a32,32,0,0,0-20.23-3.74,57.85,57.85,0,0,0-12.5,3.46,75.8,75.8,0,0,1-15.85,4.4c-8.43,1.17-12.23-1.69-12.6-4.37-.26-1.83,1.07-3.57,3.59-3.92a8.52,8.52,0,0,1,4.89.7l.7.32a.39.39,0,0,1,.13.2c0,.11-.08.17-.17.19a.16.16,0,0,1-.2-.16.48.48,0,0,1,0-.16l-.53-.25a8.48,8.48,0,0,0-4.81-.71c-2.36.33-3.67,2-3.44,3.67.36,2.55,4.17,5.25,13.15,4A71.05,71.05,0,0,0,61.66,93.5c4.81-1.88,9.08-3.46,13.45-4.07,5.84-.81,11.83.13,19.39,4.44Z"/><path d="M22.62,92.16a.63.63,0,0,1,.12.47c0,.19,0,.36,0,.51a.82.82,0,0,0-.16.5l-.06.22a.57.57,0,0,1-.13.21s0,.08,0,.14-.09.14-.14.21l-.18.21a1.08,1.08,0,0,1-.11.11,1.69,1.69,0,0,1-.33.17l-.42.13a3.21,3.21,0,0,1-.43.07l-.35,0a.37.37,0,0,1-.18,0L20,95.07a.41.41,0,0,0-.16,0,.28.28,0,0,0-.19.07,1.26,1.26,0,0,0-.24.26c-.08.13-.16.26-.24.41a3.18,3.18,0,0,0-.17.4.54.54,0,0,0-.05.27,1.34,1.34,0,0,1,0,.35l-.09.37a2.35,2.35,0,0,0-.05.37.8.8,0,0,0,.09.36l.06.24a.7.7,0,0,1,0,.28.39.39,0,0,1,0,.12.27.27,0,0,1-.11.06.27.27,0,0,1-.26,0,.91.91,0,0,1-.24-.2,1.28,1.28,0,0,1-.19-.23.89.89,0,0,1-.08-.13A.31.31,0,0,0,18,97.8a.93.93,0,0,1-.12-.19,4,4,0,0,1,0-.56,2.41,2.41,0,0,0,0-.38,1.41,1.41,0,0,1,0-.22c0-.1,0-.2,0-.32s0-.23.05-.35,0-.23.05-.33A3.93,3.93,0,0,1,18.1,95c0-.12.09-.23.14-.33s.1-.2.13-.28a.63.63,0,0,0,.07-.25,1,1,0,0,1,0-.3.32.32,0,0,0-.08-.25.26.26,0,0,0-.21-.12.5.5,0,0,0-.24,0,.94.94,0,0,0-.23.1l-.18.12-.37.44-.2.15a.5.5,0,0,0-.23.41,1.44,1.44,0,0,0,.05.46c0,.16.06.3.09.43a.29.29,0,0,1-.11.31.15.15,0,0,1-.16,0,.27.27,0,0,1-.15-.09l-.25-.34-.33-.6-.16-.21-.33-.45-.12-.17L15,93.75s-.06-.09-.13-.2a3.22,3.22,0,0,1-.2-.37,1.8,1.8,0,0,1-.15-.4.25.25,0,0,1,.06-.27h.08l.11,0,.14,0,.05.09.07.13.09.16.14.2a.65.65,0,0,0,.35.23.39.39,0,0,0,.34,0l1-.75,1.56-1.17.75-.43a1.28,1.28,0,0,1,.2-.22,2.39,2.39,0,0,0,.23-.22.64.64,0,0,0,.15-.25.39.39,0,0,0,0-.28l-.28-.37a1.09,1.09,0,0,1-.14-.23.73.73,0,0,1-.08-.25.54.54,0,0,1,0-.25.55.55,0,0,1,.19-.23h.09l.14,0a.6.6,0,0,1,.16.08l1.29,1.57.74,1,.09.1a.86.86,0,0,0,.14.13c.06.06.13.11.19.18ZM21,92l-.09-.08a.59.59,0,0,1-.11-.08.52.52,0,0,0-.15-.07.24.24,0,0,0-.16-.09.34.34,0,0,0-.25.09l-.16.12-.38.28-.16.12a.36.36,0,0,1-.17.07.25.25,0,0,0-.15,0v0a.07.07,0,0,1,0,0s0,0-.05.06a.28.28,0,0,0-.17.15.64.64,0,0,0,0,.24.75.75,0,0,0,0,.26,1,1,0,0,0,.09.2l.21.11.16.1a.35.35,0,0,1,.11.09l.07.25a.32.32,0,0,0,.26.13.93.93,0,0,0,.33,0,1.89,1.89,0,0,0,.31-.1.79.79,0,0,1,.2-.07l.22-.26a.43.43,0,0,0,.12-.11.34.34,0,0,0,.07-.2,1.33,1.33,0,0,0,.17-.14.3.3,0,0,0,.1-.22,1,1,0,0,1-.07-.16l-.12-.29a2.85,2.85,0,0,0-.12-.31A1.78,1.78,0,0,0,21,92Z"/><path d="M27.18,97.56a.43.43,0,0,1,.09.1l.1.12.15.16a2.37,2.37,0,0,0,.23.24l.35.2.17.09.13.07.08.07a.5.5,0,0,1,.11.18.86.86,0,0,1,.07.25,1.13,1.13,0,0,1-.17.35,1.26,1.26,0,0,0-.19.33.61.61,0,0,1,0,.16,1.72,1.72,0,0,0-.07.21,1.31,1.31,0,0,0-.09.28c-.11.11-.23.09-.38,0a.54.54,0,0,1-.08-.24,3.34,3.34,0,0,0-.09-.43,3.08,3.08,0,0,0-.22-.56,2.21,2.21,0,0,0-.47-.59l-.2-.12-.23,0a.22.22,0,0,0-.13,0l-.07.08-.16.1a.5.5,0,0,0-.12.08l-.09.07-.59.63a.79.79,0,0,0-.18.29.24.24,0,0,0,0,.28l.1.07a1,1,0,0,0,.15.1l.2.12.17.16a.29.29,0,0,0,.16.09l.18,0,.17,0a.3.3,0,0,1,.14.06.2.2,0,0,1,0,.09v.33l-.55.58a.29.29,0,0,1-.45,0,.47.47,0,0,1-.12-.2.84.84,0,0,1,0-.2.79.79,0,0,1-.08-.23.44.44,0,0,0-.12-.19l-.14-.14-.18-.16a.49.49,0,0,0-.35-.19.81.81,0,0,0-.36.26l-.21.22a2.61,2.61,0,0,1-.19.27l-.19.26a.5.5,0,0,0-.08.26.42.42,0,0,0,.09.28l.49.46a1.18,1.18,0,0,0,.31.2,2.6,2.6,0,0,0,.42.15l.36.17a1.14,1.14,0,0,1,.27.17.53.53,0,0,1,0,.13.34.34,0,0,1,0,.1.1.1,0,0,1,0,.08.24.24,0,0,1-.15.07h-.2a.94.94,0,0,0-.39.06l-.31.12a.74.74,0,0,1-.27.06.42.42,0,0,1-.28-.13.76.76,0,0,1-.08-.11.67.67,0,0,1-.06-.12.7.7,0,0,0-.08-.14.73.73,0,0,0-.15-.17l-.87-.77-.36-.21-.46-.44-.26-.25-.23-.11-.27-.23a.35.35,0,0,1-.07-.12.55.55,0,0,1,0-.18.81.81,0,0,1,0-.16.32.32,0,0,1,0-.11c.14-.14.32-.11.53.09l.2.07.3.12a.58.58,0,0,0,.35.12c.1,0,.23-.11.42-.3a.17.17,0,0,1,.11-.06.11.11,0,0,0,.07-.13l.08-.1.06-.12L23,100l.16-.16.29-.32.21-.21.65-.55.14-.14s.05-.06.08-.06a.27.27,0,0,0,.07-.06l.44-.46.23-.25.25-.26a.19.19,0,0,0,0-.21.54.54,0,0,0-.08-.17l-.25-.23a.33.33,0,0,1-.1-.36.82.82,0,0,1,.23-.4.2.2,0,0,1,.14,0,.24.24,0,0,1,.14,0l.28.28.18.16.17.14a2.64,2.64,0,0,1,.29.25Z"/><path d="M31.14,102.14a.69.69,0,0,1,.24-.24.94.94,0,0,1,.28-.1,1.83,1.83,0,0,1,.33,0h.36a6.37,6.37,0,0,1,.68.06,1.45,1.45,0,0,1,.62.27l.37.25a.73.73,0,0,1,.23.36.8.8,0,0,1,0,.37,1,1,0,0,1-.16.35,1.07,1.07,0,0,1-.18.19,1,1,0,0,1-.23.13.58.58,0,0,1-.26,0,.49.49,0,0,1-.24-.08.34.34,0,0,1-.14-.18c0-.06,0-.13,0-.19a1.42,1.42,0,0,0,0-.2.31.31,0,0,0-.12-.16l-.28-.16a1.11,1.11,0,0,0-.3-.08.64.64,0,0,0-.28,0,.36.36,0,0,0-.22.17.21.21,0,0,0,0,.22.55.55,0,0,0,.15.2c.06.07.14.13.21.21a.88.88,0,0,1,.19.24l.29.56c.07.16.16.35.25.58a1.65,1.65,0,0,0,.1.19l.09.16s0,.1.08.16a1.65,1.65,0,0,1,.09.22,3.41,3.41,0,0,1,.14.77,1.2,1.2,0,0,1-.24.73l-.16.23a.86.86,0,0,0-.11.24.6.6,0,0,1-.11.25.74.74,0,0,1-.31.28,1.79,1.79,0,0,0-.37.18.31.31,0,0,0-.09.13s-.05.08-.11.1a.3.3,0,0,1-.24.08.51.51,0,0,0-.27,0l-.26,0H30.6l-.28,0a1.73,1.73,0,0,1-.44-.08,3.34,3.34,0,0,1-.41-.14.47.47,0,0,0-.16,0,.19.19,0,0,1-.16,0,.52.52,0,0,1-.13-.11l-.1-.09a.86.86,0,0,0-.25-.13.89.89,0,0,1-.24-.12.26.26,0,0,1-.1-.11.34.34,0,0,0-.08-.14.55.55,0,0,0-.17-.17,1.19,1.19,0,0,1-.18-.15.3.3,0,0,1-.14-.18,1.15,1.15,0,0,0-.09-.26,1,1,0,0,0-.14-.23.48.48,0,0,1-.12-.27.23.23,0,0,1,0-.24.76.76,0,0,0,.06-.25c0-.15,0-.27.05-.36a.64.64,0,0,1,.14-.33.8.8,0,0,1,.56-.35.9.9,0,0,1,.67.15,1,1,0,0,1,.3.33.32.32,0,0,1,0,.36.3.3,0,0,1-.07.08l-.07.06a.24.24,0,0,0,0,.13.2.2,0,0,1,0,.11l-.06,0,0,0a.45.45,0,0,0-.09.31.71.71,0,0,0,.08.31,1.21,1.21,0,0,0,.21.31,2.37,2.37,0,0,0,.29.25,1.45,1.45,0,0,0,.68.25,2.1,2.1,0,0,0,.74-.08,1.42,1.42,0,0,0,.38-.13.79.79,0,0,0,.32-.29.51.51,0,0,0,.09-.26.54.54,0,0,1,.09-.26s0,0,.05,0,0,0,0,0a.44.44,0,0,0,.1-.32,1.17,1.17,0,0,0-.09-.33,3.79,3.79,0,0,0-.18-.34,4,4,0,0,1-.2-.35.16.16,0,0,1,0-.12.27.27,0,0,0,0-.12.74.74,0,0,0-.16-.19.65.65,0,0,1-.17-.39.49.49,0,0,0,0-.19.57.57,0,0,0-.16-.18.51.51,0,0,1-.13-.22,1.54,1.54,0,0,1,0-.19.6.6,0,0,1,0-.19.75.75,0,0,0-.09-.29.29.29,0,0,1,0-.28l.17-.25a.54.54,0,0,0,.07-.13l.08-.13a.17.17,0,0,1,.06-.06l.05-.06a.46.46,0,0,1,.07-.07Z"/><path d="M37.71,106.24a.64.64,0,0,1,.2-.27.89.89,0,0,1,.27-.15l.32-.07.35,0a6,6,0,0,1,.68,0,1.59,1.59,0,0,1,.66.16l.4.2a.71.71,0,0,1,.29.32.8.8,0,0,1,.09.36,1,1,0,0,1-.11.37.58.58,0,0,1-.15.21.87.87,0,0,1-.21.17.72.72,0,0,1-.25.07.55.55,0,0,1-.25,0,.34.34,0,0,1-.16-.15c0-.07-.05-.13-.07-.19s0-.12-.07-.19a.29.29,0,0,0-.15-.14,1.33,1.33,0,0,0-.3-.11,1.15,1.15,0,0,0-.31,0,.77.77,0,0,0-.27.07.43.43,0,0,0-.19.21.22.22,0,0,0,0,.22.72.72,0,0,0,.17.18l.25.17a.88.88,0,0,1,.22.21c.14.19.27.36.37.51a5.49,5.49,0,0,1,.34.53l.13.18.11.14a.76.76,0,0,1,.11.14,1.76,1.76,0,0,1,.12.2,2.92,2.92,0,0,1,.26.75,1.15,1.15,0,0,1-.12.75l-.12.25a.63.63,0,0,0-.07.26.68.68,0,0,1-.07.26.75.75,0,0,1-.27.33,1.72,1.72,0,0,0-.33.24.21.21,0,0,0-.07.14.16.16,0,0,1-.09.11.33.33,0,0,1-.23.12.65.65,0,0,0-.26.06l-.26.07-.23,0-.23,0h-.28a2.14,2.14,0,0,1-.45,0l-.43-.07a.43.43,0,0,0-.16,0,.25.25,0,0,1-.17,0,.56.56,0,0,1-.14-.09l-.11-.08a.72.72,0,0,0-.27-.08,1,1,0,0,1-.25-.08.22.22,0,0,1-.12-.11.35.35,0,0,0-.1-.12.61.61,0,0,0-.2-.14.81.81,0,0,1-.2-.11.33.33,0,0,1-.16-.17,1.47,1.47,0,0,0-.13-.24,1.8,1.8,0,0,0-.18-.2.47.47,0,0,1-.16-.25.23.23,0,0,1-.05-.23.53.53,0,0,0,0-.26c0-.15,0-.27,0-.36a.58.58,0,0,1,.08-.35.82.82,0,0,1,.5-.43.87.87,0,0,1,.69,0,.91.91,0,0,1,.34.28.33.33,0,0,1,.06.36.35.35,0,0,1-.07.09.18.18,0,0,0-.05.07.21.21,0,0,0,0,.13.2.2,0,0,1,0,.11s0,0,0,.06a.12.12,0,0,0,0,0,.51.51,0,0,0,0,.32.78.78,0,0,0,.13.3,1.22,1.22,0,0,0,.25.26,1.85,1.85,0,0,0,.33.21,1.36,1.36,0,0,0,.71.13,2.12,2.12,0,0,0,.72-.18,3,3,0,0,0,.36-.19.93.93,0,0,0,.26-.34.45.45,0,0,0,0-.28.58.58,0,0,1,0-.26s0,0,0,0,0,0,0,0a.5.5,0,0,0,.05-.33,1,1,0,0,0-.14-.31,2.26,2.26,0,0,0-.23-.31l-.25-.32a.15.15,0,0,1,0-.11.17.17,0,0,0,0-.12.7.7,0,0,0-.19-.16.34.34,0,0,1-.16-.19.34.34,0,0,1-.07-.17.38.38,0,0,0-.06-.18.52.52,0,0,0-.18-.16.46.46,0,0,1-.17-.19c0-.08,0-.14,0-.19a.84.84,0,0,1,0-.18.77.77,0,0,0-.12-.28.24.24,0,0,1,0-.28l.13-.27a.78.78,0,0,0,.05-.14.47.47,0,0,1,.06-.15s0,0,0-.06a.16.16,0,0,0,0-.07l.06-.08Z"/><path d="M46.67,108.83l.13,0,.14.06.21.08.31.11.4,0h.34l.11,0a.4.4,0,0,1,.18.12,1.07,1.07,0,0,1,.18.19,1,1,0,0,1,0,.38,1.3,1.3,0,0,0,0,.39.39.39,0,0,1,0,.15,1.43,1.43,0,0,0,0,.22,1.55,1.55,0,0,0,0,.29c-.05.14-.16.19-.36.13,0,0-.1-.07-.17-.17a3.53,3.53,0,0,0-.29-.35,2.48,2.48,0,0,0-.44-.39,2,2,0,0,0-.68-.32h-.24l-.18.13c-.06,0-.09.07-.1.1l0,.1c0,.06-.07.11-.1.16a.54.54,0,0,0-.07.13.34.34,0,0,0,0,.1l-.25.83a1,1,0,0,0,0,.35.25.25,0,0,0,.17.22l.12,0h.19l.23,0,.23.07a.37.37,0,0,0,.18,0l.17-.06.16-.06a.2.2,0,0,1,.15,0s0,0,.06.06a.61.61,0,0,1,.07.14l.07.17-.23.76c-.06.21-.19.29-.38.23a.43.43,0,0,1-.2-.11,1.53,1.53,0,0,1-.13-.16.74.74,0,0,1-.18-.17.48.48,0,0,0-.2-.12l-.18,0-.23-.07a.49.49,0,0,0-.4,0,.77.77,0,0,0-.2.39l-.09.29c0,.12,0,.23-.05.34s0,.21,0,.31a.59.59,0,0,0,0,.27.44.44,0,0,0,.22.2l.64.2a1.4,1.4,0,0,0,.37,0l.43-.06.4,0a1.11,1.11,0,0,1,.33,0l.06.11a.41.41,0,0,1,0,.09.1.1,0,0,1,0,.07.25.25,0,0,1-.11.14l-.17.09a.92.92,0,0,0-.32.24c-.08.09-.16.17-.22.25a.87.87,0,0,1-.22.17.46.46,0,0,1-.31,0l-.12-.06-.1-.08-.14-.09a.71.71,0,0,0-.21-.08l-1.12-.3-.42,0-.61-.18-.35-.11H43l-.35-.08a.17.17,0,0,1-.11-.08.56.56,0,0,1-.1-.15l-.06-.15a.54.54,0,0,1,0-.11c.06-.19.23-.25.51-.16l.21,0,.32,0a.6.6,0,0,0,.38,0,1,1,0,0,0,.23-.46.23.23,0,0,1,.07-.11s0-.08,0-.14a.5.5,0,0,0,0-.12.66.66,0,0,0,0-.14.81.81,0,0,1,0-.16l.07-.22.12-.41.09-.29.33-.78.06-.19a.19.19,0,0,1,0-.09s0,0,0-.09l.18-.61.09-.32.11-.34a.2.2,0,0,0-.07-.2.35.35,0,0,0-.15-.12l-.33-.09a.37.37,0,0,1-.26-.28.92.92,0,0,1,0-.46.16.16,0,0,1,.1-.1.17.17,0,0,1,.15,0l.38.11.23.07.22,0,.37.09Z"/><path d="M60,110.65c.27,0,.45.11.52.27a1.07,1.07,0,0,1,.09.49.38.38,0,0,1-.07.11l-.14.13-.17.11a.27.27,0,0,1-.13,0l-.2,0h-.15a.49.49,0,0,0-.22.06.4.4,0,0,0-.28.06.45.45,0,0,0-.15.18.72.72,0,0,0-.08.26l0,.26-.08.8-.08.86a.44.44,0,0,0,0,.21s0,.09,0,.13a.37.37,0,0,1,0,.15.92.92,0,0,1,0,.16l-.07.39a1.22,1.22,0,0,0,0,.33.84.84,0,0,1,0,.24l.11.35,0,.33a.31.31,0,0,0,.18.32,2.89,2.89,0,0,0,.44.18l.45.16a.26.26,0,0,1,.18.27c0,.24-.14.35-.37.33l-.43,0-.18,0a.45.45,0,0,0-.19,0l-1-.16-.33,0-.23,0h-.9a.69.69,0,0,1-.26,0s-.07-.08-.06-.18a.83.83,0,0,1,.13-.36.33.33,0,0,1,.35-.16l.23,0,.47,0a.18.18,0,0,0,.14,0,.2.2,0,0,0,.08-.12.94.94,0,0,0,0-.16.74.74,0,0,0,0-.12,1.32,1.32,0,0,0,0-.38,1.73,1.73,0,0,1,0-.3l0-.43,0-.36,0-.34a1.18,1.18,0,0,0,0-.16.91.91,0,0,0,0-.23,1.05,1.05,0,0,0-.06-.21.15.15,0,0,0-.08-.09s0,0-.11.09a3.11,3.11,0,0,0-.2.25c-.08.1-.17.21-.26.34l-.28.36-.24.33-.17.23a.58.58,0,0,0-.18.17c0,.08-.09.16-.13.24a2.56,2.56,0,0,0-.11.24,1.29,1.29,0,0,1-.09.2l-.21.28-.17.19a.91.91,0,0,1-.16.22.16.16,0,0,1-.13,0c-.1,0-.16,0-.18-.11a1.8,1.8,0,0,0-.12-.29l0-.74c0-.15-.09-.3-.15-.46s-.11-.32-.15-.48a4.52,4.52,0,0,1-.11-.47,2.23,2.23,0,0,1,0-.44l0-.13a.69.69,0,0,0,0-.16,1.05,1.05,0,0,0-.06-.24.67.67,0,0,0-.09-.21c0-.06-.06-.09-.1-.09s-.06,0-.1.1a2.55,2.55,0,0,0-.14.24l-.12.28a.91.91,0,0,0,0,.22l-.06.6,0,.23c-.05.2-.1.38-.15.55s-.07.28-.1.41-.05.22-.06.25a.64.64,0,0,0,.08.46.49.49,0,0,0,.25.18l.25.1c.08,0,.12.11.1.23a.27.27,0,0,1-.07.19.26.26,0,0,1-.13.08.39.39,0,0,1-.15,0h-.11l-.46,0L52,117.07l-.23,0-.2,0-.09,0a.41.41,0,0,1-.16,0l-.22,0L51,117l-.14,0-.12-.08s0-.06,0-.09a.24.24,0,0,1,.11-.2.74.74,0,0,1,.21-.13l.23-.06a.43.43,0,0,1,.15,0l.24,0H52l.3,0a.84.84,0,0,0,.2-.28,2.65,2.65,0,0,0,.18-.42c.06-.14.1-.27.14-.39l.07-.23,0-.43v-.13a.3.3,0,0,0,.07-.11,1,1,0,0,0,.05-.16l0-.19.05-.54a.5.5,0,0,1,0-.14l.06-.19.09-.22,0-.33.06-.14s0-.08,0-.13a.77.77,0,0,0,0-.15l0-.27s0-.07,0-.16l-.06-.27c0-.1,0-.22-.08-.35a.47.47,0,0,0-.15-.17l-.19-.17-.16-.13a.35.35,0,0,1-.15-.17v-.13c0-.05,0-.09.07-.1l.15,0h.21l.3,0a.47.47,0,0,0,.17,0,.15.15,0,0,0,.08,0l0,0s0,0,0,0l.56,0,.23,0,.32.16c.06.21.13.47.19.78s.13.63.19,1,.13.68.19,1,.12.65.18.92.11.49.16.66.09.25.13.26a.41.41,0,0,1,.07-.11.32.32,0,0,1,.08-.09l.08-.08a9.89,9.89,0,0,1,.6-1.23c.25-.41.47-.81.67-1.2a.59.59,0,0,1,.19-.42,3.89,3.89,0,0,0,.35-.41.73.73,0,0,0,.07-.21,2.68,2.68,0,0,1,.07-.27,1,1,0,0,1,.12-.25.4.4,0,0,1,.26-.15l.47,0,.15.11a1.71,1.71,0,0,0,.32,0l.28,0Z"/><path d="M64.59,110.59h.19l.33,0a.27.27,0,0,0,.17.08h.35a3.42,3.42,0,0,1,.64,0,2.22,2.22,0,0,1,.61.17,2,2,0,0,1,.55.37,2.64,2.64,0,0,1,.46.6l.07.64a.72.72,0,0,1-.07.38,2.91,2.91,0,0,1-.2.35l-.2.29c-.06.09-.09.16-.08.2a.12.12,0,0,0,.06.09l.13.1.18.11A.4.4,0,0,1,68,114a1.12,1.12,0,0,1,.22.26,1.68,1.68,0,0,1,.16.33,1.43,1.43,0,0,1,.08.29l0,.33a2.79,2.79,0,0,0,0,.41.82.82,0,0,1-.08.43.59.59,0,0,0-.1.16,1.55,1.55,0,0,1,0,.15.35.35,0,0,1-.08.13.34.34,0,0,1-.16.11,4.31,4.31,0,0,1-.74.49,2.48,2.48,0,0,1-.9.24l-.78.09-.34,0-.33,0h-.07l-.34-.1-.11.09a.51.51,0,0,1-.17.08l-.24,0s0,0,0,0l-.07,0-.12,0h-.12a.3.3,0,0,1-.23,0,.16.16,0,0,1-.08-.13.76.76,0,0,1,0-.36.23.23,0,0,1,.21-.2l.2,0a1.13,1.13,0,0,0,.26-.07,1.34,1.34,0,0,1,.26-.08.11.11,0,0,0,.1,0,.2.2,0,0,0,0-.09.61.61,0,0,0,0-.11.51.51,0,0,1,0-.09.14.14,0,0,0,0-.15.21.21,0,0,0,0-.06l0-.3a.91.91,0,0,0,.05-.31,1.28,1.28,0,0,0,0-.22l0-.34a2.6,2.6,0,0,1,0-.26l0-.21a.82.82,0,0,0,0-.14s0-.08,0-.08,0,0,0,0a.27.27,0,0,1,0-.13,3.45,3.45,0,0,1,0-.43l0-.21,0-.19a.55.55,0,0,1,0-.21.49.49,0,0,0,0-.23,1.09,1.09,0,0,0-.16-.49,1.07,1.07,0,0,0-.3-.3,1.33,1.33,0,0,0-.38-.18l-.36-.11a1.32,1.32,0,0,1-.29-.13.28.28,0,0,1-.13-.2.31.31,0,0,1,.07-.2A.87.87,0,0,1,63,111l.22-.1a.93.93,0,0,1,.19,0l.24,0,.51-.16Zm1.15,1.06a.31.31,0,0,0-.17.11.73.73,0,0,0-.16.22.85.85,0,0,0-.11.26.24.24,0,0,0,0,.19l0,.21,0,.22,0,.3c0,.11.06.2.08.28a.84.84,0,0,0,.09.19.25.25,0,0,0,.15.1.64.64,0,0,0,.25,0,.49.49,0,0,0,.22-.08,2.11,2.11,0,0,0,.27-.18,1,1,0,0,0,.23-.23.38.38,0,0,0,.08-.23l0-.3,0-.33a.59.59,0,0,0-.1-.24.86.86,0,0,0-.22-.25,1.17,1.17,0,0,0-.3-.19A.63.63,0,0,0,65.74,111.65Zm.2,2.73a.35.35,0,0,0-.25.15,1,1,0,0,0-.13.29,1.75,1.75,0,0,0,0,.32,2.2,2.2,0,0,0,0,.23l0,.43,0,.3a.34.34,0,0,0,0,.1.61.61,0,0,0,.1.14l.14.11a.29.29,0,0,0,.16,0,.52.52,0,0,0,.24-.07l.18-.07a1.84,1.84,0,0,0,.31-.16,1.81,1.81,0,0,0,.3-.25,1.21,1.21,0,0,0,.2-.3.5.5,0,0,0,0-.32,1.29,1.29,0,0,1,0-.24.82.82,0,0,1,0-.14.28.28,0,0,0,0-.08.31.31,0,0,0,0-.08.44.44,0,0,0-.15-.25.66.66,0,0,0-.28-.13,1.29,1.29,0,0,0-.35,0,1.87,1.87,0,0,0-.34,0h-.17Z"/><path d="M73.48,109.15a.62.62,0,0,1,.33,0,.32.32,0,0,1,.21.23l.06.22a2.36,2.36,0,0,1-.2.23,1.21,1.21,0,0,1-.16.16l-.11.09-.35.09a.51.51,0,0,0-.34.24.54.54,0,0,0,0,.42l.09.35a3.43,3.43,0,0,1,.11.7c0,.26,0,.51,0,.75l.17.63.17.65.09.33,0,.13,0,.11a.57.57,0,0,0,.11.16.8.8,0,0,0,.13.13.21.21,0,0,0,.17,0l.33-.09.35-.09.32-.08.17-.12a3.48,3.48,0,0,0,.3-.26l.32-.29a1.76,1.76,0,0,0,.21-.24l.14-.21a.25.25,0,0,1,.16-.12.69.69,0,0,1,0-.22s0,0,.11-.06a.45.45,0,0,1,.22,0c.1,0,.15.07.16.11a1.28,1.28,0,0,1,0,.3c0,.18-.06.38-.1.6s-.09.44-.15.65a1.21,1.21,0,0,1-.2.44s-.08.08-.19.12l-.35.12c-.13.05-.29.09-.47.14l-.32.09-.22.06a2.89,2.89,0,0,1-.5.08.47.47,0,0,0-.33.1l-.14.07-.52.28-.15,0H73l-.25,0-.15,0-.17.07-.12.08-.13.1a.3.3,0,0,1-.21,0,.32.32,0,0,1-.12-.11.48.48,0,0,1-.08-.16l0-.12c0-.16,0-.28.08-.35l.31-.18a1.19,1.19,0,0,0,.31-.23.51.51,0,0,0,0-.47l-.26-1L72,113l-.11-.42a1.06,1.06,0,0,1,0-.18,2.54,2.54,0,0,1,0-.29c0-.12,0-.25,0-.39a.39.39,0,0,0-.1-.16.33.33,0,0,1-.1-.14l0-.12a.73.73,0,0,0-.22-.42.58.58,0,0,0-.26-.13,1,1,0,0,1-.26-.09c-.08,0-.15-.13-.19-.3a.37.37,0,0,1,0-.21.75.75,0,0,1,.08-.18.68.68,0,0,1,.12-.12l.1-.05Z"/><path d="M81.1,105.77a.61.61,0,0,1,.4-.06.61.61,0,0,1,.3.19,2,2,0,0,1,.22.32l.21.35.18.39.32.25a.91.91,0,0,1,.29.36l.12.27a1.1,1.1,0,0,0,.15.17l.29.3.3.32a1.3,1.3,0,0,1,.17.22,3.47,3.47,0,0,0,.3.53,6.7,6.7,0,0,0,.45.6,4.31,4.31,0,0,0,.47.48c.15.12.26.16.35.12a.78.78,0,0,1,.26-.07l.16,0,.12,0,.2,0a.44.44,0,0,1,.2,0,.22.22,0,0,1,.14.13.35.35,0,0,1,0,.37.77.77,0,0,1-.32.26l-.74.3-.31.14-.54.25-.24.11-.29.17-.22.09c-.1,0-.16,0-.19,0a.32.32,0,0,1,0-.31,1.36,1.36,0,0,1,.24-.31,1.8,1.8,0,0,0,.2-.24.28.28,0,0,0,0-.27l-.11-.15-.19-.25a2.23,2.23,0,0,0-.21-.22c-.07-.06-.11-.08-.14-.07a1,1,0,0,1-.16-.22,1.91,1.91,0,0,0-.15-.21.42.42,0,0,0-.16-.12.23.23,0,0,0-.2,0l-.37.17-.12.06-.19.1-.18.11a.24.24,0,0,0-.1.11q-.12.14,0,.24a1.1,1.1,0,0,1,.15.26s0,.11,0,.21v.33a3,3,0,0,0,0,.31.49.49,0,0,0,0,.17c0,.09.09.14.16.15a.64.64,0,0,0,.2,0,.57.57,0,0,1,.22.07.44.44,0,0,1,.21.26.13.13,0,0,1,0,.12.23.23,0,0,1-.07.1l-.11.08-.09,0s0,0,0,.05l-.06,0a.2.2,0,0,1-.13,0l-.11.06-.16.05-.2.07a.64.64,0,0,0-.22.14.76.76,0,0,1-.21.14,1,1,0,0,0-.21.11.29.29,0,0,0-.08.08s0,0,0,0l0,0-.2.07a1.4,1.4,0,0,1-.29.09,1,1,0,0,1-.28,0c-.09,0-.14,0-.16-.07a.56.56,0,0,1,0-.4.45.45,0,0,1,.27-.3l.18-.15a.19.19,0,0,0,.07-.08,1,1,0,0,0,.08-.15.89.89,0,0,0,.08-.17l.08-.15a2.56,2.56,0,0,1,0-.7c0-.27,0-.52,0-.76a2.32,2.32,0,0,1,0-.46,2.85,2.85,0,0,1,0-.44,3.84,3.84,0,0,0,0-.48c0-.16,0-.31,0-.47s0-.31-.05-.47,0-.33,0-.51a2,2,0,0,0,0-.41c0-.14-.06-.28-.1-.43a3,3,0,0,1-.09-.45,3.91,3.91,0,0,1,0-.49l.08-.19a.79.79,0,0,1,.15-.24Zm.78,2.06a.18.18,0,0,0-.1.12.71.71,0,0,0,0,.2,1.15,1.15,0,0,0,0,.19.86.86,0,0,0,0,.13l.07.14,0,.1a.89.89,0,0,0,0,.11c0,.05,0,.13,0,.23l0,.09a.18.18,0,0,0,.15.08.4.4,0,0,0,.2,0l.11,0,.13-.07a.38.38,0,0,0,.11-.11.13.13,0,0,0,0-.12.35.35,0,0,0-.18-.18.31.31,0,0,1-.15-.12l-.22-.48a.91.91,0,0,0-.12-.17C82,107.83,81.92,107.81,81.88,107.83Z"/><path d="M87,103l.22-.15a.4.4,0,0,1,.22,0,.63.63,0,0,1,.26,0,.65.65,0,0,0,.21,0,.43.43,0,0,0,.38.08,1,1,0,0,1,.35,0A1.6,1.6,0,0,1,89,103l.44.12.44.13a2.46,2.46,0,0,0,.4.09,2.24,2.24,0,0,1,.5.16,1,1,0,0,0,.54,0,2.39,2.39,0,0,1,.38.06l.64.1.64.07a.68.68,0,0,0,.4-.06c.05,0,.07-.07.07-.1a.09.09,0,0,0,0-.09.27.27,0,0,0-.07-.08.14.14,0,0,1-.07-.06l-.54-.72a.67.67,0,0,1-.1-.24.77.77,0,0,0-.15-.32l-.61-.81-.17,0-.24,0-.23,0a.23.23,0,0,0-.13,0l-.18.14a.59.59,0,0,1-.16.06.76.76,0,0,1-.21,0h-.18l-.09,0-.22-.3a.3.3,0,0,1-.07-.19.3.3,0,0,1,0-.16.75.75,0,0,1,.12-.14l.13-.1.18-.14.19-.12.26-.14.25-.14.21-.13,1.33-1a.86.86,0,0,1,.43-.18.37.37,0,0,1,.38.16.8.8,0,0,1,.09.14.61.61,0,0,1,0,.19,1,1,0,0,1-.34.44,4.21,4.21,0,0,0-.41.28l-.21.28-.17.12a.2.2,0,0,0,0,.21.57.57,0,0,0,.13.27l.28.38,0,.08.43.56.33.45a.92.92,0,0,0,.17.15l.17.14.4.54.53,1.06a.92.92,0,0,0,.14.13,1.16,1.16,0,0,0,.21.16l.2.15a.79.79,0,0,1,.13.13l.1.14.12.21a.56.56,0,0,1,.08.2.14.14,0,0,1,0,.14l-.13.1-.19.13-.19.09c-.06,0-.1,0-.11,0a1.38,1.38,0,0,1-.47-.16,1.21,1.21,0,0,0-.46-.14l-.38-.09-.32,0a2.84,2.84,0,0,1-.31-.06.91.91,0,0,1-.31-.12,1.94,1.94,0,0,0-.68-.22l-.79-.1c-.28,0-.55,0-.82-.09a2.53,2.53,0,0,1-.72-.18l-.1-.07a.49.49,0,0,0-.17-.06.58.58,0,0,0-.19,0,.28.28,0,0,0-.16,0c-.13.09-.11.23,0,.43l.54.72.28.37.47.49a2,2,0,0,1,.19.27,1.08,1.08,0,0,0,.14.23.44.44,0,0,0,.32.19,1.07,1.07,0,0,0,.38-.06,3.62,3.62,0,0,0,.4-.19,3,3,0,0,1,.4-.2.87.87,0,0,1,.36-.09.34.34,0,0,1,.29.16s.05.09,0,.12a.36.36,0,0,1-.11.1l-1.09.82-.55.55a.37.37,0,0,0-.25.06,1.46,1.46,0,0,0-.19.13l-.19.14a.7.7,0,0,1-.33.16.71.71,0,0,0-.28.13l-.35.26v.16l-.19.15-.1-.13-.14-.18-.18-.21a.23.23,0,0,1,0-.2.38.38,0,0,1,.11-.17l.21-.16s.06,0,.06-.05l0,0,0,0,.18-.14.4-.3a.22.22,0,0,0,.09-.12.43.43,0,0,0,0-.16.53.53,0,0,0,0-.15l-.06-.1-.09-.06a.33.33,0,0,1-.13-.11,1.11,1.11,0,0,0-.19-.22.81.81,0,0,0-.15-.13l-.13-.1a.26.26,0,0,1-.11-.12.83.83,0,0,1-.11-.17c0-.07-.07-.14-.1-.2a1.55,1.55,0,0,0-.08-.23l-.48-.65a.68.68,0,0,0-.12-.12.29.29,0,0,0-.2-.09q-.09-.12-.06-.18a.09.09,0,0,1,0-.06.48.48,0,0,0-.12-.08l-.16-.09a.53.53,0,0,1-.15-.08.23.23,0,0,1-.09-.07.44.44,0,0,0-.38-.19,2.81,2.81,0,0,0-.49,0,2.25,2.25,0,0,1-.51,0,.53.53,0,0,1-.43-.25c0-.08,0-.16-.05-.23a1.09,1.09,0,0,1,0-.18.15.15,0,0,1,.07-.14Z"/><path d="M96.84,94.06a.4.4,0,0,1,.24-.15.5.5,0,0,1,.24,0,1.07,1.07,0,0,1,.21.13l.16.14.17.16a1.37,1.37,0,0,1,.2.52.52.52,0,0,1-.14.48.76.76,0,0,1-.34.21,1,1,0,0,0-.4.25.85.85,0,0,0-.21.51A2.66,2.66,0,0,0,97,97a2.55,2.55,0,0,0,.15.59,1.09,1.09,0,0,0,.21.37l.25.22.33.31a3,3,0,0,0,.39.3,4.78,4.78,0,0,0,.63.38,2.67,2.67,0,0,0,.67.23.5.5,0,0,0,.5-.13l.1-.24a2.73,2.73,0,0,0,.3-.42,1,1,0,0,0,.1-.51,2.84,2.84,0,0,1,0-.71.41.41,0,0,1,.05-.18l.09-.14h.1a.34.34,0,0,1,.17.06,1.24,1.24,0,0,1,.31.55,3.38,3.38,0,0,1,.16.78,3.9,3.9,0,0,1,0,.76.86.86,0,0,1-.15.49l-.07.07-.16.28-.14.21a.85.85,0,0,1-.09.14.63.63,0,0,1-.25.14l-.39.14-.41.09a.7.7,0,0,1-.3,0,.87.87,0,0,1-.25-.07,3.9,3.9,0,0,1-.44-.19l-.44-.23a1.48,1.48,0,0,1-.3-.21l-.28-.25-.14,0a.37.37,0,0,1-.19-.09,1.6,1.6,0,0,1-.16-.23l-.14-.19-.12-.15-.2-.18s0,0-.08,0l-.11,0-.14,0-.18-.35-.17-.16c-.06-.14-.11-.26-.15-.38s-.07-.2-.1-.3a.87.87,0,0,1,0-.23,1,1,0,0,1-.18-.41,2.53,2.53,0,0,1,0-.48,3,3,0,0,1,.08-.51l.12-.51.13-.24.1-.17.08-.12.16-.18.31-.33Z"/><path d="M100.24,90.05l.09-.11.11-.12.13-.16c.06-.07.12-.16.2-.27l.15-.38.06-.17a.58.58,0,0,1,0-.14.89.89,0,0,1,0-.1.66.66,0,0,1,.17-.14l.24-.11a1.12,1.12,0,0,1,.36.13,1.22,1.22,0,0,0,.36.13.53.53,0,0,1,.17,0l.21,0,.29,0c.12.09.13.21,0,.38a.4.4,0,0,1-.22.11,3.08,3.08,0,0,0-.42.17,2.8,2.8,0,0,0-.51.3,2.24,2.24,0,0,0-.52.54l-.08.23a1.28,1.28,0,0,1,.07.21q0,.1.06.12l.09.07a1.49,1.49,0,0,1,.12.14l.1.11.08.07.71.49a1,1,0,0,0,.33.14.24.24,0,0,0,.26-.1l.06-.11s0-.1.07-.16l.09-.22.14-.2a.49.49,0,0,0,.06-.17v-.35a.23.23,0,0,1,0-.14.1.1,0,0,1,.09,0l.14,0,.19,0,.65.45c.18.13.22.27.11.44a.55.55,0,0,1-.18.16l-.19.07-.21.12a.43.43,0,0,0-.18.15l-.11.16-.13.2c-.12.16-.16.29-.13.37a.8.8,0,0,0,.31.32l.24.17a1.77,1.77,0,0,1,.31.15,1.83,1.83,0,0,0,.28.14.63.63,0,0,0,.26,0,.5.5,0,0,0,.27-.14l.38-.56a1.26,1.26,0,0,0,.15-.33,3,3,0,0,0,.09-.43c0-.14.07-.27.1-.39a1.42,1.42,0,0,1,.13-.3l.13,0,.1,0h.08a.26.26,0,0,1,.09.14,1.18,1.18,0,0,1,0,.2.86.86,0,0,0,.13.38l.16.29a.52.52,0,0,1,.1.26.46.46,0,0,1-.09.29.38.38,0,0,1-.09.09l-.11.08-.13.1-.14.17-.63,1-.15.39-.36.53-.21.29-.07.24-.19.31a.19.19,0,0,1-.11.08.55.55,0,0,1-.17,0h-.17a.16.16,0,0,1-.11,0c-.16-.11-.16-.29,0-.53,0-.07,0-.14,0-.21a1.61,1.61,0,0,1,.07-.31.62.62,0,0,0,.07-.37c0-.09-.15-.21-.37-.36a.31.31,0,0,1-.08-.11s-.06-.06-.14,0a.24.24,0,0,0-.11-.06l-.12-.05-.16,0-.19-.12-.35-.25-.25-.17-.63-.56-.17-.11a.22.22,0,0,1-.07-.07l-.07-.07-.52-.36-.28-.19-.3-.21a.2.2,0,0,0-.21,0,.56.56,0,0,0-.15.11l-.2.28a.35.35,0,0,1-.34.17,1,1,0,0,1-.42-.17.2.2,0,0,1-.08-.13.33.33,0,0,1,0-.15l.23-.33.13-.19.12-.2a2.21,2.21,0,0,1,.2-.32Z"/></g></g></svg>